{"glyphs":{"0":{"ha":1085,"x_min":52,"x_max":1034,"o":"m 757 803 q 880 760 826 802 q 968 659 935 718 q 1017 536 1001 601 q 1034 403 1034 471 q 1006 227 1034 313 q 915 75 978 141 q 757 3 852 8 l 327 3 q 168 73 232 7 q 78 227 104 140 q 52 403 52 313 q 79 578 52 492 q 169 732 106 665 q 327 803 232 799 l 353 803 l 731 803 l 757 803 m 711 184 q 797 223 762 187 q 846 307 831 259 q 861 403 861 354 q 846 498 861 452 q 796 582 830 545 q 711 621 762 618 l 369 621 q 283 582 317 618 q 234 498 250 545 q 218 403 218 452 q 233 307 218 354 q 283 223 248 259 q 369 184 317 187 l 711 184 z "},"1":{"ha":1085,"x_min":168,"x_max":632,"o":"m 191 463 q 173 529 168 492 q 208 590 178 566 l 475 798 q 543 825 505 825 q 605 798 579 823 q 632 736 631 773 l 632 72 q 543 -16 624 -9 q 477 9 505 -16 q 449 72 449 34 l 449 547 l 319 446 q 252 429 289 423 q 191 463 214 433 z "},"2":{"ha":1085,"x_min":85,"x_max":1005,"o":"m 95 712 q 121 777 95 750 q 186 803 148 803 l 709 803 q 726 802 718 803 l 734 802 q 890 758 829 799 q 978 665 951 718 q 1005 560 1005 613 q 979 454 1005 506 q 890 361 952 401 q 734 317 829 320 l 349 317 q 306 305 323 316 q 281 277 289 294 q 273 251 273 260 l 273 222 q 281 195 273 205 q 316 187 290 186 l 907 187 q 971 160 945 187 q 998 96 998 134 q 972 32 998 58 q 907 5 945 5 l 243 5 q 127 43 167 5 q 85 149 87 80 l 85 251 q 112 360 85 307 q 200 455 138 414 q 357 499 262 496 l 742 499 q 785 511 768 500 q 810 534 802 521 q 818 560 818 547 q 810 587 818 574 q 785 610 802 600 q 742 621 768 620 l 186 621 q 122 648 148 621 q 95 712 95 674 z "},"3":{"ha":1085,"x_min":92,"x_max":997,"o":"m 95 96 q 122 160 95 134 q 186 187 148 187 l 734 187 q 777 199 760 189 q 802 224 793 210 q 810 252 810 237 q 802 281 810 267 q 777 305 793 294 q 734 317 760 316 l 189 317 q 125 345 151 317 q 98 408 98 370 q 124 473 98 446 q 189 499 151 499 l 726 499 q 728 499 727 499 q 771 511 754 500 q 796 534 788 521 q 804 563 804 548 q 796 590 804 576 q 771 614 788 604 q 728 625 754 624 l 183 625 q 119 652 145 625 q 92 715 92 677 q 119 777 92 751 q 183 803 145 803 l 720 803 q 877 762 815 802 q 965 669 939 722 q 991 563 991 616 q 964 458 991 510 q 933 414 952 434 q 971 362 956 389 q 997 252 997 308 q 970 146 997 199 q 882 51 943 92 q 726 7 821 9 l 718 7 q 701 5 709 5 l 186 5 q 121 32 148 5 q 95 96 95 58 z "},"4":{"ha":1085,"x_min":103,"x_max":1012,"o":"m 757 825 q 819 798 793 823 q 846 736 845 773 l 846 385 l 924 385 q 987 357 962 384 q 1012 292 1012 330 q 985 230 1010 255 q 924 203 960 205 l 846 203 l 846 72 q 757 -16 838 -9 q 691 9 719 -16 q 663 72 663 34 l 663 203 l 376 203 q 219 268 281 209 q 130 412 157 327 q 103 594 104 498 l 103 736 q 130 798 104 773 q 193 825 156 823 q 258 800 231 825 q 286 736 285 774 l 286 610 q 294 508 285 555 q 336 425 302 461 q 422 385 370 388 l 663 385 l 663 736 q 692 800 665 774 q 757 825 719 825 z "},"5":{"ha":1085,"x_min":85,"x_max":1005,"o":"m 95 96 q 122 160 95 134 q 186 187 148 187 l 742 187 q 785 199 768 189 q 810 224 802 210 q 818 252 818 237 q 810 281 818 267 q 785 305 802 294 q 742 317 768 316 l 357 317 q 200 361 262 320 q 112 456 138 403 q 85 566 85 510 l 85 659 q 127 766 87 728 q 243 803 167 803 l 907 803 q 972 777 945 803 q 998 712 998 750 q 971 648 998 674 q 907 621 945 621 l 316 621 q 281 613 290 623 q 273 586 273 604 l 273 566 q 281 539 273 556 q 306 511 289 522 q 349 499 323 500 l 734 499 q 890 456 829 498 q 979 361 952 415 q 1005 252 1005 308 q 978 146 1005 199 q 890 51 951 92 q 734 7 829 9 l 726 7 q 709 5 718 5 l 186 5 q 121 32 148 5 q 95 96 95 58 z "},"6":{"ha":1085,"x_min":75,"x_max":1016,"o":"m 346 803 l 878 803 q 941 774 916 802 q 966 709 966 747 q 878 621 959 628 l 392 621 q 307 582 340 618 q 257 498 273 545 q 241 403 241 452 q 257 309 241 354 q 307 227 273 263 q 392 187 340 190 l 753 187 q 795 197 779 186 q 821 222 812 208 q 829 251 829 236 q 821 277 829 260 q 795 305 812 294 q 753 317 779 316 l 406 317 q 341 344 368 317 q 315 408 315 370 q 340 473 315 446 q 406 499 368 499 l 745 499 q 901 455 840 496 q 989 360 963 414 q 1016 251 1016 307 q 989 143 1016 197 q 901 48 962 90 q 745 7 840 7 l 736 7 q 720 5 728 5 l 346 5 q 189 78 251 11 q 101 229 127 145 q 75 403 75 313 q 102 578 75 492 q 190 730 129 663 q 346 803 251 798 z "},"7":{"ha":1085,"x_min":90,"x_max":1009,"o":"m 90 712 q 115 777 90 750 q 178 803 140 803 l 918 803 q 983 777 956 803 q 1009 712 1009 750 q 998 667 1009 688 l 608 11 q 484 -18 559 -56 q 441 37 453 0 q 450 104 430 73 l 758 621 l 304 621 q 271 587 271 620 l 271 435 q 182 347 263 354 q 117 372 145 347 q 90 435 90 397 l 90 712 z "},"8":{"ha":1085,"x_min":69,"x_max":1013,"o":"m 745 499 q 787 511 770 500 q 812 534 804 521 q 821 563 821 548 q 812 590 821 576 q 787 614 804 604 q 745 625 770 624 l 338 625 q 295 614 312 624 q 270 590 278 604 q 262 563 262 576 q 270 534 262 548 q 295 511 278 521 q 338 499 312 500 q 340 499 339 499 l 742 499 q 745 499 743 499 m 750 187 q 793 199 776 189 q 818 224 810 210 q 826 252 826 237 q 818 281 826 267 q 793 305 810 294 q 750 317 776 316 l 332 317 q 290 305 307 316 q 264 281 273 294 q 256 252 256 267 q 264 224 256 237 q 290 199 273 210 q 332 187 307 189 l 750 187 m 987 362 q 1013 252 1013 308 q 986 146 1013 199 q 898 51 959 92 q 742 7 837 9 q 718 5 726 5 l 365 5 q 340 7 357 5 q 184 51 245 9 q 96 146 123 92 q 69 252 69 199 q 96 362 69 308 q 133 414 110 389 q 102 458 114 434 q 75 563 75 510 q 101 669 75 616 q 189 762 127 722 q 346 803 251 802 l 736 803 q 893 762 831 802 q 981 669 955 722 q 1008 563 1008 616 q 981 458 1008 510 q 949 414 968 434 q 987 362 972 389 z "},"9":{"ha":1085,"x_min":69,"x_max":1010,"o":"m 739 5 l 208 5 q 144 34 170 7 q 119 99 119 61 q 208 187 126 180 l 693 187 q 779 227 745 190 q 828 310 812 263 q 844 406 844 357 q 828 500 844 454 q 779 582 812 545 q 693 621 745 618 l 332 621 q 290 612 307 623 q 264 587 273 601 q 256 557 256 572 q 264 531 256 548 q 290 503 273 514 q 332 491 307 492 l 680 491 q 744 465 718 491 q 770 400 770 438 q 745 335 770 362 q 680 309 718 309 l 340 309 q 184 353 245 312 q 96 448 122 395 q 69 557 69 502 q 96 665 69 612 q 184 760 123 719 q 340 802 245 802 l 349 802 q 365 803 357 803 l 739 803 q 896 730 834 798 q 984 579 958 663 q 1010 406 1010 495 q 983 231 1010 316 q 895 78 956 145 q 739 5 834 11 z "}," ":{"ha":694,"x_min":0,"x_max":0,"o":""},"!":{"ha":433,"x_min":104,"x_max":327,"o":"m 213 252 q 151 279 176 254 q 123 340 125 304 l 123 810 q 213 898 132 891 q 279 873 251 898 q 307 810 307 848 l 307 340 q 278 277 305 302 q 213 252 251 252 m 327 76 q 294 11 327 38 q 216 -16 262 -16 q 137 11 170 -16 q 104 76 104 38 q 137 142 104 115 q 216 170 170 170 q 294 142 262 170 q 327 76 327 115 z "},"\"":{"ha":798,"x_min":123,"x_max":674,"o":"m 160 648 l 127 890 l 125 979 q 153 1053 123 1021 q 224 1084 182 1084 q 297 1053 267 1084 q 326 979 327 1021 l 323 890 l 289 648 q 268 608 286 624 q 225 591 250 591 q 182 608 201 591 q 160 648 164 624 m 507 648 l 475 890 l 472 979 q 500 1053 471 1021 q 572 1084 529 1084 q 644 1053 614 1084 q 673 979 674 1021 l 670 890 l 636 648 q 615 608 633 624 q 572 591 597 591 q 530 608 548 591 q 507 648 511 624 z "},"#":{"ha":818,"x_min":54,"x_max":770,"o":"m 198 0 q 157 18 174 0 q 144 53 144 34 q 145 60 144 57 l 172 289 q 170 298 172 294 q 161 301 167 301 l 121 301 q 73 321 92 301 q 54 368 54 340 q 73 414 54 395 q 121 433 92 433 l 175 433 q 190 446 189 433 l 210 610 q 208 620 212 616 q 199 624 205 624 l 153 624 q 105 644 125 624 q 85 690 85 663 q 105 737 85 718 q 153 757 125 757 l 216 757 q 231 770 229 757 l 256 966 q 278 1007 259 990 q 323 1024 297 1024 q 362 1006 346 1024 q 376 972 376 991 q 374 964 376 968 l 351 770 q 355 761 351 765 q 363 757 358 757 l 511 757 q 526 770 525 757 l 552 966 q 574 1007 555 990 q 618 1024 594 1024 q 659 1006 643 1024 q 671 964 674 989 l 648 769 q 652 761 648 765 q 661 757 655 757 l 704 757 q 751 737 732 757 q 770 690 770 718 q 751 644 770 663 q 704 624 732 624 l 644 624 q 629 610 631 624 l 609 446 q 612 437 608 441 q 620 433 616 433 l 673 433 q 720 414 700 433 q 739 368 739 395 q 720 321 739 340 q 673 301 700 301 l 605 301 q 590 288 591 301 l 563 61 q 541 18 560 35 q 495 0 521 0 q 454 18 471 0 q 441 53 441 34 q 441 61 441 57 l 468 288 q 465 297 468 293 q 456 301 461 301 l 309 301 q 294 288 296 301 l 266 60 q 243 17 263 34 q 198 0 224 0 m 312 446 q 314 437 311 441 q 323 433 317 433 l 471 433 q 487 446 484 433 l 507 610 q 504 620 507 616 q 495 624 500 624 l 347 624 q 332 610 334 624 l 312 446 z "},"$":{"ha":818,"x_min":96,"x_max":724,"o":"m 652 943 q 680 886 680 921 q 658 831 680 854 q 605 806 637 808 q 598 806 601 806 q 547 822 570 806 q 429 856 492 856 q 334 827 368 856 q 301 741 301 798 q 319 684 301 709 q 368 640 338 658 q 435 602 397 621 q 513 564 473 582 q 590 519 552 545 q 658 462 628 492 q 706 385 688 431 q 724 283 724 339 q 698 150 724 209 q 619 50 671 91 q 492 -8 567 8 q 479 -24 479 -11 l 479 -103 q 459 -152 479 -132 q 411 -172 439 -172 q 362 -152 382 -172 q 342 -103 342 -132 l 342 -30 q 328 -15 342 -18 q 133 56 224 0 q 98 109 103 73 q 96 123 96 117 q 111 172 96 151 q 163 206 130 201 q 180 208 172 208 q 225 195 203 208 q 387 146 307 146 q 528 270 528 146 q 509 331 528 302 q 462 380 491 359 q 395 421 433 400 q 317 461 357 442 q 239 507 277 480 q 172 562 201 533 q 124 635 142 591 q 106 731 106 678 q 165 913 106 840 q 328 1010 224 987 q 342 1027 342 1015 l 342 1107 q 362 1155 342 1135 q 411 1175 382 1175 q 459 1155 439 1175 q 479 1107 479 1135 l 479 1029 q 492 1015 479 1017 q 652 943 579 1000 z "},"%":{"ha":1336,"x_min":45,"x_max":1293,"o":"m 45 724 q 113 961 45 875 q 294 1047 182 1047 q 476 961 407 1047 q 545 724 545 875 q 476 484 545 571 q 294 396 407 396 q 113 484 182 396 q 45 724 45 571 m 401 724 q 372 882 401 831 q 295 932 343 932 q 218 882 247 932 q 189 724 189 831 q 218 564 189 616 q 294 511 247 511 q 372 564 342 511 q 401 724 401 616 m 389 -19 q 358 -1 369 -19 q 353 16 353 7 q 357 34 353 24 l 860 994 q 896 1033 872 1019 q 948 1047 920 1047 q 979 1029 968 1047 q 981 994 990 1012 l 476 34 q 440 -5 464 9 q 389 -19 416 -19 m 792 308 q 861 547 792 461 q 1042 633 930 633 q 1223 547 1154 633 q 1293 308 1293 460 q 1223 69 1293 157 q 1042 -19 1153 -19 q 861 69 930 -19 q 792 308 792 157 m 964 149 q 1042 98 994 98 q 1119 149 1089 98 q 1149 309 1149 201 q 1120 467 1149 416 q 1042 518 1090 518 q 964 467 993 518 q 935 309 935 416 q 964 149 935 201 z "},"&":{"ha":1025,"x_min":42,"x_max":978,"o":"m 236 285 q 282 178 236 220 q 403 137 328 137 q 541 182 469 137 q 546 189 545 184 q 543 198 547 194 q 330 418 422 300 q 311 420 320 429 q 236 285 236 353 m 339 787 q 370 661 339 731 q 388 655 376 648 q 486 734 452 696 q 519 822 519 773 q 500 887 519 863 q 442 911 480 911 q 368 877 396 911 q 339 787 339 842 m 916 172 q 966 127 949 159 q 978 88 978 109 q 974 64 978 76 q 930 11 963 28 q 892 0 911 0 q 865 5 879 0 q 705 81 783 34 q 682 80 693 88 q 378 -19 548 -19 q 132 64 221 -19 q 42 273 42 148 q 90 434 42 368 q 224 556 138 500 q 228 576 235 564 q 170 787 170 690 q 243 972 170 897 q 439 1047 317 1047 q 613 986 548 1047 q 678 823 678 925 q 661 735 678 777 q 611 656 644 693 q 547 593 578 620 q 468 534 515 567 q 465 515 457 526 q 669 321 551 412 q 688 323 680 312 q 776 486 741 397 q 825 549 792 525 q 898 574 857 574 q 952 545 933 574 q 966 510 966 529 q 960 486 966 498 q 825 232 907 347 q 829 214 817 221 q 916 172 875 189 z "},"'":{"ha":450,"x_min":123,"x_max":327,"o":"m 160 648 l 127 890 l 125 979 q 153 1053 123 1021 q 224 1084 182 1084 q 297 1053 267 1084 q 326 979 327 1021 l 323 890 l 289 648 q 268 608 286 624 q 225 591 250 591 q 182 608 201 591 q 160 648 164 624 z "},"(":{"ha":525,"x_min":118,"x_max":427,"o":"m 420 -168 q 427 -197 427 -182 q 423 -218 427 -208 q 389 -256 414 -245 q 358 -263 373 -263 q 334 -259 346 -263 q 290 -224 305 -250 q 118 436 118 88 q 290 1095 118 784 q 334 1130 304 1120 q 358 1134 346 1134 q 389 1127 373 1134 q 423 1090 414 1116 q 427 1069 427 1080 q 420 1039 427 1054 q 283 437 283 765 q 420 -168 283 106 z "},")":{"ha":525,"x_min":98,"x_max":407,"o":"m 233 -224 q 191 -259 218 -250 q 167 -263 179 -263 q 136 -256 151 -263 q 102 -220 110 -245 q 98 -198 98 -209 q 104 -168 98 -183 q 241 437 241 106 q 104 1039 241 765 q 98 1069 98 1054 q 102 1090 98 1080 q 136 1127 110 1116 q 167 1134 151 1134 q 191 1130 179 1134 q 233 1095 220 1120 q 407 436 407 785 q 233 -224 407 87 z "},"*":{"ha":703,"x_min":81,"x_max":621,"o":"m 264 621 q 227 601 250 604 q 220 601 224 601 q 186 613 201 601 q 161 648 167 627 q 160 662 160 655 q 168 692 160 677 l 227 791 q 221 808 233 803 l 118 854 q 87 884 96 864 q 81 909 81 897 q 84 928 81 918 q 111 960 92 949 q 141 968 126 968 q 155 967 148 968 l 266 941 q 275 944 271 941 q 281 952 279 947 l 292 1067 q 311 1106 294 1090 q 352 1122 328 1122 q 393 1106 376 1122 q 412 1067 410 1090 l 422 952 q 427 944 423 947 q 437 941 431 941 l 549 967 q 563 968 556 968 q 591 960 578 968 q 618 928 610 949 q 621 909 621 918 q 616 884 621 897 q 586 854 606 864 l 480 808 q 475 791 468 803 l 533 692 q 543 662 543 677 q 541 648 543 655 q 517 613 536 627 q 483 601 502 601 q 476 601 480 601 q 438 621 453 604 l 361 709 q 342 709 351 719 l 264 621 z "},"+":{"ha":818,"x_min":53,"x_max":765,"o":"m 334 227 l 334 434 q 320 448 334 448 l 125 448 q 74 469 95 448 q 53 519 53 490 q 74 570 53 549 q 125 591 95 591 l 320 591 q 334 605 334 591 l 334 812 q 355 865 334 844 q 409 887 377 887 q 463 865 441 887 q 484 812 484 844 l 484 605 q 498 591 484 591 l 693 591 q 744 570 723 591 q 765 519 765 549 q 744 469 765 490 q 693 448 723 448 l 498 448 q 484 434 484 448 l 484 227 q 463 174 484 195 q 409 152 441 152 q 355 174 377 152 q 334 227 334 195 z "},",":{"ha":450,"x_min":91,"x_max":380,"o":"m 172 -277 q 149 -282 160 -282 q 126 -277 138 -282 q 95 -243 104 -267 q 91 -222 91 -232 q 96 -198 91 -210 q 127 -163 106 -175 q 240 -11 232 -104 q 236 -1 240 -5 q 227 3 232 3 q 137 35 174 3 q 100 123 100 68 q 138 211 100 178 q 232 244 176 244 q 341 191 302 244 q 380 43 380 138 q 326 -147 380 -65 q 172 -277 271 -229 z "},"-":{"ha":513,"x_min":68,"x_max":448,"o":"m 141 326 q 90 347 111 326 q 68 398 68 368 q 90 450 68 429 q 141 471 111 471 l 374 471 q 426 450 404 471 q 448 398 448 429 q 426 347 448 368 q 374 326 404 326 l 141 326 z "},".":{"ha":450,"x_min":99,"x_max":353,"o":"m 225 -19 q 135 19 171 -19 q 99 114 99 57 q 135 209 99 171 q 225 247 171 247 q 316 209 279 247 q 353 114 353 171 q 316 19 353 57 q 225 -19 279 -19 z "},"/":{"ha":538,"x_min":34,"x_max":486,"o":"m 88 -255 q 46 -235 61 -255 q 34 -202 34 -220 q 37 -189 34 -195 l 347 1050 q 378 1098 354 1080 q 431 1116 401 1116 q 473 1096 458 1116 q 486 1063 486 1081 q 483 1050 486 1057 l 172 -189 q 142 -237 165 -218 q 88 -255 118 -255 z "},":":{"ha":450,"x_min":99,"x_max":353,"o":"m 225 509 q 135 547 171 509 q 99 640 99 585 q 135 735 99 697 q 225 773 171 773 q 317 735 281 773 q 353 640 353 697 q 316 546 353 583 q 225 509 279 509 m 225 -19 q 135 19 171 -19 q 99 114 99 57 q 135 209 99 171 q 225 247 171 247 q 316 209 279 247 q 353 114 353 171 q 316 19 353 57 q 225 -19 279 -19 z "},";":{"ha":450,"x_min":91,"x_max":380,"o":"m 225 506 q 135 543 171 506 q 99 637 99 581 q 135 732 99 694 q 225 770 171 770 q 317 732 281 770 q 353 637 353 694 q 316 543 353 581 q 225 506 279 506 m 172 -277 q 149 -282 160 -282 q 126 -277 138 -282 q 95 -243 104 -267 q 91 -222 91 -232 q 96 -198 91 -210 q 127 -163 106 -175 q 240 -11 232 -104 q 236 -1 240 -5 q 227 3 232 3 q 137 35 174 3 q 100 123 100 68 q 138 211 100 178 q 232 244 176 244 q 341 191 302 244 q 380 43 380 138 q 326 -147 380 -65 q 172 -277 271 -229 z "},"<":{"ha":818,"x_min":53,"x_max":765,"o":"m 765 259 q 741 212 765 229 q 708 201 724 201 q 686 206 697 201 l 121 425 q 71 463 90 435 q 53 522 53 490 q 71 582 53 555 q 121 620 90 609 l 686 840 q 708 844 699 844 q 741 833 726 844 q 765 785 765 815 q 743 717 765 747 q 686 674 722 686 l 473 601 l 264 528 q 262 523 262 526 q 264 518 262 519 l 473 445 l 685 372 q 743 328 722 359 q 765 259 765 297 z "},"=":{"ha":818,"x_min":53,"x_max":765,"o":"m 126 627 q 74 648 95 627 q 53 699 53 669 q 74 751 53 730 q 126 772 95 772 l 692 772 q 744 751 723 772 q 765 699 765 730 q 744 648 765 669 q 692 627 723 627 l 126 627 m 126 267 q 74 288 95 267 q 53 340 53 309 q 74 391 53 370 q 126 412 95 412 l 692 412 q 744 391 723 412 q 765 340 765 370 q 744 288 765 309 q 692 267 723 267 l 126 267 z "},">":{"ha":818,"x_min":53,"x_max":765,"o":"m 132 206 q 110 201 121 201 q 79 212 94 201 q 53 259 53 229 q 75 328 53 297 q 133 372 98 359 l 346 445 l 555 518 q 559 523 559 519 q 555 528 559 526 l 346 601 l 133 674 q 75 717 96 686 q 53 785 53 747 q 77 833 53 815 q 110 844 94 844 q 132 840 121 844 l 699 620 q 747 582 728 609 q 765 522 765 555 q 747 463 765 490 q 699 425 728 435 l 132 206 z "},"?":{"ha":1085,"x_min":84,"x_max":994,"o":"m 84 712 q 111 777 84 750 q 175 803 137 803 l 699 803 q 715 802 707 803 l 723 802 q 879 759 818 799 q 967 667 940 719 q 994 563 994 616 q 968 458 994 510 q 880 367 941 407 q 723 331 818 327 l 579 331 q 549 321 553 330 q 544 302 544 312 l 544 297 q 453 212 536 218 q 385 237 414 212 q 357 297 357 262 l 357 368 q 397 468 359 426 q 530 513 435 510 l 731 513 q 774 521 757 511 q 799 542 791 530 q 807 566 807 553 q 799 589 807 578 q 774 610 791 601 q 731 621 757 620 l 175 621 q 111 648 137 621 q 84 712 84 674 m 563 79 q 530 14 563 41 q 452 -14 498 -14 q 373 14 406 -14 q 340 79 340 41 q 373 145 340 118 q 452 172 406 172 q 530 145 498 172 q 563 79 563 118 z "},"@":{"ha":1389,"x_min":77,"x_max":1321,"o":"m 663 -266 q 439 -229 544 -266 q 254 -121 335 -193 q 125 63 172 -50 q 77 320 77 176 q 134 615 77 479 q 285 844 190 751 q 507 989 380 937 q 773 1042 633 1042 q 1172 890 1023 1042 q 1321 492 1321 738 q 1289 305 1321 389 q 1206 170 1257 221 q 1095 90 1156 118 q 974 62 1035 62 q 858 94 906 62 q 798 182 810 125 q 796 183 798 183 q 793 182 795 183 q 707 106 760 136 q 604 77 654 77 q 458 140 514 77 q 401 311 401 203 q 441 490 401 403 q 555 634 481 578 q 715 690 628 690 q 836 614 798 690 q 837 613 836 613 q 840 614 838 613 l 841 620 q 873 662 850 646 q 922 678 895 678 l 924 678 q 964 659 949 678 q 977 628 977 644 q 975 616 977 623 l 920 339 q 910 275 910 302 q 994 191 910 191 q 1130 273 1070 191 q 1190 486 1190 355 q 1164 652 1190 575 q 1087 788 1138 728 q 951 882 1036 848 q 757 916 867 916 q 558 873 655 916 q 385 755 461 830 q 263 568 309 681 q 217 326 217 456 q 254 123 217 213 q 354 -24 290 33 q 501 -110 418 -80 q 681 -140 585 -140 q 868 -102 774 -140 q 892 -98 880 -98 q 914 -102 903 -98 q 947 -133 937 -110 q 952 -159 952 -145 q 948 -182 952 -170 q 914 -217 939 -206 q 663 -266 800 -266 m 647 206 q 754 274 697 206 q 765 297 762 283 l 800 492 q 802 499 802 496 q 795 517 802 510 q 720 557 766 557 q 633 519 673 557 q 575 427 594 480 q 556 321 556 374 q 581 235 556 264 q 647 206 605 206 z "},"A":{"ha":1017,"x_min":43,"x_max":970,"o":"m 391 213 q 417 277 391 251 q 481 304 444 304 l 689 304 l 654 404 q 611 509 632 460 q 563 600 590 559 q 507 643 538 640 q 449 600 475 640 q 402 509 423 559 q 359 404 381 460 l 231 52 q 196 5 217 23 q 133 -14 175 -14 q 68 14 94 -14 q 46 79 43 41 q 54 111 47 96 l 203 496 q 328 742 266 648 q 507 836 389 834 q 686 743 624 834 q 810 496 747 651 l 959 111 q 967 79 966 96 q 945 14 970 41 q 880 -14 920 -14 q 814 5 836 -14 q 780 52 793 23 l 754 122 l 481 122 q 418 149 444 122 q 391 213 391 175 z "},"B":{"ha":1070,"x_min":87,"x_max":1016,"o":"m 990 361 q 1016 251 1016 307 q 989 143 1016 197 q 901 48 962 90 q 745 7 840 7 l 736 7 q 720 5 728 5 l 175 5 q 113 32 138 7 q 87 94 88 57 l 87 715 q 113 777 88 751 q 175 803 138 802 l 642 803 q 658 802 650 803 l 666 802 q 822 758 761 799 q 910 665 883 718 q 937 560 937 613 q 911 454 937 506 q 909 450 910 452 q 990 361 964 411 m 753 187 q 795 197 779 186 q 821 222 812 208 q 829 251 829 236 q 821 277 829 260 q 795 305 812 294 q 753 317 779 316 l 666 317 l 270 317 l 270 224 q 308 187 270 187 l 319 187 l 753 187 m 718 511 q 742 534 734 521 q 750 560 750 547 q 742 587 750 574 q 717 610 734 600 q 674 621 700 620 l 308 621 q 270 585 270 621 l 270 499 l 674 499 q 718 511 700 500 z "},"C":{"ha":975,"x_min":77,"x_max":936,"o":"m 395 621 q 309 582 343 618 q 259 498 274 545 q 244 403 244 452 q 258 307 244 354 q 308 223 273 259 q 395 184 343 187 l 842 184 q 936 91 928 176 q 907 28 935 53 q 842 3 880 3 l 410 3 l 347 3 q 191 75 252 8 q 104 228 130 142 q 77 403 77 313 q 92 534 77 469 q 139 659 107 600 q 224 760 171 718 q 347 803 278 802 l 373 803 l 842 803 q 936 709 928 795 q 908 646 936 671 q 842 621 880 621 l 395 621 z "},"D":{"ha":1008,"x_min":87,"x_max":945,"o":"m 674 803 q 830 730 769 798 q 918 578 891 663 q 945 403 945 492 q 919 228 945 313 q 831 75 892 142 q 674 3 769 8 l 175 3 q 113 29 138 4 q 87 91 88 54 l 87 427 q 115 490 88 465 q 180 515 142 515 q 243 489 217 514 q 270 427 269 464 l 270 221 q 308 184 270 184 l 628 184 q 713 224 680 187 q 763 307 747 260 q 779 403 779 354 q 763 498 779 452 q 713 582 747 545 q 628 621 680 618 l 175 621 q 87 709 94 628 q 112 774 87 747 q 175 803 137 802 l 674 803 z "},"E":{"ha":1000,"x_min":66,"x_max":949,"o":"m 338 803 l 400 803 l 861 803 q 924 774 899 802 q 949 709 949 747 q 861 621 943 628 l 384 621 q 298 582 332 618 q 249 498 264 545 q 233 403 233 452 q 249 307 233 354 q 298 224 264 260 q 384 184 332 187 l 861 184 q 924 156 899 183 q 949 91 949 129 q 923 29 948 54 q 861 3 898 4 l 363 3 l 338 3 q 181 75 243 8 q 93 228 119 142 q 66 403 66 313 q 94 578 66 492 q 182 730 121 663 q 338 803 243 798 m 947 408 q 920 345 947 370 q 856 317 894 317 l 446 317 q 382 344 408 317 q 355 408 355 370 q 381 473 355 446 q 446 499 408 499 l 856 499 q 920 473 894 499 q 947 408 947 446 z "},"F":{"ha":1015,"x_min":90,"x_max":977,"o":"m 179 -14 q 117 13 142 -12 q 90 75 91 38 l 90 412 q 117 594 91 509 q 205 739 144 680 q 362 803 267 798 l 886 803 q 947 777 922 802 q 974 715 972 751 q 949 650 974 677 q 886 621 924 623 l 408 621 q 323 582 357 618 q 280 498 289 545 q 273 396 271 452 l 273 75 q 244 12 271 37 q 179 -14 217 -14 m 336 343 q 363 407 336 381 q 427 434 389 434 l 886 434 q 950 408 924 434 q 977 343 977 381 q 951 278 977 305 q 886 252 924 252 l 427 252 q 363 279 389 252 q 336 343 336 305 z "},"G":{"ha":1092,"x_min":72,"x_max":1009,"o":"m 343 803 l 916 803 q 979 774 954 802 q 1004 709 1004 747 q 916 621 997 628 l 389 621 q 304 582 338 618 q 254 498 270 545 q 239 403 239 452 q 254 307 239 354 q 304 224 270 260 q 389 184 338 187 l 802 184 q 827 212 826 186 l 827 290 q 802 317 826 317 l 454 317 q 390 344 416 317 q 363 408 363 370 q 389 473 363 446 q 454 499 416 499 l 918 499 q 983 473 956 499 q 1009 411 1008 448 l 1009 408 l 1009 91 q 983 30 1008 54 q 921 3 958 4 l 343 3 q 186 75 248 8 q 98 228 125 142 q 72 403 72 313 q 99 578 72 492 q 187 730 126 663 q 343 803 248 798 z "},"H":{"ha":975,"x_min":85,"x_max":892,"o":"m 179 825 q 241 798 216 823 q 269 736 267 773 l 269 510 l 709 510 l 709 736 q 738 800 711 774 q 803 825 765 825 q 865 798 840 823 q 892 736 891 773 l 892 72 q 803 -16 884 -9 q 737 9 765 -16 q 709 72 709 34 l 709 328 l 269 328 l 269 72 q 179 -16 260 -9 q 113 9 141 -16 q 85 72 85 34 l 85 736 q 114 800 87 774 q 179 825 141 825 z "},"I":{"ha":996,"x_min":57,"x_max":941,"o":"m 57 94 q 83 158 57 132 q 148 184 110 184 l 408 184 l 408 621 l 148 621 q 84 648 110 621 q 57 712 57 674 q 83 777 57 750 q 148 803 110 803 l 850 803 q 916 777 888 803 q 941 712 941 750 q 915 648 941 674 q 850 621 888 621 l 591 621 l 591 184 l 850 184 q 916 159 888 184 q 941 94 941 132 q 915 29 941 56 q 850 3 888 3 l 148 3 q 84 30 110 3 q 57 94 57 56 z "},"J":{"ha":1021,"x_min":68,"x_max":932,"o":"m 499 -28 q 360 -12 429 -28 q 229 36 292 4 q 119 121 167 68 q 68 247 72 174 l 68 304 l 68 324 q 96 387 68 362 q 161 412 123 412 q 250 324 243 406 l 250 289 q 281 219 252 247 q 347 175 311 191 q 421 151 382 159 q 499 142 460 142 q 577 151 538 142 q 652 175 616 159 q 717 219 688 191 q 749 289 746 247 l 749 736 q 777 800 749 774 q 842 825 804 825 q 932 736 924 818 l 932 304 l 932 247 q 880 121 928 174 q 769 36 831 68 q 638 -12 707 4 q 499 -28 570 -28 z "},"K":{"ha":1077,"x_min":85,"x_max":1025,"o":"m 179 825 q 241 798 216 823 q 269 736 267 773 l 269 72 q 179 -16 260 -9 q 113 9 141 -16 q 85 72 85 34 l 85 736 q 114 800 87 774 q 179 825 141 825 m 411 586 q 656 709 502 647 l 879 804 q 911 812 894 811 q 977 790 949 815 q 1004 726 1004 765 q 985 660 1004 681 q 939 625 967 639 l 749 553 q 644 511 693 532 q 553 463 594 490 q 510 407 513 438 q 553 351 513 377 q 644 303 594 324 q 749 260 693 282 l 960 183 q 1007 149 989 170 q 1025 83 1025 127 q 998 18 1025 43 q 933 -4 971 -7 q 901 4 916 -3 l 656 104 q 410 229 502 167 q 317 407 319 290 q 411 586 319 524 z "},"L":{"ha":971,"x_min":87,"x_max":928,"o":"m 176 825 q 241 800 214 825 q 270 736 269 774 l 270 410 q 277 307 269 354 q 320 224 286 260 q 406 184 354 187 l 840 184 q 903 156 878 183 q 928 91 928 129 q 901 29 926 54 q 840 3 876 4 l 359 3 q 203 67 264 8 q 114 212 141 126 q 87 393 88 297 l 87 736 q 114 798 88 773 q 176 825 140 823 z "},"M":{"ha":1133,"x_min":87,"x_max":1047,"o":"m 373 840 q 466 823 420 840 q 553 776 511 807 q 568 762 560 769 q 583 776 575 769 q 671 823 625 807 q 762 840 716 840 q 855 823 810 840 q 942 775 901 807 q 1015 690 983 743 q 1047 564 1047 637 l 1047 75 q 958 -14 1039 -7 q 892 12 920 -14 q 864 75 864 37 l 864 553 q 852 608 864 586 q 825 644 840 631 q 793 663 810 656 q 761 669 777 669 q 729 663 745 669 q 699 644 713 656 q 671 608 684 631 q 658 553 659 586 l 658 75 q 568 -14 650 -7 q 503 12 530 -14 q 475 75 475 37 l 475 553 q 463 608 475 586 q 435 644 450 631 q 404 663 420 656 q 372 669 388 669 q 340 663 355 669 q 309 644 324 656 q 282 608 294 631 q 269 553 270 586 l 269 75 q 180 -14 262 -7 q 115 12 142 -14 q 87 75 87 37 l 87 564 q 121 690 90 637 q 194 775 152 743 q 281 823 236 807 q 373 840 327 840 z "},"N":{"ha":1036,"x_min":87,"x_max":951,"o":"m 518 840 q 657 823 589 840 q 788 775 726 807 q 899 690 850 743 q 951 564 947 637 l 951 507 l 951 75 q 861 -14 943 -7 q 795 12 823 -14 q 768 75 768 37 l 768 522 q 736 592 765 564 q 671 636 707 620 q 596 661 635 652 q 518 669 557 669 q 440 661 479 669 q 366 636 401 652 q 300 592 330 620 q 269 522 271 564 l 269 75 q 180 -14 262 -7 q 115 12 142 -14 q 87 75 87 37 l 87 507 l 87 564 q 138 690 91 637 q 248 775 186 743 q 379 823 311 807 q 518 840 448 840 z "},"O":{"ha":1153,"x_min":65,"x_max":1090,"o":"m 814 803 q 937 760 883 802 q 1025 659 991 718 q 1074 536 1058 601 q 1090 403 1090 471 q 1063 227 1090 313 q 972 75 1035 141 q 814 3 909 8 l 340 3 q 182 73 245 7 q 92 227 118 140 q 65 403 65 313 q 92 578 65 492 q 182 732 119 665 q 340 803 245 799 l 366 803 l 788 803 l 814 803 m 768 184 q 854 223 819 187 q 903 307 888 259 q 918 403 918 354 q 903 498 918 452 q 853 582 887 545 q 768 621 819 618 l 382 621 q 297 582 331 618 q 248 498 263 545 q 232 403 232 452 q 247 307 232 354 q 296 223 262 259 q 382 184 331 187 l 768 184 z "},"P":{"ha":1103,"x_min":85,"x_max":1044,"o":"m 269 75 q 179 -14 260 -7 q 113 12 141 -14 q 85 75 85 37 l 85 715 q 114 778 87 753 q 179 803 141 803 l 749 803 q 929 751 868 799 q 1017 642 990 703 q 1044 518 1044 581 q 1018 392 1044 453 q 930 283 991 331 q 773 236 868 235 l 431 236 q 368 263 393 236 q 340 327 340 289 q 367 391 340 365 q 431 418 393 418 l 781 418 q 824 435 807 418 q 849 474 841 452 q 857 519 857 496 q 849 564 857 541 q 824 603 841 586 q 781 621 807 620 l 304 621 q 269 586 269 620 l 269 75 z "},"Q":{"ha":1187,"x_min":68,"x_max":1120,"o":"m 844 803 q 967 760 913 802 q 1055 659 1021 718 q 1104 536 1088 601 q 1120 403 1120 471 q 1093 227 1120 313 q 1002 75 1065 141 q 844 3 939 8 l 686 3 l 686 -88 q 597 -176 678 -170 q 531 -151 559 -176 q 503 -88 503 -126 l 503 3 l 343 3 q 184 73 248 7 q 94 227 121 140 q 68 403 68 313 q 95 578 68 492 q 185 732 122 665 q 343 803 248 799 l 844 803 m 798 184 q 884 223 849 187 q 933 307 918 259 q 948 403 948 354 q 932 498 948 452 q 883 582 917 545 q 798 621 849 618 l 385 621 q 300 582 334 618 q 250 498 266 545 q 235 403 235 452 q 250 307 235 354 q 299 223 264 259 q 385 184 334 187 l 503 184 l 503 251 q 532 314 505 289 q 597 339 559 339 q 659 313 633 338 q 686 251 685 288 l 686 184 l 798 184 z "},"R":{"ha":1104,"x_min":85,"x_max":1043,"o":"m 269 72 q 179 -16 260 -9 q 113 9 141 -16 q 85 72 85 34 l 85 715 q 114 778 87 753 q 179 803 141 803 l 245 803 l 412 803 l 747 803 q 764 802 755 803 l 772 802 q 928 758 867 799 q 1016 665 989 718 q 1043 560 1043 613 q 1017 454 1043 506 q 928 361 990 401 q 772 317 867 320 l 533 317 q 578 217 544 250 q 661 184 610 184 l 954 184 q 1017 156 991 183 q 1042 91 1042 129 q 1015 29 1040 54 q 954 3 990 4 l 636 3 q 454 81 536 1 q 355 271 373 161 q 331 408 331 393 q 357 473 331 446 q 422 499 384 499 l 780 499 q 823 511 806 500 q 848 534 840 521 q 856 560 856 547 q 848 587 856 574 q 823 610 840 600 q 780 621 806 620 l 412 621 l 304 621 q 269 586 269 620 l 269 72 z "},"S":{"ha":1053,"x_min":66,"x_max":986,"o":"m 963 712 q 936 648 963 674 q 872 621 910 621 l 330 621 q 287 610 304 620 q 262 587 270 600 q 254 560 254 574 q 262 534 254 547 q 287 511 270 521 q 330 499 304 500 l 715 499 q 871 455 810 496 q 960 360 933 414 q 986 251 986 307 q 959 143 986 197 q 871 48 932 90 q 715 7 810 7 l 707 7 q 690 5 699 5 l 178 5 q 113 32 140 5 q 87 96 87 58 q 114 160 87 134 q 178 187 140 187 l 723 187 q 766 197 749 186 q 791 222 783 208 q 799 251 799 236 q 791 277 799 260 q 766 305 783 294 q 723 317 749 316 l 338 317 q 181 361 243 320 q 93 454 119 401 q 66 560 66 506 q 94 665 66 613 q 182 758 121 718 q 338 802 243 799 l 346 802 q 362 803 354 803 l 872 803 q 937 777 910 803 q 963 712 963 750 z "},"T":{"ha":1088,"x_min":60,"x_max":1031,"o":"m 60 712 q 86 777 60 750 q 151 803 113 803 l 940 803 q 1005 777 978 803 q 1031 712 1031 750 q 1004 648 1031 674 q 940 621 978 621 l 637 621 l 637 72 q 548 -16 629 -9 q 482 9 510 -16 q 454 72 454 34 l 454 621 l 151 621 q 87 648 113 621 q 60 712 60 674 z "},"U":{"ha":1046,"x_min":87,"x_max":951,"o":"m 518 -28 q 379 -12 448 -28 q 248 36 311 4 q 138 121 186 68 q 87 247 91 174 l 87 304 l 87 736 q 115 800 87 774 q 180 825 142 825 q 269 736 262 818 l 269 289 q 300 219 271 247 q 366 175 330 191 q 440 151 401 159 q 518 142 479 142 q 596 151 557 142 q 671 175 635 159 q 736 219 707 191 q 768 289 765 247 l 768 736 q 795 800 768 774 q 861 825 823 825 q 951 736 943 818 l 951 304 l 951 247 q 899 121 947 174 q 788 36 850 68 q 657 -12 726 4 q 518 -28 589 -28 z "},"V":{"ha":1038,"x_min":60,"x_max":986,"o":"m 345 75 q 220 320 282 168 l 71 705 q 62 738 64 720 q 85 803 60 776 q 149 830 110 830 q 212 812 191 830 q 247 765 233 793 l 376 412 q 418 307 397 357 q 465 217 439 258 q 524 174 491 176 q 579 217 555 176 q 627 307 606 258 q 670 412 648 357 l 796 765 q 831 812 810 793 q 897 830 852 830 q 961 803 936 830 q 983 738 986 776 q 975 705 982 720 l 826 320 q 702 74 764 165 q 524 -19 640 -18 q 345 75 406 -18 z "},"W":{"ha":1139,"x_min":87,"x_max":1047,"o":"m 373 -28 q 281 -12 327 -28 q 194 36 236 4 q 121 121 152 68 q 87 247 90 174 l 87 736 q 115 800 87 774 q 180 825 142 825 q 269 736 262 818 l 269 258 q 282 203 270 225 q 309 168 294 180 q 340 149 324 155 q 372 142 355 142 q 404 149 388 142 q 435 168 420 155 q 463 203 450 180 q 475 258 475 225 l 475 736 q 503 800 475 774 q 568 825 530 825 q 658 736 650 818 l 658 258 q 671 203 659 225 q 699 168 684 180 q 729 149 713 155 q 761 142 745 142 q 793 149 777 142 q 825 168 810 155 q 852 203 840 180 q 864 258 864 225 l 864 736 q 892 800 864 774 q 958 825 920 825 q 1047 736 1039 818 l 1047 247 q 1015 121 1047 174 q 942 36 983 68 q 855 -12 901 4 q 762 -28 810 -28 q 671 -12 716 -28 q 583 37 625 4 q 568 49 575 42 q 553 37 560 42 q 466 -12 511 4 q 373 -28 420 -28 z "},"X":{"ha":1142,"x_min":57,"x_max":1088,"o":"m 461 422 q 369 553 425 491 q 262 621 313 616 l 148 621 q 84 648 110 621 q 57 712 57 674 q 83 777 57 750 q 148 803 110 803 l 262 803 l 262 802 l 275 802 q 477 692 373 796 q 572 572 529 639 q 669 692 616 639 q 869 802 772 796 l 883 802 l 883 803 l 997 803 q 1061 777 1035 803 q 1088 712 1088 750 q 1061 648 1088 674 q 997 621 1035 621 l 883 621 q 776 553 831 616 q 684 422 720 491 q 667 393 675 407 q 673 385 670 389 q 765 252 709 315 q 872 186 821 190 l 986 186 q 1050 159 1024 186 q 1077 95 1077 133 q 1050 31 1077 57 q 986 4 1024 4 l 859 4 q 658 113 761 9 q 572 216 612 160 q 487 113 533 160 q 286 4 384 9 l 159 4 q 94 31 121 4 q 68 95 68 57 q 95 159 68 133 q 159 186 121 186 l 273 186 q 380 252 324 190 q 472 385 435 315 q 477 393 475 389 q 461 422 469 407 z "},"Y":{"ha":1062,"x_min":87,"x_max":970,"o":"m 176 825 q 241 800 214 825 q 270 736 269 774 l 270 711 q 277 608 269 655 q 320 525 286 562 q 406 486 354 488 l 787 486 l 787 734 q 814 797 787 772 q 880 822 842 822 q 970 734 962 815 l 970 419 q 940 214 970 311 q 851 70 913 129 q 694 5 789 11 l 206 5 q 144 32 170 7 q 118 94 119 57 q 143 159 118 132 q 206 187 168 186 l 648 187 q 734 227 700 190 q 776 304 765 260 l 359 304 q 203 368 264 309 q 114 513 141 427 q 87 694 88 598 l 87 736 q 114 798 88 773 q 176 825 140 823 z "},"Z":{"ha":1084,"x_min":57,"x_max":1028,"o":"m 57 712 q 83 777 57 750 q 148 803 110 803 l 937 803 q 1002 777 975 803 q 1028 712 1028 750 q 1002 648 1028 674 q 986 635 994 640 l 411 187 l 937 187 q 1002 161 975 187 q 1028 96 1028 134 q 1002 32 1028 58 q 937 5 975 5 l 148 5 q 84 33 110 5 q 57 96 57 58 q 80 157 57 132 l 79 157 l 84 161 q 102 175 92 170 l 684 621 l 148 621 q 84 648 110 621 q 57 712 57 674 z "},"[":{"ha":525,"x_min":140,"x_max":458,"o":"m 258 -241 q 174 -207 209 -241 q 140 -123 140 -172 l 140 996 q 174 1079 140 1044 q 258 1114 209 1114 l 404 1114 q 443 1098 427 1114 q 458 1060 458 1082 q 443 1021 458 1038 q 404 1005 427 1005 l 307 1005 q 293 991 293 1005 l 293 -118 q 307 -132 293 -132 l 403 -132 q 442 -147 426 -132 q 458 -186 458 -163 q 442 -225 458 -209 q 403 -241 426 -241 l 258 -241 z "},"\\":{"ha":538,"x_min":53,"x_max":505,"o":"m 452 -255 q 398 -237 422 -255 q 366 -189 374 -218 l 56 1051 q 53 1065 53 1058 q 65 1096 53 1081 q 106 1116 80 1116 q 159 1098 136 1116 q 190 1051 183 1080 l 503 -189 q 505 -202 505 -195 q 494 -235 505 -220 q 452 -255 477 -255 z "},"]":{"ha":525,"x_min":66,"x_max":385,"o":"m 122 -241 q 83 -225 99 -241 q 66 -186 66 -209 q 83 -147 66 -163 q 122 -132 99 -132 l 218 -132 q 232 -118 232 -132 l 232 991 q 218 1005 232 1005 l 121 1005 q 83 1021 99 1005 q 66 1060 66 1038 q 83 1098 66 1082 q 121 1114 99 1114 l 267 1114 q 351 1079 316 1114 q 385 996 385 1044 l 385 -123 q 351 -207 385 -172 q 267 -241 316 -241 l 122 -241 z "},"^":{"ha":818,"x_min":110,"x_max":709,"o":"m 168 435 q 121 460 137 435 q 110 492 110 475 q 114 514 110 502 l 294 978 q 340 1034 308 1013 q 410 1055 372 1055 q 479 1034 448 1055 q 524 978 510 1013 l 705 514 q 709 492 709 502 q 699 460 709 475 q 651 435 682 435 q 582 457 613 435 q 537 514 551 479 l 484 658 l 414 868 q 409 871 412 871 q 404 868 406 871 l 334 658 l 282 514 q 237 457 269 479 q 168 435 206 435 z "},"_":{"ha":787,"x_min":19,"x_max":769,"o":"m 79 -217 q 37 -199 54 -217 q 19 -157 19 -182 q 37 -114 19 -132 q 79 -96 54 -96 l 709 -96 q 752 -114 735 -96 q 769 -157 769 -132 q 752 -199 769 -182 q 709 -217 735 -217 l 79 -217 z "},"`":{"ha":869,"x_min":195,"x_max":503,"o":"m 480 952 q 429 930 458 932 q 426 930 427 930 q 376 949 397 930 l 227 1082 q 195 1150 195 1109 q 222 1215 195 1188 q 286 1241 250 1241 q 290 1241 289 1241 q 355 1208 331 1238 l 486 1055 q 503 1006 503 1035 q 480 952 503 974 z "},"a":{"ha":1116,"x_min":68,"x_max":1027,"o":"m 844 75 l 844 401 q 808 437 844 435 l 334 437 q 289 414 308 435 q 261 366 270 393 q 252 309 252 338 q 261 254 252 282 q 289 205 270 227 q 334 184 308 184 l 681 184 q 745 158 719 184 q 772 94 772 132 q 745 30 772 56 q 681 3 719 3 l 339 3 q 182 56 244 4 q 94 174 121 109 q 68 311 68 240 q 95 444 68 378 q 183 562 122 510 q 363 618 244 614 l 933 618 q 998 593 971 618 q 1027 530 1025 568 l 1027 75 q 999 12 1027 37 q 933 -14 971 -14 q 844 75 852 -7 z "},"b":{"ha":1105,"x_min":85,"x_max":1044,"o":"m 269 736 l 269 220 q 304 184 269 186 l 779 184 q 823 207 804 186 q 851 256 842 228 q 860 312 860 283 q 851 367 860 339 q 823 416 842 395 q 779 437 804 437 l 431 437 q 367 463 393 437 q 340 528 340 490 q 368 591 340 566 q 431 618 393 618 l 773 618 q 930 565 868 617 q 1018 447 991 513 q 1044 311 1044 381 q 1017 177 1044 243 q 929 59 990 111 q 749 3 868 7 l 179 3 q 114 28 141 3 q 85 91 87 53 l 85 736 q 113 800 85 774 q 179 825 141 825 q 269 736 260 818 z "},"c":{"ha":1000,"x_min":65,"x_max":943,"o":"m 361 3 q 180 59 241 7 q 92 177 119 111 q 65 311 65 243 q 92 447 65 381 q 180 565 118 513 q 336 618 241 617 l 852 618 q 916 591 890 618 q 943 528 943 566 q 916 463 943 490 q 852 437 890 437 l 331 437 q 286 416 305 437 q 258 367 267 395 q 250 312 250 339 q 258 256 250 283 q 286 207 267 228 q 331 184 305 186 l 852 184 q 916 158 890 184 q 943 94 943 132 q 916 30 943 56 q 852 3 890 3 l 361 3 z "},"d":{"ha":1118,"x_min":65,"x_max":1024,"o":"m 841 736 q 930 825 849 818 q 996 800 968 825 q 1024 736 1024 774 l 1024 91 q 996 28 1023 53 q 930 3 968 3 l 361 3 q 180 59 241 7 q 92 177 119 111 q 65 311 65 243 q 92 447 65 381 q 180 565 118 513 q 336 618 241 617 l 678 618 q 742 591 716 618 q 769 528 769 566 q 743 463 769 490 q 678 437 716 437 l 331 437 q 286 416 305 437 q 258 367 267 395 q 250 312 250 339 q 258 256 250 283 q 286 207 267 228 q 331 184 305 186 l 806 184 q 841 220 841 186 l 841 736 z "},"e":{"ha":1016,"x_min":68,"x_max":945,"o":"m 363 3 q 183 59 244 7 q 95 177 122 111 q 68 311 68 243 q 94 447 68 381 q 182 565 121 513 q 339 618 244 617 l 854 618 q 918 593 892 618 q 945 533 945 568 q 919 471 945 496 q 854 446 892 446 l 347 446 q 295 426 317 446 q 262 373 273 406 q 252 309 252 340 q 262 243 252 275 q 295 191 273 210 q 347 170 317 171 l 854 170 q 919 145 892 170 q 945 87 945 121 q 918 27 945 52 q 854 3 892 3 l 363 3 m 929 313 q 906 269 929 288 q 854 251 886 251 l 411 251 q 358 269 380 251 q 336 313 336 288 q 358 357 336 338 q 411 374 380 374 l 854 374 q 907 356 886 374 q 929 313 929 338 z "},"f":{"ha":1100,"x_min":60,"x_max":1044,"o":"m 396 -14 q 334 13 359 -12 q 307 75 308 38 l 307 258 l 151 258 q 86 284 113 258 q 60 349 60 311 q 87 412 60 387 q 151 439 113 439 l 307 439 q 334 594 311 519 q 422 739 361 680 q 579 803 484 798 l 956 803 q 1018 777 993 802 q 1044 715 1043 751 q 1019 650 1044 677 q 956 621 994 623 l 625 621 q 540 582 574 618 q 498 499 506 545 q 490 439 491 469 l 951 439 q 1015 413 989 439 q 1042 349 1042 387 q 1016 283 1042 311 q 951 258 989 258 l 490 258 l 490 75 q 461 12 488 37 q 396 -14 434 -14 z "},"g":{"ha":1127,"x_min":71,"x_max":1029,"o":"m 846 401 q 811 437 846 435 l 336 437 q 292 414 311 435 q 264 366 273 393 q 255 309 255 338 q 264 254 255 282 q 292 205 273 227 q 336 184 311 184 l 684 184 q 748 158 722 184 q 774 94 774 132 q 747 30 774 56 q 684 3 722 3 l 342 3 q 185 56 247 4 q 97 174 123 109 q 71 311 71 240 q 98 444 71 378 q 186 562 125 510 q 366 618 247 614 l 936 618 q 1001 593 974 618 q 1029 530 1028 568 l 1029 102 q 1000 -103 1029 -7 q 911 -248 972 -189 q 754 -312 849 -307 l 285 -312 q 223 -286 248 -311 q 197 -224 198 -260 q 222 -159 197 -186 q 285 -130 247 -132 l 708 -130 q 793 -91 760 -127 q 837 -5 827 -54 q 846 121 846 43 l 846 401 z "},"h":{"ha":1047,"x_min":85,"x_max":962,"o":"m 179 825 q 241 798 216 823 q 269 736 267 773 l 269 618 l 689 618 q 846 565 784 617 q 933 448 907 513 q 960 311 960 381 l 962 311 l 962 75 q 934 12 962 37 q 868 -14 906 -14 q 779 75 787 -7 l 779 312 q 768 366 779 338 q 739 416 758 395 q 694 437 720 437 l 269 437 l 269 72 q 179 -16 260 -9 q 113 9 141 -16 q 85 72 85 34 l 85 736 q 114 800 87 774 q 179 825 141 825 z "},"i":{"ha":349,"x_min":65,"x_max":288,"o":"m 179 632 q 241 606 216 631 q 269 544 267 581 l 269 75 q 179 -14 260 -7 q 113 12 141 -14 q 85 75 85 37 l 85 544 q 114 607 87 582 q 179 632 141 632 m 65 808 q 98 873 65 846 q 176 901 130 901 q 255 873 222 901 q 288 808 288 846 q 255 742 288 769 q 176 715 222 715 q 98 742 130 715 q 65 808 65 769 z "},"j":{"ha":350,"x_min":-146,"x_max":288,"o":"m 179 632 q 241 606 216 631 q 269 544 267 581 l 269 75 q 239 -130 269 -34 q 150 -275 212 -216 q -7 -339 88 -334 l -58 -339 q -120 -313 -95 -338 q -146 -251 -145 -288 q -121 -186 -146 -213 q -58 -157 -96 -159 l -53 -157 q 33 -118 -1 -155 q 76 -33 66 -81 q 85 94 85 16 l 85 544 q 114 607 87 582 q 179 632 141 632 m 65 808 q 98 873 65 846 q 176 901 130 901 q 255 873 222 901 q 288 808 288 846 q 255 742 288 769 q 176 715 222 715 q 98 742 130 715 q 65 808 65 769 z "},"k":{"ha":1025,"x_min":85,"x_max":977,"o":"m 179 825 q 241 798 216 823 q 269 736 267 773 l 269 72 q 179 -16 260 -9 q 113 9 141 -16 q 85 72 85 34 l 85 736 q 114 800 87 774 q 179 825 141 825 m 351 446 q 502 540 391 510 l 850 633 q 920 627 887 644 q 964 574 954 610 q 960 505 977 538 q 906 460 943 472 l 534 363 q 496 312 495 349 q 534 260 495 275 l 906 164 q 960 119 943 152 q 964 50 977 85 q 920 -3 954 14 q 850 -9 887 -20 l 502 84 q 351 179 389 115 q 312 312 312 243 q 351 446 312 381 z "},"l":{"ha":355,"x_min":85,"x_max":269,"o":"m 179 825 q 241 798 216 823 q 269 736 267 773 l 269 72 q 179 -16 260 -9 q 113 9 141 -16 q 85 72 85 34 l 85 736 q 114 800 87 774 q 179 825 141 825 z "},"m":{"ha":1130,"x_min":87,"x_max":1047,"o":"m 373 639 q 466 623 420 639 q 553 575 511 606 q 568 562 560 568 q 583 575 575 568 q 671 623 625 606 q 762 639 716 639 q 855 623 810 639 q 942 574 901 606 q 1015 490 983 543 q 1047 363 1047 437 l 1047 75 q 958 -14 1039 -7 q 892 12 920 -14 q 864 75 864 37 l 864 353 q 852 408 864 385 q 825 443 840 430 q 793 462 810 456 q 761 468 777 468 q 729 462 745 468 q 699 443 713 456 q 671 408 684 430 q 658 353 659 385 l 658 75 q 568 -14 650 -7 q 503 12 530 -14 q 475 75 475 37 l 475 353 q 463 408 475 385 q 435 443 450 430 q 404 462 420 456 q 372 468 388 468 q 340 462 355 468 q 309 443 324 456 q 282 408 294 430 q 269 353 270 385 l 269 75 q 180 -14 262 -7 q 115 12 142 -14 q 87 75 87 37 l 87 363 q 121 490 90 437 q 194 574 152 543 q 281 623 236 606 q 373 639 327 639 z "},"n":{"ha":1038,"x_min":87,"x_max":951,"o":"m 518 639 q 657 623 589 639 q 788 574 726 606 q 899 490 850 543 q 951 363 947 437 l 951 307 l 951 75 q 861 -14 943 -7 q 795 12 823 -14 q 768 75 768 37 l 768 134 l 768 321 q 736 391 765 363 q 671 435 707 419 q 596 460 635 452 q 518 468 557 468 q 440 460 479 468 q 366 435 401 452 q 300 391 330 419 q 269 321 271 363 l 269 134 l 269 75 q 180 -14 262 -7 q 115 12 142 -14 q 87 75 87 37 l 87 307 l 87 363 q 138 490 91 437 q 248 574 186 543 q 379 623 311 606 q 518 639 448 639 z "},"o":{"ha":1123,"x_min":71,"x_max":1053,"o":"m 366 3 q 186 59 247 7 q 98 177 125 111 q 71 311 71 243 q 97 447 71 381 q 185 565 123 513 q 342 618 247 617 l 781 618 q 938 565 876 617 q 1026 447 1000 513 q 1053 311 1053 381 q 1025 177 1053 243 q 937 59 998 111 q 757 3 876 7 l 366 3 m 336 437 q 292 416 311 437 q 264 367 273 395 q 255 312 255 339 q 264 256 255 283 q 292 207 273 228 q 336 184 311 186 l 787 184 q 831 207 812 186 q 859 256 850 228 q 868 312 868 283 q 859 367 868 339 q 831 416 850 395 q 787 437 812 437 l 336 437 z "},"p":{"ha":1124,"x_min":85,"x_max":1044,"o":"m 269 -115 q 179 -203 260 -197 q 113 -178 141 -203 q 85 -115 85 -153 l 85 530 q 114 593 87 568 q 179 618 141 618 l 749 618 q 929 562 868 614 q 1017 444 990 510 q 1044 311 1044 378 q 1018 174 1044 240 q 930 56 991 109 q 773 3 868 4 l 431 3 q 368 30 393 3 q 340 94 340 56 q 367 158 340 132 q 431 184 393 184 l 779 184 q 823 205 804 184 q 851 254 842 227 q 860 309 860 282 q 851 366 860 338 q 823 414 842 393 q 779 437 804 435 l 304 437 q 269 401 269 435 l 269 -115 z "},"q":{"ha":1127,"x_min":76,"x_max":1035,"o":"m 852 -115 l 852 401 q 817 437 852 435 l 342 437 q 297 414 316 435 q 269 366 278 393 q 260 309 260 338 q 269 254 260 282 q 297 205 278 227 q 342 184 316 184 l 689 184 q 753 158 727 184 q 780 94 780 132 q 753 30 780 56 q 689 3 727 3 l 347 3 q 191 56 252 4 q 102 174 129 109 q 76 311 76 240 q 103 444 76 378 q 191 562 130 510 q 372 618 252 614 l 941 618 q 1006 593 979 618 q 1035 530 1034 568 l 1035 -115 q 1007 -178 1035 -153 q 941 -203 979 -203 q 852 -115 860 -197 z "},"r":{"ha":1008,"x_min":85,"x_max":959,"o":"m 114 448 q 201 565 140 513 q 358 618 263 617 l 868 618 q 932 591 906 618 q 959 528 959 566 q 932 463 959 490 q 868 437 906 437 l 353 437 q 308 416 327 437 q 279 366 289 395 q 269 312 269 338 l 269 75 q 179 -14 260 -7 q 113 12 141 -14 q 85 75 85 37 l 85 311 l 87 311 q 114 448 87 381 z "},"s":{"ha":1035,"x_min":66,"x_max":970,"o":"m 947 540 q 920 483 947 506 q 856 461 894 461 l 282 461 q 254 454 264 461 q 237 440 243 448 q 232 427 232 433 q 237 413 232 420 q 254 399 243 406 q 282 392 264 393 l 726 392 q 867 359 811 391 q 946 284 922 327 q 970 198 970 241 q 945 113 970 156 q 866 39 921 71 q 726 7 811 7 q 704 5 711 5 l 178 5 q 113 28 140 5 q 87 83 87 50 q 114 140 87 117 q 178 161 140 161 l 736 161 q 770 167 757 160 q 789 182 783 174 q 796 198 796 190 q 789 212 796 202 q 770 229 783 222 q 736 236 757 235 l 292 236 q 161 269 213 237 q 88 343 110 301 q 66 427 66 385 q 89 511 66 469 q 162 583 111 552 q 292 616 213 613 q 312 617 305 617 l 856 617 q 920 595 894 617 q 947 540 947 572 z "},"t":{"ha":1073,"x_min":43,"x_max":1028,"o":"m 380 825 q 445 800 418 825 q 473 736 472 774 l 473 618 l 935 618 q 1000 593 972 618 q 1025 528 1025 566 q 999 463 1025 490 q 935 437 972 437 l 473 437 l 473 410 q 481 307 472 354 q 524 224 490 260 q 609 184 557 187 l 940 184 q 1003 156 978 183 q 1028 91 1028 129 q 1002 29 1027 54 q 940 3 977 4 l 563 3 q 406 67 468 8 q 317 212 345 126 q 290 393 292 297 l 290 437 l 134 437 q 71 464 96 437 q 43 528 43 490 q 70 592 43 566 q 134 618 96 618 l 290 618 l 290 736 q 317 798 292 773 q 380 825 343 823 z "},"u":{"ha":1039,"x_min":87,"x_max":951,"o":"m 518 -20 q 379 -4 448 -20 q 248 44 311 12 q 138 129 186 76 q 87 255 91 182 l 87 312 l 87 544 q 115 607 87 582 q 180 632 142 632 q 269 544 262 625 l 269 484 l 269 297 q 300 227 271 255 q 366 183 330 199 q 440 159 401 167 q 518 151 479 151 q 596 159 557 151 q 671 183 635 167 q 736 227 707 199 q 768 297 765 255 l 768 484 l 768 544 q 795 607 768 582 q 861 632 823 632 q 951 544 943 625 l 951 312 l 951 255 q 899 129 947 182 q 788 44 850 76 q 657 -4 726 12 q 518 -20 589 -20 z "},"v":{"ha":989,"x_min":62,"x_max":926,"o":"m 300 75 q 161 320 231 168 l 73 510 q 65 543 66 525 q 88 608 62 581 q 156 635 114 635 q 224 616 202 635 q 260 570 247 598 l 324 412 q 372 307 349 357 q 427 217 396 258 q 495 174 457 176 q 564 217 532 176 q 616 307 593 258 q 665 412 640 357 l 728 570 q 764 616 742 598 q 833 635 787 635 q 901 608 875 635 q 924 543 926 581 q 916 510 922 525 l 827 320 q 689 75 758 168 q 495 -19 623 -18 q 300 75 366 -18 z "},"w":{"ha":1141,"x_min":87,"x_max":1047,"o":"m 373 -15 q 281 1 327 -15 q 194 50 236 18 q 121 134 152 81 q 87 260 90 187 l 87 549 q 115 612 87 587 q 180 637 142 637 q 269 549 262 631 l 269 271 q 282 216 270 239 q 309 181 294 194 q 340 162 324 168 q 372 156 355 156 q 404 162 388 156 q 435 181 420 168 q 463 216 450 194 q 475 271 475 239 l 475 549 q 503 612 475 587 q 568 637 530 637 q 658 549 650 631 l 658 271 q 671 217 659 239 q 699 181 684 194 q 729 162 713 168 q 761 156 745 156 q 793 162 777 156 q 825 181 810 168 q 852 216 840 194 q 864 271 864 239 l 864 549 q 892 612 864 587 q 958 637 920 637 q 1047 549 1039 631 l 1047 260 q 1015 134 1047 187 q 942 50 983 81 q 855 1 901 18 q 762 -15 810 -15 q 671 1 716 -15 q 583 50 625 18 q 568 62 575 56 q 553 50 560 56 q 466 1 511 18 q 373 -15 420 -15 z "},"x":{"ha":1160,"x_min":54,"x_max":1107,"o":"m 486 87 q 283 3 381 8 l 142 3 q 81 29 106 4 q 54 91 56 54 q 79 156 54 129 q 142 184 104 183 l 270 184 q 377 224 321 187 q 469 308 433 260 q 477 317 473 312 q 388 397 441 362 q 281 437 332 434 l 153 437 q 90 465 115 438 q 65 530 65 492 q 92 592 66 567 q 153 618 117 617 l 294 618 q 496 534 392 613 q 581 457 541 500 q 666 534 620 500 q 867 618 769 613 l 1008 618 q 1069 592 1044 617 q 1096 530 1095 567 q 1071 465 1096 492 q 1008 437 1046 438 l 880 437 q 773 397 829 434 q 684 317 720 362 q 692 308 688 312 q 784 224 728 260 q 891 184 840 187 l 1019 184 q 1082 156 1057 183 q 1107 91 1107 129 q 1080 29 1105 54 q 1019 3 1055 4 l 878 3 q 677 87 780 8 q 581 175 624 127 q 486 87 537 127 z "},"y":{"ha":1043,"x_min":87,"x_max":951,"o":"m 176 635 q 241 610 214 635 q 270 547 269 585 l 270 410 q 277 307 269 354 q 320 224 286 260 q 406 184 354 187 l 768 184 l 768 544 q 795 607 768 582 q 861 632 823 632 q 951 544 943 625 l 951 102 q 921 -103 951 -7 q 832 -248 894 -189 q 675 -312 770 -307 l 206 -312 q 144 -286 170 -311 q 118 -224 119 -260 q 143 -159 118 -186 q 206 -130 168 -132 l 629 -130 q 715 -91 681 -127 q 758 -5 749 -54 q 760 3 760 -1 l 359 3 q 203 67 264 8 q 114 212 141 126 q 87 393 88 297 l 87 547 q 114 608 88 583 q 176 635 140 633 z "},"z":{"ha":1067,"x_min":65,"x_max":1004,"o":"m 65 528 q 92 592 65 566 q 156 618 118 618 l 913 618 q 978 593 951 618 q 1004 528 1004 566 q 983 471 1004 490 q 941 441 962 453 l 481 184 l 913 184 q 978 159 951 184 q 1004 94 1004 132 q 977 29 1004 56 q 913 3 951 3 l 156 3 q 92 30 118 3 q 65 94 65 56 q 92 159 65 132 q 103 168 98 164 l 106 170 l 590 437 l 156 437 q 92 464 118 437 q 65 528 65 490 z "},"{":{"ha":525,"x_min":50,"x_max":458,"o":"m 458 -186 q 442 -225 458 -209 q 403 -241 426 -241 l 368 -241 q 217 -193 263 -241 q 171 -22 171 -144 q 178 122 171 37 q 184 256 184 208 q 110 366 184 340 q 67 394 84 376 q 50 436 50 412 q 67 479 50 460 q 110 506 84 498 q 184 614 184 532 q 178 750 184 665 q 171 892 171 836 q 217 1065 171 1016 q 368 1114 263 1114 l 404 1114 q 443 1098 427 1114 q 458 1059 458 1082 q 443 1022 458 1038 q 404 1004 427 1006 q 351 973 365 1000 q 336 884 336 947 q 340 757 336 842 q 343 620 343 671 q 317 496 343 537 q 235 441 292 454 q 232 436 232 439 q 235 433 232 433 q 317 376 292 418 q 343 252 343 335 q 340 117 343 202 q 336 -11 336 31 q 350 -99 336 -73 q 403 -130 363 -125 q 442 -149 426 -133 q 458 -186 458 -164 z "},"|":{"ha":411,"x_min":138,"x_max":273,"o":"m 138 -332 l 138 1109 q 158 1158 138 1138 q 205 1177 178 1177 q 253 1158 233 1177 q 273 1109 273 1138 l 273 -332 q 253 -379 273 -359 q 205 -399 233 -399 q 158 -379 178 -399 q 138 -332 138 -359 z "},"}":{"ha":525,"x_min":66,"x_max":473,"o":"m 122 -241 q 83 -225 99 -241 q 66 -186 66 -209 q 83 -149 66 -164 q 122 -130 99 -133 q 174 -99 160 -125 q 189 -11 189 -73 q 185 117 189 31 q 182 252 182 202 q 208 376 182 335 q 290 433 233 418 q 293 436 293 433 q 290 441 293 439 q 208 496 233 454 q 182 620 182 537 q 185 757 182 671 q 189 884 189 842 q 174 973 189 947 q 121 1004 160 1000 q 82 1022 98 1006 q 66 1059 66 1038 q 83 1098 66 1082 q 121 1114 99 1114 l 157 1114 q 308 1065 262 1114 q 354 892 354 1016 q 347 750 354 836 q 339 614 339 665 q 414 506 339 532 q 456 479 439 498 q 473 436 473 460 q 456 394 473 412 q 414 366 439 376 q 339 256 339 340 q 347 122 339 208 q 354 -22 354 37 q 308 -193 354 -144 q 157 -241 262 -241 l 122 -241 z "},"~":{"ha":818,"x_min":73,"x_max":745,"o":"m 544 387 q 459 406 500 387 q 391 448 418 425 q 332 490 365 471 q 271 509 300 509 q 194 471 229 509 q 149 446 175 452 q 138 445 144 445 q 102 457 119 445 q 75 502 79 475 q 73 513 73 507 q 88 552 73 534 q 275 654 172 654 q 359 635 317 654 q 427 593 400 616 q 486 551 453 570 q 547 532 519 532 q 624 568 589 532 q 669 593 643 587 q 680 594 674 594 q 716 582 699 594 q 743 537 739 564 q 745 526 745 532 q 730 487 745 505 q 544 387 646 387 z "},"":{"ha":1389,"x_min":0,"x_max":0,"o":""},"":{"ha":1389,"x_min":0,"x_max":0,"o":""},"":{"ha":1389,"x_min":0,"x_max":0,"o":""},"":{"ha":1389,"x_min":0,"x_max":0,"o":""},"":{"ha":1389,"x_min":0,"x_max":0,"o":""},"":{"ha":1389,"x_min":0,"x_max":0,"o":""},"":{"ha":1389,"x_min":0,"x_max":0,"o":""},"":{"ha":1389,"x_min":0,"x_max":0,"o":""},"":{"ha":1389,"x_min":0,"x_max":0,"o":""},"":{"ha":1389,"x_min":0,"x_max":0,"o":""},"":{"ha":1389,"x_min":0,"x_max":0,"o":""},"":{"ha":1389,"x_min":521,"x_max":868,"o":"m 553 560 l 836 560 q 859 551 849 560 q 868 528 868 541 q 859 505 868 514 q 836 496 849 496 l 553 496 q 530 505 540 496 q 521 528 521 514 q 530 551 521 541 q 553 560 540 560 z "},"":{"ha":513,"x_min":68,"x_max":448,"o":"m 141 357 q 89 378 110 357 q 68 429 68 399 q 89 481 68 460 q 141 502 110 502 l 374 502 q 427 481 406 502 q 448 429 448 460 q 427 378 448 399 q 374 357 406 357 l 141 357 z "},"":{"ha":757,"x_min":68,"x_max":689,"o":"m 134 332 q 87 351 107 332 q 68 398 68 370 q 87 445 68 426 q 134 464 107 464 l 623 464 q 669 445 650 464 q 689 398 689 426 q 669 351 689 370 q 623 332 650 332 l 134 332 z "},"":{"ha":655,"x_min":-3,"x_max":666,"o":"m 65 368 q 17 387 37 368 q -3 435 -3 407 q 17 482 -3 463 q 65 502 37 502 l 600 502 q 646 482 627 502 q 666 435 666 463 q 646 387 666 407 q 600 368 627 368 l 65 368 z "},"":{"ha":1260,"x_min":68,"x_max":1194,"o":"m 134 332 q 87 351 107 332 q 68 398 68 370 q 87 445 68 426 q 134 464 107 464 l 1127 464 q 1174 445 1154 464 q 1194 398 1194 426 q 1174 351 1194 370 q 1127 332 1154 332 l 134 332 z "},"":{"ha":1389,"x_min":103,"x_max":1286,"o":"m 134 560 l 1255 560 q 1276 551 1267 560 q 1286 528 1286 541 q 1276 505 1286 514 q 1255 496 1267 496 l 134 496 q 113 505 122 496 q 103 528 103 514 q 113 551 103 541 q 134 560 122 560 z "},"":{"ha":846,"x_min":-3,"x_max":857,"o":"m 71 -182 q 18 -161 39 -182 q -3 -109 -3 -140 q 18 -58 -3 -79 q 71 -37 39 -37 l 784 -37 q 836 -58 815 -37 q 857 -109 857 -79 q 836 -161 857 -140 q 784 -182 815 -182 l 71 -182 m 71 -401 q 18 -380 39 -401 q -3 -329 -3 -359 q 18 -277 -3 -298 q 71 -256 39 -256 l 784 -256 q 836 -277 815 -256 q 857 -329 857 -298 q 836 -380 857 -359 q 784 -401 815 -401 l 71 -401 z "},"":{"ha":450,"x_min":88,"x_max":334,"o":"m 252 1057 q 275 1063 263 1063 q 290 1062 282 1063 q 320 1036 309 1055 q 323 998 330 1017 q 300 964 317 978 q 208 808 214 903 q 212 800 208 803 q 221 796 216 796 q 222 796 221 796 q 301 767 269 796 q 334 689 334 738 q 302 604 334 636 q 222 572 271 572 q 122 621 156 572 q 88 760 88 670 q 252 1057 88 949 z "},"":{"ha":450,"x_min":118,"x_max":363,"o":"m 198 613 q 174 606 186 606 q 160 609 167 606 q 132 633 141 614 q 127 672 122 652 q 151 704 133 692 q 243 863 236 766 q 239 871 243 868 q 229 875 235 875 q 151 904 183 875 q 118 982 118 933 q 149 1067 118 1035 q 229 1099 180 1099 q 329 1049 294 1099 q 363 910 363 1000 q 198 613 363 719 z "},"":{"ha":450,"x_min":118,"x_max":363,"o":"m 198 -233 q 175 -241 187 -241 q 160 -239 168 -241 q 132 -214 141 -233 q 128 -175 122 -195 q 152 -142 134 -155 q 243 16 236 -80 q 229 28 243 28 q 151 58 183 28 q 118 136 118 87 q 149 220 118 189 q 229 252 180 252 q 329 203 294 252 q 363 64 363 153 q 198 -233 363 -127 z "},"":{"ha":468,"x_min":92,"x_max":377,"o":"m 99 991 q 92 1023 92 1008 q 106 1066 92 1046 q 172 1101 130 1101 l 183 1101 q 275 1069 235 1101 q 328 986 316 1038 l 376 791 q 377 773 377 781 q 362 730 377 749 q 307 703 340 703 q 231 726 264 703 q 182 787 197 749 l 99 991 z "},"":{"ha":798,"x_min":88,"x_max":681,"o":"m 251 1088 q 275 1095 263 1095 q 289 1093 282 1095 q 320 1069 309 1086 q 323 1028 330 1048 q 300 996 317 1008 q 241 939 263 968 q 208 840 212 898 q 212 831 208 834 q 221 827 216 827 q 222 827 221 827 q 301 798 269 827 q 334 720 334 769 q 302 635 334 667 q 222 604 271 604 q 122 652 156 604 q 88 791 88 701 q 251 1088 88 981 m 598 1088 q 623 1095 610 1095 q 636 1093 629 1095 q 667 1069 656 1086 q 671 1028 677 1048 q 647 996 665 1008 q 589 939 610 968 q 555 840 559 898 q 559 831 555 834 q 568 827 563 827 q 570 827 568 827 q 648 798 616 827 q 681 720 681 769 q 650 635 681 667 q 570 604 618 604 q 469 652 503 604 q 435 791 435 701 q 598 1088 435 981 z "},"":{"ha":798,"x_min":118,"x_max":711,"o":"m 198 613 q 174 606 186 606 q 160 609 167 606 q 132 633 141 614 q 127 672 122 652 q 151 704 133 692 q 243 863 236 766 q 239 871 243 868 q 229 875 235 875 q 151 904 183 875 q 118 982 118 933 q 149 1067 118 1035 q 229 1099 180 1099 q 329 1049 294 1099 q 363 910 363 1000 q 198 613 363 719 m 545 613 q 521 606 533 606 q 507 609 514 606 q 479 633 488 614 q 475 672 469 652 q 498 704 480 692 q 590 863 583 766 q 586 871 590 868 q 576 875 582 875 q 498 904 530 875 q 465 982 465 933 q 496 1067 465 1035 q 576 1099 528 1099 q 676 1049 642 1099 q 711 910 711 1000 q 545 613 711 719 z "},"":{"ha":798,"x_min":118,"x_max":711,"o":"m 198 -233 q 175 -241 187 -241 q 160 -239 168 -241 q 132 -214 141 -233 q 128 -175 122 -195 q 152 -142 134 -155 q 243 16 236 -80 q 229 28 243 28 q 151 58 183 28 q 118 136 118 87 q 149 220 118 189 q 229 252 180 252 q 329 203 294 252 q 363 64 363 153 q 198 -233 363 -127 m 545 -233 q 522 -241 534 -241 q 507 -239 515 -241 q 479 -214 488 -233 q 475 -175 469 -195 q 499 -142 481 -155 q 590 16 583 -80 q 576 28 590 28 q 498 58 530 28 q 465 136 465 87 q 496 220 465 189 q 576 252 528 252 q 676 203 642 252 q 711 64 711 153 q 545 -233 711 -127 z "},"":{"ha":736,"x_min":84,"x_max":650,"o":"m 458 1101 q 548 1070 509 1101 q 598 990 587 1039 l 647 781 q 650 765 650 773 q 635 727 650 745 q 586 703 616 703 q 519 723 549 703 q 475 777 488 743 l 387 996 q 380 1025 380 1010 q 393 1067 380 1047 q 458 1101 416 1101 m 160 1101 q 250 1070 210 1101 q 301 991 289 1039 l 351 781 q 354 765 354 773 q 339 727 354 745 q 290 703 320 703 q 223 723 254 703 q 179 777 193 743 l 90 997 q 84 1025 84 1012 q 98 1067 84 1047 q 160 1101 121 1101 z "},"":{"ha":1389,"x_min":350,"x_max":1039,"o":"m 783 979 l 773 762 q 777 753 773 757 q 785 749 780 749 l 958 758 q 963 758 960 758 q 1015 738 993 758 q 1039 682 1039 715 q 1015 625 1039 648 q 963 604 993 604 q 958 604 960 604 l 785 613 q 776 610 780 613 q 773 601 772 606 l 785 14 q 760 -52 787 -24 q 694 -79 732 -79 q 629 -52 656 -79 q 604 14 602 -24 l 616 601 q 613 610 617 606 q 604 613 609 613 l 431 604 q 426 604 429 604 q 374 625 396 604 q 350 682 350 648 q 374 738 350 715 q 426 758 396 758 q 431 758 429 758 l 604 749 q 612 753 609 749 q 616 762 616 757 l 606 979 q 630 1045 604 1017 q 694 1073 656 1073 q 759 1045 732 1073 q 783 979 785 1017 z "},"":{"ha":1389,"x_min":350,"x_max":1039,"o":"m 783 979 l 773 784 q 777 775 773 779 q 785 772 780 772 l 958 780 q 962 780 960 780 q 1015 758 993 780 q 1039 702 1039 735 q 1015 646 1039 669 q 963 625 993 625 q 958 625 960 625 l 785 633 q 776 631 780 635 q 772 621 772 627 l 773 376 q 777 367 773 370 q 787 363 781 363 l 958 372 q 963 372 960 372 q 1015 351 993 372 q 1039 295 1039 328 q 1015 239 1039 262 q 963 218 993 218 q 958 218 960 218 l 785 227 q 777 224 780 228 q 773 214 773 220 l 783 14 q 759 -52 785 -24 q 694 -79 732 -79 q 630 -52 656 -79 q 606 14 604 -24 l 616 214 q 612 224 616 220 q 604 227 609 228 l 431 218 q 426 218 429 218 q 374 239 396 218 q 350 295 350 262 q 374 351 350 328 q 426 372 396 372 q 431 372 429 372 l 604 363 q 613 367 609 363 q 617 376 617 370 l 617 621 q 613 631 617 627 q 604 633 609 635 l 431 625 q 426 625 429 625 q 374 646 396 625 q 350 702 350 669 q 374 758 350 735 q 427 780 396 780 q 431 780 429 780 l 604 772 q 612 775 609 772 q 616 784 616 779 l 606 979 q 630 1045 604 1017 q 694 1073 656 1073 q 759 1045 732 1073 q 783 979 785 1017 z "},"":{"ha":525,"x_min":62,"x_max":463,"o":"m 406 263 q 262 203 347 203 q 120 263 178 203 q 62 414 62 323 q 120 565 62 505 q 262 625 178 625 q 405 565 347 625 q 463 414 463 505 q 406 263 463 323 z "},"":{"ha":735,"x_min":179,"x_max":562,"o":"m 528 595 q 562 538 562 576 q 528 481 562 500 l 282 346 q 248 336 266 336 q 213 347 231 336 q 179 407 179 368 l 179 669 q 213 728 179 708 q 248 739 231 739 q 282 730 266 739 l 528 595 z "},"":{"ha":471,"x_min":123,"x_max":359,"o":"m 123 146 l 123 160 q 158 243 123 209 q 241 278 193 278 q 325 243 290 278 q 359 160 359 209 l 359 146 q 325 63 359 98 q 241 28 290 28 q 158 63 193 28 q 123 146 123 98 z "},"":{"ha":1389,"x_min":235,"x_max":1154,"o":"m 267 449 q 235 528 235 481 q 267 608 235 575 q 347 640 300 640 q 427 608 395 640 q 460 528 460 575 q 427 448 460 481 q 347 415 395 415 q 267 449 300 415 m 962 449 q 929 528 929 481 q 962 608 929 575 q 1042 640 994 640 q 1122 608 1089 640 q 1154 528 1154 575 q 1122 448 1154 481 q 1042 415 1089 415 q 962 449 994 415 z "},"":{"ha":1389,"x_min":119,"x_max":1270,"o":"m 152 449 q 119 528 119 481 q 152 608 119 575 q 232 640 184 640 q 312 608 279 640 q 345 528 345 575 q 312 448 345 481 q 232 415 279 415 q 152 449 184 415 m 614 449 q 582 528 582 481 q 614 608 582 575 q 694 640 647 640 q 774 608 742 640 q 807 528 807 575 q 774 448 807 481 q 694 415 742 415 q 614 449 647 415 m 1077 449 q 1044 528 1044 481 q 1077 608 1044 575 q 1157 640 1109 640 q 1237 608 1204 640 q 1270 528 1270 575 q 1237 448 1270 481 q 1157 415 1204 415 q 1077 449 1109 415 z "},"":{"ha":1389,"x_min":582,"x_max":807,"o":"m 614 449 q 582 528 582 481 q 614 608 582 575 q 694 640 647 640 q 774 608 742 640 q 807 528 807 575 q 774 448 807 481 q 694 415 742 415 q 614 449 647 415 z "},"":{"ha":1389,"x_min":42,"x_max":1347,"o":"m 208 -19 q 183 -5 191 -19 q 182 22 175 8 l 685 1008 q 751 1048 705 1048 q 777 1035 768 1048 q 777 1008 785 1021 l 275 22 q 208 -19 254 -19 m 42 728 q 92 955 42 863 q 227 1046 141 1046 q 228 1046 227 1046 q 311 1018 275 1046 q 367 943 347 990 q 395 843 387 895 q 404 732 404 791 q 353 497 404 578 q 227 416 301 416 q 120 464 163 416 q 60 578 77 511 q 42 728 42 646 m 289 728 q 275 894 289 834 q 224 951 260 951 q 222 951 222 951 q 157 732 157 951 q 172 567 157 623 q 225 511 187 511 q 275 567 262 511 q 289 728 289 623 m 557 302 q 606 530 557 439 q 741 621 656 621 q 743 621 742 621 q 827 593 791 621 q 882 518 863 566 q 911 418 902 471 q 920 307 920 366 q 867 73 920 153 q 742 -8 815 -8 q 635 39 678 -8 q 574 155 591 87 q 557 302 557 222 m 985 302 q 1035 530 985 439 q 1169 621 1084 621 q 1171 621 1171 621 q 1255 593 1219 621 q 1310 518 1291 566 q 1338 418 1329 471 q 1347 307 1347 366 q 1295 73 1347 153 q 1169 -8 1244 -8 q 1063 39 1107 -8 q 1002 155 1020 87 q 985 302 985 222 m 789 469 q 739 526 776 526 q 738 526 738 526 q 673 307 673 526 q 688 142 673 198 q 741 85 703 85 q 791 142 777 85 q 804 304 804 198 q 789 469 804 411 m 1232 304 q 1218 468 1232 410 q 1166 526 1204 526 q 1165 526 1166 526 q 1100 307 1100 526 q 1115 142 1100 198 q 1168 85 1130 85 q 1218 142 1204 85 q 1232 304 1232 198 z "},"":{"ha":1816,"x_min":38,"x_max":1389,"o":"m 240 769 q 197 878 240 878 q 155 769 155 878 q 197 659 155 659 q 240 769 240 659 m 617 388 q 575 496 617 496 q 532 388 532 496 q 574 278 532 278 q 617 388 617 278 m 901 496 q 901 496 901 496 q 859 387 859 496 q 901 278 859 278 q 944 387 944 278 q 901 496 944 496 m 1229 496 q 1227 496 1229 496 q 1184 387 1184 496 q 1227 278 1184 278 q 1270 387 1270 278 q 1229 496 1270 496 m 197 989 q 317 931 275 989 q 359 769 359 873 q 317 606 359 665 q 198 548 274 548 q 80 606 122 548 q 38 769 38 665 q 79 931 38 873 q 197 989 121 989 m 477 926 q 510 965 488 951 q 559 979 532 979 q 591 962 579 979 q 594 926 602 945 l 296 231 q 262 192 285 206 q 213 178 240 178 q 182 195 193 178 q 175 216 175 205 q 178 231 175 224 l 477 926 m 456 549 q 574 608 498 608 q 693 550 651 608 q 735 387 735 492 q 693 224 735 282 q 574 167 651 167 q 455 224 498 167 q 412 387 412 282 q 456 549 412 492 m 901 167 q 781 224 823 167 q 739 387 739 282 q 781 550 739 492 q 900 608 823 608 q 1019 550 977 608 q 1062 387 1062 492 q 1020 224 1062 282 q 901 167 978 167 m 1227 167 q 1107 224 1149 167 q 1066 387 1066 282 q 1109 550 1066 492 q 1228 608 1152 608 q 1347 550 1305 608 q 1389 387 1389 492 q 1347 224 1389 282 q 1227 167 1305 167 z "},"":{"ha":450,"x_min":132,"x_max":347,"o":"m 195 639 q 150 659 168 639 q 134 705 132 678 l 153 982 q 189 1054 157 1025 q 262 1082 220 1082 q 263 1082 262 1082 q 327 1051 302 1082 q 347 998 347 1028 q 346 982 347 990 l 331 899 l 279 703 q 248 655 271 674 q 197 639 225 639 q 195 639 197 639 z "},"":{"ha":798,"x_min":132,"x_max":694,"o":"m 195 639 q 150 659 168 639 q 134 705 132 678 l 153 982 q 189 1054 157 1025 q 262 1082 220 1082 q 263 1082 262 1082 q 327 1051 302 1082 q 347 998 347 1028 q 346 982 347 990 l 331 899 l 279 703 q 248 655 271 674 q 197 639 225 639 q 195 639 197 639 m 543 639 q 497 659 515 639 q 481 705 479 678 l 500 982 q 534 1054 503 1024 q 608 1082 566 1082 q 609 1082 609 1082 q 674 1051 650 1082 q 694 998 694 1028 q 693 982 694 990 l 678 899 l 627 703 q 595 655 618 674 q 544 639 572 639 q 543 639 544 639 z "},"":{"ha":864,"x_min":76,"x_max":808,"o":"m 130 1006 q 178 1075 142 1048 q 258 1101 214 1101 q 309 1073 292 1101 q 317 1043 317 1058 q 309 1015 317 1028 l 206 826 q 119 774 178 774 q 84 792 98 774 q 76 817 76 804 q 77 830 76 823 l 130 1006 m 376 1006 q 424 1075 388 1048 q 505 1101 460 1101 q 555 1073 537 1101 q 563 1043 563 1058 q 555 1015 563 1028 l 452 826 q 365 774 423 774 q 330 792 343 774 q 321 817 321 804 q 323 830 321 823 l 376 1006 m 621 1005 q 669 1075 633 1048 q 749 1101 705 1101 q 800 1073 783 1101 q 808 1043 808 1058 q 800 1015 808 1028 l 694 825 q 610 774 667 774 q 576 792 589 774 q 567 817 567 803 q 570 829 567 822 l 621 1005 z "},"":{"ha":1389,"x_min":506,"x_max":765,"o":"m 551 1325 q 651 1301 604 1325 q 730 1233 699 1276 l 757 1198 q 765 1173 765 1185 q 760 1153 765 1164 q 722 1131 747 1131 q 581 1187 640 1131 l 519 1246 q 506 1275 506 1259 q 511 1295 506 1284 q 551 1325 522 1325 z "},"":{"ha":663,"x_min":76,"x_max":593,"o":"m 545 774 q 492 789 517 774 q 453 829 467 804 l 353 1009 q 343 1040 343 1024 q 353 1072 343 1055 q 407 1101 370 1101 q 490 1074 453 1101 q 541 1001 528 1046 l 590 834 q 593 821 593 827 q 583 793 593 806 q 545 774 568 774 m 277 774 q 223 789 248 774 q 184 830 198 804 l 84 1010 q 76 1040 76 1025 q 85 1072 76 1055 q 138 1101 103 1101 q 222 1074 184 1101 q 273 1001 259 1046 l 323 836 q 324 821 324 827 q 315 793 324 806 q 277 774 301 774 z "},"":{"ha":865,"x_min":66,"x_max":799,"o":"m 617 1101 q 698 1075 662 1101 q 746 1005 734 1048 l 798 830 q 799 817 799 823 q 791 792 799 803 q 757 774 777 774 q 670 825 699 774 l 566 1013 q 557 1043 557 1028 q 566 1073 557 1058 q 617 1101 583 1101 m 372 1101 q 452 1075 416 1101 q 500 1005 488 1048 l 553 830 q 555 817 555 823 q 547 792 555 804 q 511 774 533 774 q 425 826 453 774 l 320 1013 q 312 1043 312 1028 q 320 1073 312 1058 q 372 1101 338 1101 m 126 1101 q 207 1075 171 1101 q 255 1005 243 1048 l 307 830 q 308 817 308 823 q 300 792 308 803 q 266 774 286 774 q 179 825 208 774 l 75 1013 q 66 1043 66 1028 q 75 1073 66 1058 q 126 1101 92 1101 z "},"":{"ha":450,"x_min":75,"x_max":346,"o":"m 327 123 q 294 113 313 113 q 290 113 293 113 q 256 129 270 114 l 125 271 q 75 398 75 326 q 125 525 75 471 l 255 665 q 290 681 270 681 q 294 682 292 682 q 327 670 312 682 q 346 635 343 656 q 346 628 346 632 q 336 597 346 612 l 197 408 q 197 387 189 397 l 336 194 q 346 164 346 180 q 346 157 346 160 q 327 123 343 137 z "},"":{"ha":450,"x_min":104,"x_max":374,"o":"m 195 129 q 161 113 182 114 q 156 113 159 113 q 123 123 138 113 q 104 157 107 137 q 104 164 104 161 q 114 194 104 180 l 255 387 q 255 408 263 397 l 115 597 q 104 628 104 612 q 104 635 104 632 q 123 670 107 656 q 157 682 138 682 q 161 681 159 682 q 197 665 182 680 l 326 525 q 374 398 374 471 q 326 271 374 326 l 195 129 z "},"":{"ha":1389,"x_min":194,"x_max":1195,"o":"m 768 997 q 799 923 799 966 q 768 850 799 880 q 694 819 736 819 q 621 850 652 819 q 590 923 590 880 q 621 997 590 966 q 694 1028 652 1028 q 768 997 736 1028 m 256 1006 l 685 578 q 704 578 694 568 l 1133 1006 q 1153 1015 1141 1015 q 1173 1006 1165 1015 q 1181 986 1181 998 q 1173 966 1181 974 l 745 537 q 745 518 735 528 l 1173 90 q 1181 70 1181 81 q 1173 50 1181 58 q 1153 41 1165 41 q 1133 49 1141 41 l 704 477 q 685 477 694 487 l 255 47 q 235 39 247 39 q 214 47 222 39 q 206 68 206 56 q 214 88 206 80 l 644 518 q 644 537 654 528 l 216 966 q 208 986 208 974 q 216 1006 208 998 q 236 1015 224 1015 q 256 1006 248 1015 m 225 602 q 299 632 256 632 q 372 602 342 632 q 403 528 403 571 q 372 454 403 486 q 299 423 342 423 q 225 454 256 423 q 194 528 194 486 q 225 602 194 571 m 1164 454 q 1090 423 1133 423 q 1017 454 1047 423 q 986 528 986 486 q 1017 602 986 571 q 1090 632 1047 632 q 1164 602 1133 632 q 1195 528 1195 571 q 1164 454 1195 486 m 621 58 q 590 132 590 90 q 621 205 590 175 q 694 236 652 236 q 768 205 736 236 q 799 132 799 175 q 768 58 799 90 q 694 27 736 27 q 621 58 652 27 z "},"":{"ha":940,"x_min":130,"x_max":811,"o":"m 186 416 l 161 863 l 157 954 q 185 1025 156 996 q 257 1055 214 1055 q 329 1025 300 1055 q 355 954 358 996 l 353 863 l 327 416 q 305 369 326 388 q 257 350 285 350 q 209 369 229 350 q 186 416 189 388 m 349 19 q 257 -19 311 -19 q 167 19 203 -19 q 130 114 130 57 q 167 209 130 171 q 257 247 203 247 q 348 208 311 247 q 385 113 385 170 q 349 19 385 57 m 613 416 l 587 863 l 585 954 q 612 1025 583 996 q 684 1055 642 1055 q 755 1025 726 1055 q 783 954 784 996 l 779 863 l 754 416 q 732 369 753 388 q 683 350 711 350 q 635 369 655 350 q 613 416 614 388 m 684 -19 q 592 19 628 -19 q 556 114 556 57 q 592 209 556 171 q 684 247 628 247 q 774 208 738 247 q 811 113 811 170 q 774 19 811 57 q 684 -19 738 -19 z "},"":{"ha":873,"x_min":98,"x_max":799,"o":"m 378 331 q 311 359 339 331 q 281 426 282 387 l 270 863 q 266 871 270 868 q 256 873 262 875 q 203 861 235 869 q 180 857 193 857 q 138 869 159 857 q 100 922 109 887 q 98 943 98 932 q 111 990 98 967 q 167 1029 132 1021 q 442 1061 307 1061 q 705 994 612 1061 q 799 817 799 926 q 785 724 799 765 q 742 651 770 684 q 690 601 713 618 q 628 555 667 583 q 511 450 545 498 q 495 423 502 438 q 446 357 476 382 q 378 331 416 331 m 496 884 q 495 884 495 884 q 487 882 490 884 q 483 872 483 878 l 476 662 q 471 650 476 658 q 467 637 467 643 l 468 637 q 473 642 472 640 q 537 689 517 673 q 576 734 557 705 q 594 792 594 762 q 496 884 594 869 m 374 28 q 300 59 331 28 q 270 133 270 90 q 300 207 270 176 q 374 237 331 237 l 382 237 q 456 207 426 237 q 487 133 487 176 q 456 59 487 90 q 382 28 426 28 l 374 28 z "},"":{"ha":846,"x_min":-3,"x_max":857,"o":"m 72 1168 q 19 1190 41 1168 q -3 1242 -3 1211 q 19 1295 -3 1274 q 72 1317 41 1317 l 783 1317 q 836 1295 814 1317 q 857 1242 857 1274 q 836 1190 857 1211 q 783 1168 814 1168 l 72 1168 z "},"":{"ha":1246,"x_min":12,"x_max":1236,"o":"m 80 -138 q 30 -85 47 -119 q 12 -14 12 -52 q 35 26 12 14 q 58 33 46 33 q 81 26 69 33 q 625 -117 330 -117 q 1166 26 920 -117 q 1190 33 1179 33 q 1213 26 1202 33 q 1236 -14 1236 14 q 1218 -85 1236 -52 q 1168 -138 1200 -119 q 625 -282 932 -282 q 80 -138 317 -282 z "},"":{"ha":1246,"x_min":12,"x_max":1236,"o":"m 1168 1257 q 1218 1204 1200 1238 q 1236 1131 1236 1171 q 1213 1092 1236 1105 q 1189 1085 1200 1085 q 1166 1092 1177 1085 q 624 1233 917 1233 q 81 1092 331 1233 q 59 1085 71 1085 q 35 1092 47 1085 q 12 1131 12 1105 q 30 1204 12 1171 q 80 1257 47 1238 q 625 1400 317 1400 q 1168 1257 932 1400 z "},"":{"ha":1389,"x_min":142,"x_max":1246,"o":"m 667 761 q 665 766 669 764 q 659 766 662 768 l 537 669 q 506 656 524 656 q 495 658 500 656 q 460 682 472 662 q 453 708 453 694 q 456 726 453 716 q 486 757 464 747 l 632 812 q 635 817 635 814 q 632 822 635 821 l 486 879 q 456 910 464 888 q 453 928 453 920 q 460 954 453 941 q 495 978 472 974 q 506 979 500 979 q 537 967 522 979 l 659 869 q 665 869 662 867 q 667 875 669 871 l 643 1028 q 642 1038 642 1034 q 655 1070 642 1055 q 694 1089 670 1089 q 734 1070 719 1089 q 747 1038 747 1055 q 746 1028 747 1034 l 722 875 q 724 869 720 871 q 730 869 727 867 l 852 967 q 883 979 867 979 q 894 978 888 979 q 929 954 917 974 q 936 928 936 941 q 933 910 936 920 q 903 879 925 888 l 757 822 q 754 817 754 821 q 757 812 754 814 l 903 757 q 933 726 925 747 q 936 708 936 716 q 929 682 936 694 q 894 658 917 662 q 883 656 888 656 q 852 669 865 656 l 730 766 q 724 766 727 768 q 722 761 720 764 l 746 606 q 747 597 747 602 q 734 564 747 579 q 694 545 719 545 q 655 564 670 545 q 642 597 642 579 q 643 606 642 602 l 667 761 m 358 182 q 355 186 358 184 q 350 187 353 189 l 228 90 q 195 77 213 77 q 186 79 191 77 q 151 103 163 83 q 142 129 142 115 q 146 146 142 137 q 176 178 153 168 l 321 233 q 326 238 326 235 q 321 243 326 241 l 176 300 q 145 331 153 309 q 142 349 142 340 q 151 374 142 362 q 186 399 161 395 q 195 400 191 400 q 228 388 213 400 l 350 290 q 355 290 353 288 q 358 296 358 292 l 334 450 q 334 458 334 454 q 346 491 334 477 q 386 510 362 510 q 425 491 410 510 q 437 458 437 477 q 437 450 437 454 l 412 296 q 414 290 411 292 q 422 290 418 288 l 544 388 q 575 400 557 400 q 586 399 581 400 q 621 374 609 395 q 628 349 628 362 q 625 331 628 340 q 595 300 617 309 l 448 243 q 445 238 445 241 q 448 233 445 235 l 595 178 q 625 146 617 168 q 628 129 628 137 q 621 103 628 115 q 585 79 609 83 q 575 77 581 77 q 543 90 557 77 l 422 186 q 414 186 418 189 q 412 180 411 184 l 437 26 q 437 18 437 22 q 425 -15 437 -1 q 386 -34 410 -34 q 346 -15 362 -34 q 334 18 334 0 q 334 26 334 22 l 358 182 m 975 182 q 974 186 977 184 q 968 187 971 189 l 845 90 q 814 77 831 77 q 804 79 810 77 q 769 103 780 83 q 762 129 762 115 q 765 146 762 137 q 795 178 773 168 l 941 233 q 944 238 944 235 q 941 243 944 241 l 795 300 q 765 331 773 309 q 762 349 762 340 q 769 374 762 362 q 804 399 780 395 q 814 400 808 400 q 845 389 831 400 l 968 290 q 974 290 971 288 q 975 296 977 292 l 952 450 q 952 458 952 454 q 964 491 952 477 q 1003 510 979 510 q 1043 491 1027 510 q 1055 458 1055 477 q 1054 450 1055 454 l 1029 296 q 1033 290 1029 292 q 1039 290 1036 288 l 1161 388 q 1194 400 1176 400 q 1203 399 1198 400 q 1238 374 1227 395 q 1246 349 1246 362 q 1244 331 1246 340 q 1213 300 1236 309 l 1066 243 q 1062 238 1062 241 q 1066 233 1062 235 l 1213 178 q 1242 146 1236 168 q 1246 129 1246 137 q 1238 103 1246 115 q 1203 79 1226 83 q 1194 77 1198 77 q 1161 90 1176 77 l 1039 186 q 1033 186 1036 189 q 1029 180 1029 184 l 1054 26 q 1055 18 1055 22 q 1043 -15 1055 -1 q 1003 -34 1027 -34 q 964 -15 979 -34 q 952 18 952 0 q 952 26 952 22 l 975 182 z "},"":{"ha":656,"x_min":103,"x_max":564,"o":"m 221 313 q 138 348 172 313 q 103 431 103 382 l 103 439 q 138 523 103 488 q 221 557 172 557 l 446 557 q 530 523 495 557 q 564 439 564 488 l 564 431 q 530 348 564 382 q 446 313 495 313 l 221 313 z "},"":{"ha":990,"x_min":104,"x_max":895,"o":"m 841 1067 q 887 1040 872 1067 q 895 1015 895 1027 q 886 985 895 1000 l 309 92 q 245 31 285 53 q 159 9 205 9 q 113 37 127 9 q 104 62 104 50 q 114 92 104 77 l 690 985 q 755 1046 715 1024 q 841 1067 795 1067 z "},"":{"ha":699,"x_min":152,"x_max":598,"o":"m 338 -42 q 351 -56 338 -56 l 524 -56 q 576 -77 555 -56 q 598 -130 598 -99 q 576 -183 598 -161 q 524 -205 555 -205 l 270 -205 q 186 -170 221 -205 q 152 -87 152 -136 l 152 983 q 186 1067 152 1032 q 270 1101 221 1101 l 524 1101 q 576 1080 555 1101 q 598 1027 598 1058 q 576 974 598 996 q 524 952 555 952 l 351 952 q 338 939 338 952 l 338 532 q 351 518 338 518 l 529 518 q 578 498 557 518 q 598 448 598 477 q 578 399 598 419 q 529 378 557 378 l 351 378 q 338 365 338 378 l 338 -42 z "},"":{"ha":699,"x_min":110,"x_max":556,"o":"m 370 939 q 357 952 370 952 l 184 952 q 132 974 153 952 q 110 1027 110 996 q 132 1080 110 1058 q 184 1101 153 1101 l 438 1101 q 522 1067 487 1101 q 556 983 556 1032 l 556 -87 q 522 -170 556 -136 q 438 -205 487 -205 l 184 -205 q 132 -183 153 -205 q 110 -130 110 -161 q 132 -77 110 -99 q 184 -56 153 -56 l 357 -56 q 370 -42 370 -56 l 370 365 q 357 378 370 378 l 179 378 q 130 399 151 378 q 110 448 110 419 q 130 498 110 477 q 179 518 151 518 l 357 518 q 370 532 370 518 l 370 939 z "},"":{"ha":1389,"x_min":0,"x_max":0,"o":""},"":{"ha":1389,"x_min":99,"x_max":463,"o":"m 438 106 q 463 43 463 79 q 463 35 463 39 q 429 -33 460 -5 q 366 -56 401 -56 q 358 -54 362 -56 q 290 -22 317 -52 q 126 146 212 66 q 99 210 99 172 q 127 274 99 248 q 201 301 159 301 q 273 273 241 301 q 438 106 355 195 z "},"":{"ha":1389,"x_min":45,"x_max":494,"o":"m 269 345 q 428 279 362 345 q 494 120 494 213 q 428 -39 494 27 q 269 -106 362 -106 q 111 -39 176 -106 q 45 119 45 27 q 111 278 45 212 q 269 345 176 345 m 269 -4 q 357 32 320 -4 q 393 119 393 68 q 357 208 393 171 q 269 244 320 244 q 181 208 218 244 q 144 119 144 171 q 180 32 144 68 q 269 -4 217 -4 z "},"":{"ha":1389,"x_min":283,"x_max":1082,"o":"m 463 761 q 515 818 476 800 q 553 826 534 826 q 593 818 574 826 q 647 760 632 800 q 652 726 652 743 q 642 682 652 704 l 400 209 q 366 179 389 187 q 346 175 355 175 q 321 180 334 175 q 289 213 298 190 q 283 237 283 225 q 288 259 283 248 l 463 761 m 891 760 q 945 818 906 800 q 984 826 964 826 q 1023 818 1004 826 q 1077 760 1062 800 q 1082 726 1082 742 q 1072 681 1082 703 l 830 209 q 796 179 819 187 q 776 175 787 175 q 751 180 764 175 q 719 213 728 191 q 713 237 713 225 q 718 259 713 248 l 891 760 z "},"":{"ha":1389,"x_min":161,"x_max":1188,"o":"m 1053 844 q 1070 846 1062 846 q 1105 837 1089 846 l 1145 817 q 1183 772 1172 802 q 1188 743 1188 758 q 1183 715 1188 730 q 936 260 1089 481 q 939 241 928 248 q 1019 184 985 212 q 1057 118 1051 160 q 1057 104 1057 111 q 1035 42 1057 71 q 974 7 1013 11 q 964 7 970 7 q 906 28 932 7 q 532 267 755 153 q 494 316 502 283 q 491 334 491 324 q 506 374 491 355 q 564 415 528 406 q 593 419 579 419 q 636 410 614 419 q 762 346 699 380 q 781 351 773 340 q 958 666 882 495 q 956 674 959 670 q 949 678 954 678 l 579 678 q 559 666 566 678 q 338 332 454 465 q 271 298 312 302 q 258 298 264 298 q 195 316 225 298 q 161 365 167 332 q 161 377 161 372 q 180 423 161 403 q 374 697 288 540 q 515 1019 460 854 q 563 1077 528 1057 q 613 1092 586 1092 q 635 1089 624 1092 q 690 1047 673 1081 q 701 1008 701 1028 q 696 979 701 994 q 647 856 673 914 q 648 847 646 850 q 655 844 651 844 l 1047 844 q 1053 844 1050 844 z "},"":{"ha":1389,"x_min":198,"x_max":1202,"o":"m 1024 1042 q 1089 1080 1050 1073 q 1108 1082 1099 1082 q 1164 1065 1138 1082 q 1202 1008 1196 1044 q 1202 994 1202 1001 q 1183 941 1202 964 q 921 613 1072 810 q 924 595 913 602 q 1134 437 1038 513 q 1175 363 1171 408 q 1176 351 1176 357 q 1150 283 1176 313 q 1080 247 1123 250 q 1073 247 1076 247 q 1002 274 1032 247 q 802 437 922 345 q 783 434 791 445 q 500 60 659 273 q 423 -49 463 7 q 365 -95 401 -81 q 327 -100 346 -100 q 292 -95 309 -100 q 236 -52 256 -84 q 217 16 217 -20 l 217 22 q 198 300 214 156 q 198 312 198 305 q 216 363 198 340 q 271 397 236 392 q 283 399 278 399 q 332 381 311 399 q 362 324 359 359 q 365 269 362 309 q 369 209 368 228 q 372 205 369 206 q 377 206 376 203 q 501 367 414 254 q 636 543 589 480 q 633 560 644 553 q 433 694 528 637 q 392 750 399 713 q 391 766 391 760 q 410 818 391 795 q 480 857 437 850 q 499 859 490 859 q 557 841 530 859 q 753 715 670 772 q 772 718 764 707 q 1024 1042 979 983 z "},"":{"ha":1389,"x_min":57,"x_max":1332,"o":"m 107 279 q 57 528 57 397 q 107 776 57 658 q 243 979 157 894 q 446 1115 328 1065 q 694 1165 564 1165 q 943 1115 825 1165 q 1146 979 1061 1065 q 1282 776 1232 894 q 1332 528 1332 658 q 1282 279 1332 397 q 1146 76 1232 161 q 943 -60 1061 -9 q 694 -110 825 -110 q 446 -60 564 -110 q 243 76 328 -9 q 107 279 157 161 m 1099 294 q 1161 528 1161 401 q 1099 762 1161 654 q 928 932 1036 869 q 694 994 821 994 q 460 932 568 994 q 290 762 353 869 q 228 528 228 654 q 290 294 228 401 q 460 123 353 186 q 694 61 568 61 q 928 123 821 61 q 1099 294 1036 186 z "},"":{"ha":1389,"x_min":810,"x_max":1284,"o":"m 958 571 q 958 547 951 559 l 1275 27 q 1284 -5 1284 12 q 1282 -26 1284 -16 q 1245 -66 1272 -54 q 1211 -73 1229 -73 q 1184 -69 1198 -73 q 1137 -33 1154 -60 l 838 458 q 810 559 810 505 q 838 659 810 613 l 1137 1150 q 1184 1187 1154 1177 q 1211 1191 1198 1191 q 1245 1184 1229 1191 q 1282 1143 1272 1172 q 1284 1123 1284 1134 q 1275 1090 1284 1105 l 958 571 z "},"":{"ha":1389,"x_min":104,"x_max":579,"o":"m 252 -33 q 205 -69 235 -60 q 178 -73 191 -73 q 144 -66 160 -73 q 107 -26 117 -54 q 104 -5 104 -16 q 114 27 104 12 l 431 547 q 431 571 438 559 l 114 1090 q 104 1123 104 1105 q 107 1143 104 1134 q 144 1184 117 1172 q 178 1191 160 1191 q 205 1187 191 1191 q 252 1150 235 1177 l 551 659 q 579 559 579 613 q 551 458 579 505 l 252 -33 z "},"":{"ha":1389,"x_min":742,"x_max":1332,"o":"m 854 540 q 854 515 849 528 l 1088 -37 q 1092 -57 1092 -47 q 1086 -80 1092 -69 q 1054 -110 1077 -103 q 1034 -113 1043 -113 q 1005 -107 1020 -113 q 972 -72 982 -96 l 765 419 q 742 528 742 473 q 765 636 742 582 l 972 1127 q 1005 1162 982 1152 q 1034 1168 1020 1168 q 1054 1165 1043 1168 q 1086 1137 1077 1158 q 1092 1114 1092 1124 q 1088 1092 1092 1103 l 854 540 m 1093 540 q 1093 515 1088 528 l 1328 -35 q 1332 -57 1332 -46 q 1326 -80 1332 -69 q 1293 -110 1317 -103 q 1272 -113 1283 -113 q 1245 -106 1259 -113 q 1211 -72 1221 -95 l 1005 419 q 982 528 982 473 q 1005 636 982 582 l 1211 1127 q 1245 1162 1221 1152 q 1272 1168 1259 1168 q 1293 1165 1283 1168 q 1326 1135 1317 1158 q 1332 1112 1332 1124 q 1328 1090 1332 1101 l 1093 540 z "},"":{"ha":1389,"x_min":57,"x_max":647,"o":"m 416 -72 q 384 -107 407 -96 q 355 -113 369 -113 q 335 -110 346 -113 q 302 -80 312 -103 q 297 -57 297 -69 q 301 -37 297 -47 l 534 515 q 534 540 540 528 l 301 1092 q 297 1114 297 1103 q 302 1137 297 1124 q 335 1165 312 1158 q 355 1168 346 1168 q 384 1162 369 1168 q 416 1127 407 1152 l 624 636 q 647 528 647 582 q 624 419 647 473 l 416 -72 m 178 -72 q 144 -106 168 -95 q 117 -113 130 -113 q 96 -110 106 -113 q 62 -80 72 -103 q 57 -57 57 -69 q 61 -35 57 -46 l 296 515 q 296 540 301 528 l 61 1090 q 57 1112 57 1101 q 62 1135 57 1124 q 96 1165 72 1158 q 117 1168 106 1168 q 144 1162 130 1168 q 178 1127 168 1152 l 384 636 q 407 528 407 582 q 384 419 407 473 l 178 -72 z "},"":{"ha":1389,"x_min":890,"x_max":1350,"o":"m 890 378 l 890 1065 q 924 1148 890 1114 q 1008 1183 959 1183 l 1275 1183 q 1328 1161 1306 1183 q 1350 1108 1350 1139 q 1328 1055 1350 1077 q 1275 1034 1306 1034 l 1067 1034 q 1054 1020 1054 1034 l 1054 378 q 1030 320 1054 345 q 972 296 1006 296 q 914 320 939 296 q 890 378 890 345 z "},"":{"ha":1389,"x_min":39,"x_max":500,"o":"m 500 677 l 500 -9 q 466 -93 500 -58 q 382 -127 431 -127 l 114 -127 q 61 -106 83 -127 q 39 -53 39 -84 q 61 0 39 -22 q 114 22 83 22 l 321 22 q 335 35 335 22 l 335 677 q 359 735 335 711 q 417 760 382 760 q 476 735 452 760 q 500 677 500 711 z "},"":{"ha":1389,"x_min":833,"x_max":1350,"o":"m 1350 1054 q 1315 970 1350 1005 q 1232 936 1280 936 l 1114 936 q 1100 922 1100 936 l 1100 384 q 1065 300 1100 335 q 982 266 1031 266 l 951 266 q 867 300 902 266 q 833 384 833 335 l 833 1065 q 867 1148 833 1114 q 951 1183 902 1183 l 1232 1183 q 1315 1148 1280 1183 q 1350 1065 1350 1114 l 1350 1054 m 1289 1108 q 1275 1122 1289 1122 l 907 1122 q 894 1108 894 1122 l 894 340 q 907 327 894 327 l 1027 327 q 1040 340 1040 327 l 1040 879 q 1075 962 1040 928 q 1158 997 1109 997 l 1275 997 q 1289 1010 1289 997 l 1289 1108 z "},"":{"ha":1389,"x_min":39,"x_max":556,"o":"m 39 1 q 74 85 39 50 q 157 119 109 119 l 275 119 q 289 133 289 119 l 289 673 q 323 756 289 722 q 407 791 358 791 l 438 791 q 522 756 487 791 q 556 673 556 722 l 556 -9 q 522 -93 556 -58 q 438 -127 487 -127 l 157 -127 q 74 -93 109 -127 q 39 -9 39 -58 l 39 1 m 100 -53 q 114 -66 100 -66 l 481 -66 q 495 -53 495 -66 l 495 716 q 481 730 495 730 l 362 730 q 349 716 349 730 l 349 176 q 314 93 349 127 q 231 58 279 58 l 114 58 q 100 45 100 58 l 100 -53 z "},"":{"ha":1389,"x_min":917,"x_max":1350,"o":"m 917 1065 q 951 1148 917 1114 q 1035 1183 986 1183 l 1347 1183 q 1350 1179 1350 1183 q 1347 1175 1350 1176 q 1152 899 1227 1069 q 1076 528 1076 730 q 1152 156 1076 326 q 1347 -118 1227 -14 q 1350 -124 1350 -121 q 1347 -127 1350 -127 l 1035 -127 q 951 -93 986 -127 q 917 -9 917 -58 l 917 1065 z "},"":{"ha":1389,"x_min":39,"x_max":472,"o":"m 354 1183 q 437 1148 403 1183 q 472 1065 472 1114 l 472 -9 q 437 -93 472 -58 q 354 -127 403 -127 l 42 -127 q 39 -124 39 -127 q 42 -118 39 -121 q 237 156 161 -14 q 313 528 313 326 q 237 899 313 730 q 42 1175 161 1069 q 39 1179 39 1176 q 42 1183 39 1183 l 354 1183 z "},"":{"ha":1389,"x_min":229,"x_max":1160,"o":"m 302 1008 l 1086 1008 q 1138 987 1116 1008 q 1160 935 1160 966 q 1138 883 1160 905 q 1086 861 1116 861 l 302 861 q 251 883 273 861 q 229 935 229 905 q 251 987 229 966 q 302 1008 273 1008 m 302 699 l 1086 699 q 1138 677 1116 699 q 1160 625 1160 655 q 1138 573 1160 594 q 1086 552 1116 552 l 787 552 q 773 538 773 552 l 773 94 q 763 54 773 72 q 734 24 753 35 q 694 14 716 14 q 639 37 662 14 q 616 94 616 60 l 616 538 q 602 552 616 552 l 302 552 q 251 573 273 552 q 229 625 229 594 q 251 677 229 655 q 302 699 273 699 z "},"":{"ha":1389,"x_min":138,"x_max":1251,"o":"m 1133 1084 q 1216 1049 1181 1084 q 1251 966 1251 1015 l 1251 785 q 1216 701 1251 735 q 1133 667 1181 667 l 256 667 q 173 701 208 667 q 138 785 138 735 l 138 966 q 173 1049 138 1015 q 256 1084 208 1084 l 1133 1084 m 1133 389 q 1216 355 1181 389 q 1251 271 1251 320 l 1251 91 q 1216 7 1251 41 q 1133 -27 1181 -27 l 256 -27 q 173 7 208 -27 q 138 91 138 41 l 138 271 q 173 355 138 320 q 256 389 208 389 l 1133 389 z "},"":{"ha":1389,"x_min":963,"x_max":1331,"o":"m 1321 -90 q 1282 -118 1308 -113 q 1267 -119 1274 -119 q 1233 -110 1249 -119 l 1062 0 q 989 79 1016 30 q 963 182 963 127 l 963 873 q 989 977 963 929 q 1062 1055 1016 1025 l 1233 1165 q 1267 1176 1249 1176 q 1282 1173 1274 1176 q 1321 1145 1308 1168 q 1331 1112 1331 1130 q 1329 1096 1331 1104 q 1301 1055 1322 1070 l 1127 945 q 1115 924 1115 937 l 1115 132 q 1127 111 1115 118 l 1301 0 q 1329 -41 1322 -15 q 1331 -56 1331 -49 q 1321 -90 1331 -73 z "},"":{"ha":1389,"x_min":58,"x_max":426,"o":"m 426 182 q 399 79 426 127 q 327 0 373 30 l 156 -110 q 122 -119 140 -119 q 107 -118 115 -119 q 68 -90 81 -113 q 58 -56 58 -73 q 60 -41 58 -49 q 88 0 66 -15 l 262 111 q 274 132 274 118 l 274 924 q 262 945 274 937 l 88 1055 q 60 1096 66 1070 q 58 1112 58 1104 q 68 1145 58 1130 q 107 1173 81 1168 q 122 1176 115 1176 q 156 1165 140 1176 l 327 1055 q 399 977 373 1025 q 426 873 426 929 l 426 182 z "},"":{"ha":1389,"x_min":83,"x_max":1306,"o":"m 960 315 q 783 353 861 315 q 632 468 704 391 q 537 545 582 521 q 425 568 492 568 q 252 473 331 568 q 194 435 228 445 q 170 433 182 433 q 127 444 149 433 q 87 495 96 461 q 83 515 83 506 q 98 559 83 538 q 429 741 231 741 q 606 703 528 741 q 757 587 685 666 q 851 511 806 536 q 964 487 897 487 q 1137 582 1058 487 q 1195 620 1161 610 q 1219 623 1207 623 q 1261 613 1240 623 q 1302 560 1293 595 q 1306 540 1306 551 q 1291 498 1306 517 q 960 315 1158 315 z "},"":{"ha":932,"x_min":66,"x_max":859,"o":"m 77 538 q 98 587 77 568 q 148 606 118 606 l 281 606 q 302 655 282 635 q 346 673 320 673 q 388 654 370 671 q 406 606 406 633 l 766 606 q 818 587 796 606 q 837 538 837 568 q 817 490 837 509 q 766 471 796 471 l 406 471 l 406 406 l 639 406 q 768 372 720 403 q 838 296 817 342 q 859 202 859 250 q 831 92 859 153 q 756 7 804 31 q 646 -15 708 -16 l 637 -15 q 561 44 562 -19 q 628 110 560 107 l 652 110 q 692 125 671 110 q 719 163 712 140 q 726 203 726 186 q 719 237 726 221 q 699 267 712 254 q 666 281 685 279 l 602 281 q 564 146 591 210 q 478 44 533 83 q 362 1 423 5 l 266 1 q 156 31 205 0 q 87 107 107 61 q 66 202 66 153 q 87 296 66 250 q 157 372 109 342 q 269 406 205 403 l 281 406 l 281 471 l 148 471 q 98 491 118 471 q 77 538 77 509 m 431 156 q 467 220 454 183 q 481 281 476 248 l 406 281 l 406 136 q 431 156 420 144 m 259 281 q 227 267 240 279 q 206 237 213 254 q 199 203 199 221 q 206 169 199 186 q 227 139 213 152 q 259 126 240 126 l 281 126 l 281 281 l 259 281 z "},"":{"ha":1128,"x_min":68,"x_max":1058,"o":"m 81 673 q 107 734 81 709 q 170 758 133 758 l 336 758 q 362 818 338 793 q 416 841 385 841 q 469 817 448 840 q 492 758 491 792 l 943 758 q 1006 734 979 758 q 1031 673 1031 709 q 1005 612 1031 636 q 943 587 979 587 l 492 587 l 492 507 l 784 507 q 945 465 886 503 q 1031 370 1005 427 q 1058 252 1058 312 q 1024 115 1058 191 q 930 9 990 39 q 792 -19 869 -20 l 781 -19 q 686 55 686 -24 q 770 137 685 134 l 800 137 q 850 156 825 137 q 883 203 875 175 q 891 254 891 232 q 883 296 891 275 q 858 333 875 317 q 817 350 841 349 l 738 350 q 690 183 724 262 q 583 55 651 103 q 438 1 514 7 l 317 1 q 180 38 240 0 q 94 134 119 76 q 68 252 68 191 q 94 370 68 312 q 180 465 121 427 q 320 507 240 503 l 336 507 l 336 587 l 170 587 q 107 613 133 587 q 81 673 81 636 m 524 195 q 568 274 553 229 q 586 350 579 309 l 492 350 l 492 170 q 524 195 510 179 m 309 350 q 268 333 285 349 q 243 296 251 317 q 235 254 235 275 q 243 211 235 232 q 268 174 251 190 q 309 157 285 157 l 336 157 l 336 350 l 309 350 z "},"":{"ha":918,"x_min":85,"x_max":834,"o":"m 157 655 q 209 635 187 655 q 232 585 231 616 l 232 324 q 238 242 231 279 q 273 175 245 205 q 340 144 300 145 l 373 144 q 423 121 403 142 q 444 69 444 99 q 422 19 442 39 q 373 -1 403 -1 l 304 -1 q 178 50 228 3 q 107 165 129 96 q 85 311 87 233 l 85 585 q 107 635 87 614 q 157 655 127 655 m 762 46 q 711 66 732 46 q 688 117 689 85 l 688 321 q 682 404 689 366 q 647 470 674 441 q 579 502 620 499 l 547 502 q 496 525 517 503 q 476 576 476 547 q 497 626 477 606 q 547 647 517 646 l 616 647 q 741 595 692 643 q 812 480 791 548 q 834 335 833 411 l 834 117 q 812 67 833 87 q 762 46 792 47 z "},"":{"ha":1131,"x_min":100,"x_max":1036,"o":"m 190 825 q 255 800 228 825 q 283 736 282 774 l 283 410 q 291 307 282 354 q 334 224 300 260 q 419 184 368 187 l 460 184 q 523 156 498 183 q 548 91 548 129 q 522 29 547 54 q 460 3 496 4 l 373 3 q 216 67 278 8 q 127 212 155 126 q 100 393 102 297 l 100 736 q 127 798 102 773 q 190 825 153 823 m 947 62 q 882 87 909 62 q 853 151 854 113 l 853 407 q 846 509 854 463 q 803 593 837 556 q 718 632 769 629 l 677 632 q 614 661 639 633 q 589 726 589 688 q 615 787 590 762 q 677 814 640 812 l 764 814 q 920 749 859 808 q 1009 605 982 690 q 1036 423 1035 519 l 1036 151 q 1009 89 1035 114 q 947 62 983 64 z "},"":{"ha":921,"x_min":61,"x_max":857,"o":"m 174 568 q 195 621 174 600 q 247 642 217 642 l 699 642 q 750 621 728 642 q 770 568 770 600 q 749 517 770 538 q 699 496 728 496 l 247 496 q 195 518 217 496 q 174 568 174 538 m 61 343 q 82 395 61 373 q 134 416 103 416 l 620 416 q 633 415 627 416 l 640 415 q 765 377 716 412 q 836 298 814 342 q 857 208 857 254 q 836 117 857 161 q 765 37 814 72 q 640 1 716 1 l 273 1 q 222 23 243 1 q 201 75 201 43 q 222 125 201 104 q 273 146 243 146 l 646 146 q 681 157 667 146 q 701 181 694 167 q 707 209 707 195 q 701 235 707 221 q 681 260 694 250 q 646 270 667 270 l 134 270 q 83 292 103 270 q 61 343 61 313 z "},"":{"ha":1101,"x_min":60,"x_max":1054,"o":"m 201 712 q 227 777 201 750 q 292 803 254 803 l 856 803 q 921 777 894 803 q 947 712 947 750 q 920 648 947 674 q 856 621 894 621 l 292 621 q 228 648 254 621 q 201 712 201 674 m 60 430 q 86 494 60 468 q 151 521 113 521 l 758 521 q 774 519 766 521 l 783 519 q 939 473 878 517 q 1027 373 1000 429 q 1054 260 1054 317 q 1027 146 1054 202 q 939 47 1001 91 q 783 3 878 3 l 324 3 q 260 30 286 3 q 233 94 233 56 q 260 158 233 132 q 324 184 286 184 l 791 184 q 833 197 817 184 q 859 228 850 210 q 867 262 867 245 q 859 296 867 278 q 833 326 850 313 q 791 339 817 339 l 151 339 q 87 366 113 339 q 60 430 60 392 z "},"":{"ha":856,"x_min":52,"x_max":806,"o":"m 590 591 q 713 557 665 587 q 784 486 762 526 q 806 407 806 446 q 784 326 806 365 q 713 256 762 286 q 566 224 667 227 l 469 224 q 496 180 484 195 q 556 146 518 148 l 735 146 q 786 123 766 145 q 806 72 806 102 q 785 22 806 42 q 735 1 765 1 l 524 1 q 400 81 446 5 q 334 210 365 141 q 307 195 319 203 q 255 137 270 167 l 187 28 q 156 -1 174 9 q 109 -3 138 -11 q 66 33 80 7 q 61 88 52 60 q 72 113 64 102 l 144 229 q 261 338 213 312 q 372 370 309 365 l 609 370 q 635 376 625 370 q 650 391 646 382 q 655 408 655 399 q 650 423 655 415 q 635 438 646 431 q 609 446 625 445 l 141 446 q 90 468 111 446 q 68 518 68 488 q 90 570 68 549 q 141 591 111 591 l 361 591 l 361 601 q 382 651 361 631 q 435 671 404 671 q 485 650 464 670 q 507 601 506 631 l 507 591 l 590 591 z "},"":{"ha":1063,"x_min":56,"x_max":998,"o":"m 723 741 q 882 698 821 736 q 970 610 943 659 q 997 510 997 560 q 970 409 997 458 q 883 321 944 359 q 697 282 825 285 l 578 282 q 610 227 595 245 q 685 184 639 187 l 910 184 q 973 156 948 183 q 998 91 998 129 q 972 29 997 54 q 910 3 947 4 l 644 3 q 491 103 548 8 q 407 264 446 178 q 374 245 389 256 q 309 174 328 210 l 225 38 q 185 1 208 14 q 126 -1 163 -12 q 73 43 91 9 q 66 113 56 76 q 80 142 71 129 l 170 288 q 317 425 256 392 q 454 464 377 458 l 751 464 q 785 472 772 464 q 804 490 798 480 q 810 511 810 500 q 804 531 810 521 q 785 549 798 541 q 751 559 772 557 l 167 559 q 103 586 129 559 q 76 650 76 612 q 102 714 76 688 q 167 741 129 741 l 441 741 l 441 753 q 469 816 442 791 q 534 841 496 841 q 597 814 571 840 q 624 753 623 789 l 624 741 l 723 741 z "},"":{"ha":901,"x_min":58,"x_max":872,"o":"m 69 537 q 90 585 69 566 q 140 605 110 605 l 326 605 q 346 652 327 633 q 389 671 365 671 q 431 651 414 670 q 450 605 449 632 l 610 605 q 662 586 640 605 q 681 537 681 566 q 661 488 681 509 q 610 468 640 468 l 452 468 q 452 404 452 435 l 587 404 q 717 371 669 401 q 790 294 765 340 q 817 199 815 248 q 795 96 817 138 q 725 21 774 54 q 600 -12 675 -12 l 549 -12 q 499 8 519 -12 q 477 56 477 28 q 498 106 477 85 q 549 126 519 126 l 606 126 q 644 137 627 126 q 671 180 662 148 q 667 236 680 213 q 647 265 661 252 q 614 279 633 278 l 452 279 q 452 195 452 237 q 401 52 452 104 q 258 0 351 -3 q 148 29 197 -1 q 79 106 99 60 q 58 202 58 152 q 79 294 58 248 q 146 371 100 340 q 273 404 191 401 l 326 404 l 326 468 l 140 468 q 90 490 110 468 q 69 537 69 509 m 712 538 q 735 592 712 570 q 792 614 758 614 q 849 592 826 614 q 872 538 872 570 q 849 484 872 506 q 792 463 826 463 q 735 484 758 463 q 712 538 712 506 m 278 279 q 225 265 245 278 q 198 235 205 252 q 191 202 191 218 q 198 168 191 186 q 218 138 205 151 q 251 126 232 126 q 308 145 290 126 q 326 195 326 164 l 326 279 l 278 279 z "},"":{"ha":1120,"x_min":68,"x_max":1085,"o":"m 81 673 q 107 734 81 709 q 170 758 133 758 l 401 758 q 427 818 403 793 q 481 841 450 841 q 534 816 513 840 q 557 758 556 792 l 758 758 q 822 734 795 758 q 846 673 846 709 q 821 612 846 637 q 758 587 795 587 l 559 587 q 559 507 559 547 l 730 507 q 891 465 831 503 q 983 370 951 427 q 1016 251 1015 312 q 989 122 1016 175 q 901 28 963 69 q 745 -14 840 -14 l 682 -14 q 618 12 644 -14 q 591 72 591 37 q 618 134 591 109 q 682 159 644 159 l 753 159 q 800 173 779 159 q 833 228 822 187 q 829 297 844 269 q 804 334 821 317 q 762 351 787 350 l 559 351 q 559 245 559 298 q 496 66 559 133 q 317 1 434 -1 q 180 38 240 0 q 94 134 119 76 q 68 254 68 191 q 94 370 68 312 q 178 465 121 427 q 336 507 235 503 l 401 507 l 401 587 l 170 587 q 107 613 133 587 q 81 673 81 637 m 884 674 q 913 741 884 713 q 985 769 943 769 q 1056 741 1027 769 q 1085 674 1085 713 q 1056 607 1085 635 q 985 579 1027 579 q 913 607 943 579 q 884 674 884 635 m 342 351 q 276 334 301 350 q 243 296 251 317 q 235 255 235 275 q 243 212 235 233 q 268 174 251 190 q 309 159 285 159 q 380 183 358 159 q 401 245 401 208 l 401 351 l 342 351 z "},"":{"ha":1147,"x_min":41,"x_max":1120,"o":"m 574 754 q 730 690 669 754 q 818 546 791 627 q 845 381 845 465 q 819 216 845 297 q 730 72 792 136 q 574 3 669 8 l 509 3 q 447 29 472 4 q 420 91 422 54 q 446 156 420 129 q 509 184 471 183 l 528 184 q 615 220 582 187 q 663 296 648 254 q 678 381 678 338 q 662 467 678 425 q 611 542 646 509 q 528 572 576 575 l 429 572 l 429 393 q 401 212 427 297 q 313 67 374 126 q 156 3 251 8 l 129 3 q 67 29 92 4 q 41 91 42 54 q 66 156 41 129 q 129 184 91 183 q 195 224 161 187 q 238 307 229 260 q 245 410 247 354 l 245 572 l 145 572 q 57 661 64 579 q 82 726 57 699 q 145 754 107 753 l 245 754 q 274 817 247 791 q 339 841 301 841 q 401 815 376 840 q 429 754 427 789 l 574 754 m 876 823 q 944 825 910 837 q 994 779 978 812 l 1096 568 q 1050 452 1120 490 q 979 447 1015 435 q 928 494 944 458 l 826 705 q 827 774 812 741 q 876 823 841 808 z "},"":{"ha":1135,"x_min":41,"x_max":1131,"o":"m 574 754 q 730 690 669 754 q 818 546 791 627 q 845 381 845 465 q 819 216 845 297 q 730 72 792 136 q 574 3 669 8 l 509 3 q 447 29 472 4 q 420 91 422 54 q 446 156 420 129 q 509 184 471 183 l 528 184 q 615 220 582 187 q 663 296 648 254 q 678 381 678 338 q 662 467 678 425 q 611 542 646 509 q 528 572 576 575 l 429 572 l 429 393 q 401 212 427 297 q 313 67 374 126 q 156 3 251 8 l 129 3 q 67 29 92 4 q 41 91 42 54 q 66 156 41 129 q 129 184 91 183 q 195 224 161 187 q 238 307 229 260 q 245 410 247 354 l 245 572 l 145 572 q 57 661 64 579 q 82 726 57 699 q 145 754 107 753 l 245 754 q 274 817 247 791 q 339 841 301 841 q 401 815 376 840 q 429 754 427 789 l 574 754 m 925 704 q 993 705 959 718 q 1043 659 1027 693 l 1107 536 q 1061 419 1131 457 q 990 414 1025 403 q 939 461 955 426 l 875 586 q 876 655 861 621 q 925 704 890 689 m 667 852 q 696 921 667 892 q 765 949 724 949 q 834 921 806 949 q 863 852 863 892 q 834 783 863 811 q 765 754 806 754 q 696 783 724 754 q 667 852 667 811 m 901 852 q 929 921 901 892 q 998 949 958 949 q 1067 921 1039 949 q 1096 852 1096 892 q 1067 783 1096 811 q 998 754 1039 754 q 929 783 958 754 q 901 852 901 811 z "},"":{"ha":1100,"x_min":81,"x_max":1031,"o":"m 81 674 q 108 732 81 708 q 172 757 134 757 l 525 757 q 544 808 525 785 q 604 842 566 837 q 669 827 640 848 q 705 773 699 807 l 708 757 l 940 757 q 1005 734 978 757 q 1031 674 1031 708 q 1004 616 1031 640 q 940 591 978 591 l 735 591 l 746 530 l 940 530 q 1005 507 978 530 q 1031 448 1031 483 q 1004 389 1031 414 q 940 365 978 365 l 773 365 l 779 332 q 704 233 783 254 q 635 248 666 228 q 598 302 604 267 l 587 365 l 172 365 q 109 391 134 365 q 81 448 81 414 q 108 507 81 483 q 172 530 134 530 l 560 530 l 551 591 l 172 591 q 109 616 134 591 q 81 674 81 640 m 152 194 q 146 227 146 209 q 173 290 146 263 q 236 316 199 316 q 289 298 274 316 q 320 252 304 279 q 378 202 340 222 q 468 179 416 182 l 883 179 q 946 151 921 178 q 971 88 971 125 q 945 28 970 53 q 883 3 920 4 l 422 3 q 260 62 326 8 q 174 157 195 117 l 152 194 z "},"":{"ha":1100,"x_min":81,"x_max":1139,"o":"m 711 890 q 739 959 711 930 q 808 987 768 987 q 878 959 849 987 q 906 890 906 930 q 878 821 906 849 q 808 792 849 792 q 739 821 768 792 q 711 890 711 849 m 944 890 q 972 959 944 930 q 1042 987 1001 987 q 1111 959 1082 987 q 1139 890 1139 930 q 1111 821 1139 849 q 1042 792 1082 792 q 972 821 1001 792 q 944 890 944 849 m 81 674 q 108 732 81 708 q 172 757 134 757 l 525 757 q 544 808 525 785 q 604 842 566 837 q 669 827 640 848 q 705 773 699 807 l 708 757 l 940 757 q 1005 734 978 757 q 1031 674 1031 708 q 1004 616 1031 640 q 940 591 978 591 l 735 591 l 746 530 l 940 530 q 1005 507 978 530 q 1031 448 1031 483 q 1004 389 1031 414 q 940 365 978 365 l 773 365 l 779 332 q 704 233 783 254 q 635 248 666 228 q 598 302 604 267 l 587 365 l 172 365 q 109 391 134 365 q 81 448 81 414 q 108 507 81 483 q 172 530 134 530 l 560 530 l 551 591 l 172 591 q 109 616 134 591 q 81 674 81 640 m 152 194 q 146 227 146 209 q 173 290 146 263 q 236 316 199 316 q 289 298 274 316 q 320 252 304 279 q 378 202 340 222 q 468 179 416 182 l 883 179 q 946 151 921 178 q 971 88 971 125 q 945 28 970 53 q 883 3 920 4 l 422 3 q 260 62 326 8 q 174 157 195 117 l 152 194 z "},"":{"ha":1073,"x_min":92,"x_max":991,"o":"m 189 239 q 92 404 94 296 q 189 567 94 511 q 453 680 285 623 l 872 811 q 903 818 886 817 q 966 796 940 821 q 991 732 991 772 q 973 669 991 689 q 928 635 955 648 l 547 524 q 431 487 486 505 q 331 445 377 469 q 278 404 283 427 q 330 359 283 380 q 431 320 377 338 q 547 283 486 302 l 928 170 q 973 136 955 156 q 991 75 991 115 q 966 11 991 35 q 903 -11 940 -14 q 872 -4 886 -9 l 453 127 q 189 239 288 184 z "},"":{"ha":1192,"x_min":92,"x_max":1169,"o":"m 741 456 q 769 525 741 496 q 838 553 798 553 q 907 525 879 553 q 936 456 936 496 q 907 387 936 415 q 838 358 879 358 q 769 387 798 358 q 741 456 741 415 m 974 456 q 1002 525 974 496 q 1072 553 1031 553 q 1141 525 1112 553 q 1169 456 1169 496 q 1141 387 1169 415 q 1072 358 1112 358 q 1002 387 1031 358 q 974 456 974 415 m 189 239 q 92 404 94 296 q 189 567 94 511 q 453 680 285 623 l 872 811 q 903 818 886 817 q 966 796 940 821 q 991 732 991 772 q 973 669 991 689 q 928 635 955 648 l 547 524 q 431 487 486 505 q 331 445 377 469 q 278 404 283 427 q 330 359 283 380 q 431 320 377 338 q 547 283 486 302 l 928 170 q 973 136 955 156 q 991 75 991 115 q 966 11 991 35 q 903 -11 940 -14 q 872 -4 886 -9 l 453 127 q 189 239 288 184 z "},"":{"ha":1221,"x_min":100,"x_max":1169,"o":"m 892 841 q 955 814 929 840 q 982 753 981 789 l 982 743 l 1078 743 q 1143 718 1116 743 q 1169 652 1169 690 q 1143 588 1169 614 q 1078 562 1116 562 l 982 562 l 982 393 q 955 212 981 297 q 866 67 928 126 q 709 3 804 8 l 557 3 q 496 29 521 4 q 469 91 471 54 q 494 156 469 129 q 557 184 519 183 l 663 184 q 749 224 715 187 q 791 307 783 260 q 799 410 800 354 l 799 562 l 471 562 q 407 589 433 562 q 380 652 380 614 q 406 717 380 690 q 471 743 433 743 l 799 743 l 799 753 q 827 816 800 791 q 892 841 854 841 m 190 825 q 255 800 228 825 q 283 736 282 774 l 283 262 q 319 125 283 203 q 318 57 334 91 q 269 7 302 23 q 151 52 190 -19 q 100 267 102 164 l 100 736 q 127 798 102 773 q 190 825 153 823 z "},"":{"ha":1179,"x_min":100,"x_max":1169,"o":"m 678 968 q 707 1038 678 1009 q 776 1066 735 1066 q 845 1038 817 1066 q 873 968 873 1009 q 845 899 873 928 q 776 871 817 871 q 707 899 735 871 q 678 968 678 928 m 911 968 q 940 1038 911 1009 q 1009 1066 968 1066 q 1078 1038 1050 1066 q 1107 968 1107 1009 q 1078 899 1107 928 q 1009 871 1050 871 q 940 899 968 871 q 911 968 911 928 m 892 841 q 955 814 929 840 q 982 753 981 789 l 982 743 l 1078 743 q 1143 718 1116 743 q 1169 652 1169 690 q 1143 588 1169 614 q 1078 562 1116 562 l 982 562 l 982 393 q 955 212 981 297 q 866 67 928 126 q 709 3 804 8 l 557 3 q 496 29 521 4 q 469 91 471 54 q 494 156 469 129 q 557 184 519 183 l 663 184 q 749 224 715 187 q 791 307 783 260 q 799 410 800 354 l 799 562 l 471 562 q 407 589 433 562 q 380 652 380 614 q 406 717 380 690 q 471 743 433 743 l 799 743 l 799 753 q 827 816 800 791 q 892 841 854 841 m 190 825 q 255 800 228 825 q 283 736 282 774 l 283 262 q 319 125 283 203 q 318 57 334 91 q 269 7 302 23 q 151 52 190 -19 q 100 267 102 164 l 100 736 q 127 798 102 773 q 190 825 153 823 z "},"":{"ha":1038,"x_min":69,"x_max":979,"o":"m 979 94 q 953 29 979 56 q 888 3 926 3 l 365 3 q 349 4 357 3 l 340 4 q 184 47 245 7 q 96 140 123 88 q 69 245 69 193 q 110 365 69 300 q 209 444 151 430 q 297 410 267 457 q 294 324 327 362 q 259 273 262 286 q 256 245 256 259 q 264 219 256 232 q 290 196 273 206 q 332 184 307 186 l 888 184 q 952 157 926 184 q 979 94 979 132 m 109 712 q 135 777 109 750 q 199 803 161 803 l 856 803 q 921 777 894 803 q 947 712 947 750 q 920 648 947 674 q 856 621 894 621 l 199 621 q 136 648 161 621 q 109 712 109 674 z "},"":{"ha":1038,"x_min":69,"x_max":979,"o":"m 510 955 q 538 1024 510 996 q 608 1053 567 1053 q 677 1024 648 1053 q 705 955 705 996 q 677 886 705 914 q 608 857 648 857 q 538 886 567 857 q 510 955 510 914 m 743 955 q 772 1024 743 996 q 841 1053 800 1053 q 910 1024 882 1053 q 939 955 939 996 q 910 886 939 914 q 841 857 882 857 q 772 886 800 857 q 743 955 743 914 m 979 94 q 953 29 979 56 q 888 3 926 3 l 365 3 q 349 4 357 3 l 340 4 q 184 47 245 7 q 96 140 123 88 q 69 245 69 193 q 110 365 69 300 q 209 444 151 430 q 297 410 267 457 q 294 324 327 362 q 259 273 262 286 q 256 245 256 259 q 264 219 256 232 q 290 196 273 206 q 332 184 307 186 l 888 184 q 952 157 926 184 q 979 94 979 132 m 109 712 q 135 777 109 750 q 199 803 161 803 l 856 803 q 921 777 894 803 q 947 712 947 750 q 920 648 947 674 q 856 621 894 621 l 199 621 q 136 648 161 621 q 109 712 109 674 z "},"":{"ha":1112,"x_min":81,"x_max":1031,"o":"m 81 631 q 108 689 81 665 q 172 713 134 713 l 536 713 l 530 745 q 549 808 526 780 q 609 844 572 837 q 675 827 646 848 q 711 773 704 807 l 720 713 l 940 713 q 1005 690 978 713 q 1031 631 1031 665 q 1004 572 1031 597 q 940 548 978 548 l 747 548 l 773 392 q 699 293 777 312 q 629 307 661 286 q 591 362 598 327 l 562 548 l 172 548 q 109 572 134 548 q 81 631 81 597 m 338 313 q 321 262 321 278 q 330 228 321 245 q 355 197 338 210 q 397 184 372 184 l 864 184 q 928 158 902 184 q 955 94 955 132 q 928 30 955 56 q 864 3 902 3 l 406 3 q 249 47 311 3 q 161 146 187 91 q 134 260 134 202 q 161 373 134 317 q 239 453 189 429 q 341 431 289 477 q 338 313 393 385 z "},"":{"ha":1141,"x_min":81,"x_max":1183,"o":"m 754 863 q 783 932 754 903 q 852 960 811 960 q 921 932 892 960 q 949 863 949 903 q 921 793 949 822 q 852 765 892 765 q 783 793 811 765 q 754 863 754 822 m 987 863 q 1016 932 987 903 q 1085 960 1044 960 q 1154 932 1126 960 q 1183 863 1183 903 q 1154 793 1183 822 q 1085 765 1126 765 q 1016 793 1044 765 q 987 863 987 822 m 81 631 q 108 689 81 665 q 172 713 134 713 l 536 713 l 530 745 q 549 808 526 780 q 609 844 572 837 q 675 827 646 848 q 711 773 704 807 l 720 713 l 940 713 q 1005 690 978 713 q 1031 631 1031 665 q 1004 572 1031 597 q 940 548 978 548 l 747 548 l 773 392 q 699 293 777 312 q 629 307 661 286 q 591 362 598 327 l 562 548 l 172 548 q 109 572 134 548 q 81 631 81 597 m 338 313 q 321 262 321 278 q 330 228 321 245 q 355 197 338 210 q 397 184 372 184 l 864 184 q 928 158 902 184 q 955 94 955 132 q 928 30 955 56 q 864 3 902 3 l 406 3 q 249 47 311 3 q 161 146 187 91 q 134 260 134 202 q 161 373 134 317 q 239 453 189 429 q 341 431 289 477 q 338 313 393 385 z "},"":{"ha":1055,"x_min":104,"x_max":968,"o":"m 537 -28 q 398 -12 467 -28 q 267 36 330 4 q 157 121 205 68 q 104 247 109 174 l 104 304 l 104 736 q 194 825 113 818 q 260 800 232 825 q 288 736 288 774 l 288 289 q 319 219 290 247 q 385 175 349 191 q 459 151 420 159 q 537 142 498 142 q 615 151 576 142 q 690 175 654 159 q 755 219 726 191 q 787 289 784 247 l 787 324 q 875 412 793 406 q 941 387 913 412 q 968 324 968 362 l 968 304 l 968 247 q 917 121 964 174 q 807 36 869 68 q 676 -12 745 4 q 537 -28 608 -28 z "},"":{"ha":1085,"x_min":104,"x_max":968,"o":"m 537 727 q 566 796 537 768 q 635 825 594 825 q 704 796 675 825 q 732 727 732 768 q 704 658 732 686 q 635 629 675 629 q 566 658 594 629 q 537 727 537 686 m 770 727 q 799 796 770 768 q 868 825 827 825 q 937 796 909 825 q 966 727 966 768 q 937 658 966 686 q 868 629 909 629 q 799 658 827 629 q 770 727 770 686 m 537 -28 q 398 -12 467 -28 q 267 36 330 4 q 157 121 205 68 q 104 247 109 174 l 104 304 l 104 736 q 194 825 113 818 q 260 800 232 825 q 288 736 288 774 l 288 289 q 319 219 290 247 q 385 175 349 191 q 459 151 420 159 q 537 142 498 142 q 615 151 576 142 q 690 175 654 159 q 755 219 726 191 q 787 289 784 247 l 787 324 q 875 412 793 406 q 941 387 913 412 q 968 324 968 362 l 968 304 l 968 247 q 917 121 964 174 q 807 36 869 68 q 676 -12 745 4 q 537 -28 608 -28 z "},"":{"ha":1120,"x_min":81,"x_max":1042,"o":"m 81 674 q 108 732 81 708 q 172 757 134 757 l 688 757 q 716 817 690 792 q 781 841 743 841 q 844 815 818 840 q 871 757 868 791 l 951 757 q 1016 734 989 757 q 1042 674 1042 708 q 1015 614 1042 639 q 951 590 989 590 l 871 590 l 871 72 q 781 -16 863 -9 q 715 9 743 -16 q 688 72 688 34 l 688 104 q 578 73 640 76 l 464 73 q 283 117 345 77 q 195 207 222 156 q 168 309 168 258 q 195 414 168 363 q 283 504 221 464 q 439 545 345 544 l 602 545 q 688 519 648 545 l 688 590 l 172 590 q 109 614 134 590 q 81 674 81 639 m 434 389 q 389 376 408 389 q 361 345 370 363 q 353 309 353 327 q 361 275 353 293 q 389 243 370 256 q 434 229 408 229 l 608 229 q 652 243 633 229 q 681 275 671 256 q 688 296 685 286 l 688 323 q 681 346 685 334 q 652 376 671 363 q 608 389 633 389 l 434 389 z "},"":{"ha":1093,"x_min":81,"x_max":1042,"o":"m 559 955 q 587 1024 559 996 q 656 1053 616 1053 q 726 1024 697 1053 q 754 955 754 996 q 726 886 754 914 q 656 857 697 857 q 587 886 616 857 q 559 955 559 914 m 792 955 q 821 1024 792 996 q 890 1053 849 1053 q 959 1024 930 1053 q 987 955 987 996 q 959 886 987 914 q 890 857 930 857 q 821 886 849 857 q 792 955 792 914 m 81 674 q 108 732 81 708 q 172 757 134 757 l 688 757 q 716 817 690 792 q 781 841 743 841 q 844 815 818 840 q 871 757 868 791 l 951 757 q 1016 734 989 757 q 1042 674 1042 708 q 1015 614 1042 639 q 951 590 989 590 l 871 590 l 871 72 q 781 -16 863 -9 q 715 9 743 -16 q 688 72 688 34 l 688 104 q 578 73 640 76 l 464 73 q 283 117 345 77 q 195 207 222 156 q 168 309 168 258 q 195 414 168 363 q 283 504 221 464 q 439 545 345 544 l 602 545 q 688 519 648 545 l 688 590 l 172 590 q 109 614 134 590 q 81 674 81 639 m 434 389 q 389 376 408 389 q 361 345 370 363 q 353 309 353 327 q 361 275 353 293 q 389 243 370 256 q 434 229 408 229 l 608 229 q 652 243 633 229 q 681 275 671 256 q 688 296 685 286 l 688 323 q 681 346 685 334 q 652 376 671 363 q 608 389 633 389 l 434 389 z "},"":{"ha":1181,"x_min":60,"x_max":1128,"o":"m 320 841 q 385 816 358 841 q 414 753 412 791 l 414 738 l 772 738 l 772 753 q 800 816 773 791 q 865 841 827 841 q 928 814 902 840 q 955 753 954 789 l 955 738 l 1038 738 q 1103 712 1076 738 q 1128 647 1128 685 q 1102 583 1128 609 q 1038 556 1076 556 l 955 556 q 867 362 956 433 q 682 285 777 290 l 595 285 q 534 311 559 286 q 507 373 509 336 q 532 438 507 411 q 595 467 557 465 l 636 467 q 731 494 693 469 q 772 556 765 515 l 414 556 l 414 410 q 421 307 412 354 q 464 224 430 260 q 549 184 498 187 l 929 184 q 992 156 967 183 q 1017 91 1017 129 q 991 29 1016 54 q 929 3 966 4 l 503 3 q 347 67 408 8 q 258 212 285 126 q 231 393 232 297 l 231 556 l 151 556 q 87 583 113 556 q 60 647 60 609 q 86 711 60 685 q 151 738 113 738 l 231 738 l 231 753 q 258 814 232 789 q 320 841 283 840 z "},"":{"ha":1181,"x_min":60,"x_max":1128,"o":"m 648 960 q 677 1029 648 1001 q 746 1058 705 1058 q 815 1029 787 1058 q 844 960 844 1001 q 815 891 844 920 q 746 863 787 863 q 677 891 705 863 q 648 960 648 920 m 882 960 q 910 1029 882 1001 q 979 1058 939 1058 q 1048 1029 1020 1058 q 1077 960 1077 1001 q 1048 891 1077 920 q 979 863 1020 863 q 910 891 939 863 q 882 960 882 920 m 320 841 q 385 816 358 841 q 414 753 412 791 l 414 738 l 772 738 l 772 753 q 800 816 773 791 q 865 841 827 841 q 928 814 902 840 q 955 753 954 789 l 955 738 l 1038 738 q 1103 712 1076 738 q 1128 647 1128 685 q 1102 583 1128 609 q 1038 556 1076 556 l 955 556 q 867 362 956 433 q 682 285 777 290 l 595 285 q 534 311 559 286 q 507 373 509 336 q 532 438 507 411 q 595 467 557 465 l 636 467 q 731 494 693 469 q 772 556 765 515 l 414 556 l 414 410 q 421 307 412 354 q 464 224 430 260 q 549 184 498 187 l 929 184 q 992 156 967 183 q 1017 91 1017 129 q 991 29 1016 54 q 929 3 966 4 l 503 3 q 347 67 408 8 q 258 212 285 126 q 231 393 232 297 l 231 556 l 151 556 q 87 583 113 556 q 60 647 60 609 q 86 711 60 685 q 151 738 113 738 l 231 738 l 231 753 q 258 814 232 789 q 320 841 283 840 z "},"":{"ha":1057,"x_min":60,"x_max":1009,"o":"m 60 406 q 86 470 60 444 q 151 496 113 496 l 469 496 l 613 632 l 216 632 q 152 658 178 632 q 125 718 125 682 q 151 778 125 753 q 216 803 178 803 l 842 803 q 907 779 880 803 q 933 718 933 753 q 922 675 933 694 l 718 496 l 918 496 q 983 471 956 496 q 1009 406 1009 444 q 983 341 1009 368 q 918 315 956 315 l 460 315 q 418 302 434 313 q 392 275 400 292 q 384 248 384 258 q 392 219 384 233 q 417 194 400 205 q 460 184 434 183 l 821 184 q 884 157 859 184 q 911 94 911 132 q 885 29 911 56 q 821 3 859 3 l 449 3 q 233 98 313 4 q 220 315 152 191 l 151 315 q 87 342 113 315 q 60 406 60 368 z "},"":{"ha":1057,"x_min":60,"x_max":1031,"o":"m 602 955 q 631 1024 602 996 q 700 1053 659 1053 q 769 1024 741 1053 q 798 955 798 996 q 769 886 798 914 q 700 857 741 857 q 631 886 659 857 q 602 955 602 914 m 836 955 q 864 1024 836 996 q 933 1053 892 1053 q 1002 1024 974 1053 q 1031 955 1031 996 q 1002 886 1031 914 q 933 857 974 857 q 864 886 892 857 q 836 955 836 914 m 60 406 q 86 470 60 444 q 151 496 113 496 l 469 496 l 613 632 l 216 632 q 152 658 178 632 q 125 718 125 682 q 151 778 125 753 q 216 803 178 803 l 842 803 q 907 779 880 803 q 933 718 933 753 q 922 675 933 694 l 718 496 l 918 496 q 983 471 956 496 q 1009 406 1009 444 q 983 341 1009 368 q 918 315 956 315 l 460 315 q 418 302 434 313 q 392 275 400 292 q 384 248 384 258 q 392 219 384 233 q 417 194 400 205 q 460 184 434 183 l 821 184 q 884 157 859 184 q 911 94 911 132 q 885 29 911 56 q 821 3 859 3 l 449 3 q 233 98 313 4 q 220 315 152 191 l 151 315 q 87 342 113 315 q 60 406 60 368 z "},"":{"ha":1128,"x_min":71,"x_max":1069,"o":"m 376 850 q 433 813 412 842 q 449 749 454 784 l 448 743 l 636 743 q 701 719 674 743 q 727 656 727 692 q 701 595 727 621 l 967 595 q 1032 571 1005 595 q 1058 509 1058 544 q 1031 447 1058 472 q 967 422 1005 422 l 671 422 q 608 446 633 422 q 581 509 581 472 q 605 568 581 543 l 418 568 l 330 61 q 227 -11 308 -18 q 165 26 189 -4 q 149 92 142 56 l 232 568 l 161 568 q 98 594 123 568 q 71 656 71 621 q 97 718 71 692 q 161 743 123 743 l 262 743 l 269 780 q 308 837 277 817 q 376 850 339 857 m 439 194 q 434 227 434 209 q 460 290 434 263 q 524 316 487 316 q 576 298 562 316 q 608 252 591 279 q 666 202 628 222 q 755 179 704 182 l 981 179 q 1044 151 1019 178 q 1069 88 1069 125 q 1042 28 1067 53 q 981 3 1017 4 l 709 3 q 548 62 613 8 q 461 157 483 117 l 439 194 z "},"":{"ha":1171,"x_min":71,"x_max":1177,"o":"m 749 754 q 777 823 749 795 q 846 852 806 852 q 916 823 887 852 q 944 754 944 795 q 916 685 944 713 q 846 656 887 656 q 777 685 806 656 q 749 754 749 713 m 982 754 q 1010 823 982 795 q 1080 852 1039 852 q 1149 823 1120 852 q 1177 754 1177 795 q 1149 685 1177 713 q 1080 656 1120 656 q 1010 685 1039 656 q 982 754 982 713 m 376 850 q 433 813 412 842 q 449 749 454 784 l 448 743 l 636 743 q 701 719 674 743 q 727 656 727 692 q 701 595 727 621 l 967 595 q 1032 571 1005 595 q 1058 509 1058 544 q 1031 447 1058 472 q 967 422 1005 422 l 671 422 q 608 446 633 422 q 581 509 581 472 q 605 568 581 543 l 418 568 l 330 61 q 227 -11 308 -18 q 165 26 189 -4 q 149 92 142 56 l 232 568 l 161 568 q 98 594 123 568 q 71 656 71 621 q 97 718 71 692 q 161 743 123 743 l 262 743 l 269 780 q 308 837 277 817 q 376 850 339 857 m 439 194 q 434 227 434 209 q 460 290 434 263 q 524 316 487 316 q 576 298 562 316 q 608 252 591 279 q 666 202 628 222 q 755 179 704 182 l 981 179 q 1044 151 1019 178 q 1069 88 1069 125 q 1042 28 1067 53 q 981 3 1017 4 l 709 3 q 548 62 613 8 q 461 157 483 117 l 439 194 z "},"":{"ha":1078,"x_min":81,"x_max":1031,"o":"m 81 669 q 108 727 81 703 q 172 751 134 751 l 278 751 l 282 773 q 318 827 289 807 q 384 844 347 848 q 444 808 420 837 q 463 751 464 783 l 940 751 q 1005 728 978 751 q 1031 669 1031 703 q 1004 610 1031 635 q 940 586 978 586 l 435 586 l 419 490 l 696 490 q 712 488 704 490 l 720 488 q 876 444 815 486 q 964 351 937 403 q 991 244 991 298 q 965 138 991 190 q 877 44 939 85 q 720 3 815 3 l 300 3 q 236 30 262 3 q 209 96 209 57 q 235 161 209 134 q 300 189 262 189 l 746 189 q 779 198 766 189 q 798 220 792 208 q 804 247 804 233 q 798 271 804 258 q 779 293 792 283 q 746 304 766 302 l 313 304 q 234 340 256 304 q 222 430 212 377 l 250 586 l 172 586 q 109 610 134 586 q 81 669 81 635 z "},"":{"ha":1078,"x_min":81,"x_max":1034,"o":"m 605 898 q 633 967 605 939 q 703 996 662 996 q 772 967 743 996 q 800 898 800 939 q 772 829 800 857 q 703 800 743 800 q 633 829 662 800 q 605 898 605 857 m 838 898 q 867 967 838 939 q 936 996 895 996 q 1005 967 977 996 q 1034 898 1034 939 q 1005 829 1034 857 q 936 800 977 800 q 867 829 895 800 q 838 898 838 857 m 81 669 q 108 727 81 703 q 172 751 134 751 l 278 751 l 282 773 q 318 827 289 807 q 384 844 347 848 q 444 808 420 837 q 463 751 464 783 l 940 751 q 1005 728 978 751 q 1031 669 1031 703 q 1004 610 1031 635 q 940 586 978 586 l 435 586 l 419 490 l 696 490 q 712 488 704 490 l 720 488 q 876 444 815 486 q 964 351 937 403 q 991 244 991 298 q 965 138 991 190 q 877 44 939 85 q 720 3 815 3 l 300 3 q 236 30 262 3 q 209 96 209 57 q 235 161 209 134 q 300 189 262 189 l 746 189 q 779 198 766 189 q 798 220 792 208 q 804 247 804 233 q 798 271 804 258 q 779 293 792 283 q 746 304 766 302 l 313 304 q 234 340 256 304 q 222 430 212 377 l 250 586 l 172 586 q 109 610 134 586 q 81 669 81 635 z "},"":{"ha":848,"x_min":56,"x_max":765,"o":"m 510 496 l 130 496 q 78 516 100 496 q 56 567 56 536 q 130 642 62 635 l 528 642 l 548 642 q 646 607 604 640 q 715 526 689 574 q 753 427 741 479 q 765 321 765 374 q 743 181 765 250 q 673 59 722 113 q 548 1 624 5 l 499 1 l 244 1 q 191 22 213 1 q 168 72 170 42 q 244 146 175 140 l 510 146 q 580 178 552 149 q 619 244 608 206 q 631 321 631 282 q 619 398 631 361 q 580 465 608 435 q 510 496 552 494 z "},"":{"ha":1074,"x_min":73,"x_max":972,"o":"m 655 621 l 167 621 q 101 646 129 621 q 73 709 73 671 q 167 803 81 795 l 677 803 l 703 803 q 825 760 772 802 q 911 659 879 718 q 958 534 943 600 q 972 403 972 469 q 946 228 972 313 q 859 75 920 142 q 703 3 798 8 l 640 3 l 416 3 q 351 28 378 3 q 323 91 324 53 q 416 184 331 176 l 655 184 q 742 223 707 187 q 791 307 777 259 q 806 403 806 354 q 791 498 806 452 q 741 582 776 545 q 655 621 707 618 z "},"":{"ha":1074,"x_min":73,"x_max":990,"o":"m 562 955 q 590 1024 562 996 q 659 1053 618 1053 q 728 1024 700 1053 q 757 955 757 996 q 728 886 757 914 q 659 857 700 857 q 590 886 618 857 q 562 955 562 914 m 795 955 q 823 1024 795 996 q 892 1053 852 1053 q 962 1024 933 1053 q 990 955 990 996 q 962 886 990 914 q 892 857 933 857 q 823 886 852 857 q 795 955 795 914 m 655 621 l 167 621 q 101 646 129 621 q 73 709 73 671 q 167 803 81 795 l 677 803 l 703 803 q 825 760 772 802 q 911 659 879 718 q 958 534 943 600 q 972 403 972 469 q 946 228 972 313 q 859 75 920 142 q 703 3 798 8 l 640 3 l 416 3 q 351 28 378 3 q 323 91 324 53 q 416 184 331 176 l 655 184 q 742 223 707 187 q 791 307 777 259 q 806 403 806 354 q 791 498 806 452 q 741 582 776 545 q 655 621 707 618 z "},"":{"ha":1027,"x_min":71,"x_max":966,"o":"m 71 712 q 97 777 71 750 q 161 803 123 803 l 686 803 l 772 803 l 872 803 q 966 709 958 795 q 938 646 966 671 q 872 621 910 621 l 772 621 l 643 621 q 553 582 591 618 q 494 498 514 545 q 468 403 473 452 q 474 307 463 354 q 530 223 486 259 q 625 184 574 187 l 791 184 q 884 91 876 176 q 856 28 883 53 q 791 3 829 3 l 635 3 q 410 75 484 8 q 305 228 335 142 q 285 403 275 313 q 368 608 297 536 q 382 621 374 614 l 161 621 q 98 648 123 621 q 71 712 71 674 z "},"":{"ha":1025,"x_min":71,"x_max":966,"o":"m 534 955 q 563 1024 534 996 q 632 1053 591 1053 q 701 1024 673 1053 q 730 955 730 996 q 701 886 730 914 q 632 857 673 857 q 563 886 591 857 q 534 955 534 914 m 768 955 q 796 1024 768 996 q 865 1053 825 1053 q 935 1024 906 1053 q 963 955 963 996 q 935 886 963 914 q 865 857 906 857 q 796 886 825 857 q 768 955 768 914 m 71 712 q 97 777 71 750 q 161 803 123 803 l 686 803 l 772 803 l 872 803 q 966 709 958 795 q 938 646 966 671 q 872 621 910 621 l 772 621 l 643 621 q 553 582 591 618 q 494 498 514 545 q 468 403 473 452 q 474 307 463 354 q 530 223 486 259 q 625 184 574 187 l 791 184 q 884 91 876 176 q 856 28 883 53 q 791 3 829 3 l 635 3 q 410 75 484 8 q 305 228 335 142 q 285 403 275 313 q 368 608 297 536 q 382 621 374 614 l 161 621 q 98 648 123 621 q 71 712 71 674 z "},"":{"ha":1042,"x_min":80,"x_max":977,"o":"m 971 538 q 944 471 971 499 q 880 444 918 444 l 343 444 q 300 420 317 442 q 275 372 283 399 q 267 317 267 345 q 275 262 267 289 q 300 213 283 235 q 343 191 317 191 l 886 191 q 950 164 924 191 q 977 96 977 137 q 949 31 977 57 q 886 3 924 3 l 351 3 q 195 54 256 1 q 106 175 133 107 q 80 316 80 243 q 107 454 80 387 q 195 575 134 522 q 351 631 256 628 l 359 631 q 376 632 368 632 l 397 632 l 397 758 q 426 821 399 796 q 491 846 453 846 q 553 820 528 845 q 581 758 579 795 l 581 632 l 880 632 q 945 605 918 632 q 971 538 971 578 z "},"":{"ha":1004,"x_min":80,"x_max":1063,"o":"m 635 776 q 663 845 635 817 q 732 873 692 873 q 802 845 773 873 q 830 776 830 817 q 802 707 830 735 q 732 678 773 678 q 663 707 692 678 q 635 776 635 735 m 868 776 q 897 845 868 817 q 966 873 925 873 q 1035 845 1006 873 q 1063 776 1063 817 q 1035 707 1063 735 q 966 678 1006 678 q 897 707 925 678 q 868 776 868 735 m 971 538 q 944 471 971 499 q 880 444 918 444 l 343 444 q 300 420 317 442 q 275 372 283 399 q 267 317 267 345 q 275 262 267 289 q 300 213 283 235 q 343 191 317 191 l 886 191 q 950 164 924 191 q 977 96 977 137 q 949 31 977 57 q 886 3 924 3 l 351 3 q 195 54 256 1 q 106 175 133 107 q 80 316 80 243 q 107 454 80 387 q 195 575 134 522 q 351 631 256 628 l 359 631 q 376 632 368 632 l 397 632 l 397 758 q 426 821 399 796 q 491 846 453 846 q 553 820 528 845 q 581 758 579 795 l 581 632 l 880 632 q 945 605 918 632 q 971 538 971 578 z "},"":{"ha":1111,"x_min":60,"x_max":1063,"o":"m 60 682 q 86 741 60 716 q 151 766 113 766 l 216 766 l 220 785 q 259 838 228 819 q 327 850 290 857 q 385 817 363 844 q 401 766 401 793 l 587 766 q 652 742 625 766 q 678 682 678 716 q 652 624 678 648 q 587 600 625 600 l 370 600 l 281 132 q 178 64 259 58 q 117 98 140 69 q 100 161 94 126 l 184 600 l 151 600 q 87 624 113 600 q 60 682 60 648 m 838 557 q 901 533 875 556 q 928 480 926 510 l 928 429 l 972 429 q 1037 404 1010 429 q 1063 346 1063 380 q 1036 290 1063 312 q 972 267 1010 267 l 928 267 l 928 241 q 852 56 926 129 q 682 -22 777 -16 l 623 -22 q 475 19 533 -18 q 386 105 412 56 q 359 203 359 155 q 387 311 359 254 q 471 397 414 368 q 579 428 528 427 q 639 429 631 429 l 745 429 l 745 480 q 773 534 746 510 q 838 557 800 557 m 732 682 q 759 741 732 716 q 823 766 785 766 l 945 766 q 1010 742 983 766 q 1036 682 1036 716 q 1010 624 1036 648 q 945 600 983 600 l 823 600 q 760 624 785 600 q 732 682 732 648 m 718 175 q 745 258 746 206 l 745 267 l 623 267 q 580 257 597 269 q 555 232 563 245 q 547 203 547 218 q 555 179 547 195 q 580 152 563 163 q 623 140 597 141 l 636 140 q 718 175 688 142 z "},"":{"ha":1043,"x_min":100,"x_max":996,"o":"m 190 825 q 255 800 228 825 q 283 736 282 774 l 283 262 q 319 125 283 203 q 318 57 334 91 q 269 7 302 23 q 151 52 190 -19 q 100 267 102 164 l 100 736 q 127 798 102 773 q 190 825 153 823 m 996 94 q 969 29 996 56 q 905 3 943 3 l 685 3 q 669 4 677 3 l 661 4 q 505 47 566 7 q 416 140 444 88 q 389 245 389 193 q 430 365 389 300 q 529 444 471 430 q 617 410 587 457 q 614 324 647 362 q 579 273 582 286 q 576 245 576 259 q 585 219 576 232 q 610 196 593 206 q 652 184 627 186 l 905 184 q 968 157 943 184 q 996 94 996 132 m 429 712 q 455 777 429 750 q 519 803 481 803 l 899 803 q 964 777 937 803 q 990 712 990 750 q 964 648 990 674 q 899 621 937 621 l 519 621 q 456 648 481 621 q 429 712 429 674 z "},"":{"ha":1165,"x_min":80,"x_max":1082,"o":"m 433 841 q 488 814 465 840 q 513 753 511 789 l 513 686 l 650 686 l 659 753 q 691 816 665 791 q 751 841 718 841 q 806 814 785 840 q 823 753 826 789 l 812 686 l 821 686 q 834 685 827 686 l 842 685 q 981 625 926 682 q 1059 483 1035 568 q 1082 307 1082 397 q 1059 140 1082 213 q 982 11 1036 66 q 845 -45 928 -45 l 773 -45 q 669 -13 709 -45 q 610 62 628 19 q 605 73 608 68 q 583 50 594 60 q 464 3 533 8 l 320 3 q 181 54 236 1 q 103 178 126 107 q 80 335 80 248 q 104 498 80 419 q 182 629 127 576 q 320 685 236 682 l 328 685 q 342 686 335 686 l 347 686 l 347 753 q 374 816 349 791 q 433 841 399 841 m 324 525 q 278 490 293 524 q 256 416 263 456 q 248 339 248 377 q 256 256 248 296 q 278 193 263 217 q 313 170 293 170 l 347 170 l 347 525 l 324 525 m 553 213 q 592 323 579 254 q 617 472 605 392 l 625 525 l 513 525 l 513 175 q 553 213 537 186 m 774 449 q 745 338 761 391 q 773 340 758 340 l 913 340 q 907 407 911 376 q 884 488 899 453 q 838 525 869 524 l 787 525 l 774 449 m 849 109 q 884 132 869 109 q 907 194 899 155 q 910 218 909 205 l 765 218 q 740 208 750 217 q 725 184 730 199 q 720 164 720 170 q 725 140 720 152 q 740 118 730 127 q 765 109 750 109 l 849 109 z "},"":{"ha":1127,"x_min":57,"x_max":1048,"o":"m 91 184 l 309 430 l 309 496 l 161 496 q 97 523 123 496 q 71 587 71 549 q 96 652 71 625 q 161 678 123 678 l 309 678 l 309 753 q 336 814 311 789 q 399 841 362 840 q 464 816 437 841 q 492 753 491 791 l 492 583 q 666 678 579 673 l 724 678 q 882 641 821 677 q 981 554 944 605 q 1034 442 1019 503 q 1048 324 1048 381 q 1022 175 1048 248 q 933 47 996 102 q 803 -8 871 -8 l 785 -8 q 770 -7 781 -8 q 654 23 707 -7 q 574 99 601 53 q 548 203 548 145 q 566 298 548 255 q 625 375 583 340 q 730 411 666 410 l 846 411 q 802 468 831 444 q 715 496 766 494 l 669 496 q 549 429 617 494 q 492 373 517 397 l 492 72 q 465 9 492 34 q 399 -16 437 -16 q 309 72 317 -9 l 309 165 l 221 64 q 177 31 201 41 q 118 37 153 22 q 71 87 84 52 q 72 157 57 122 q 91 184 80 174 m 837 225 l 852 259 q 860 283 856 271 l 735 283 q 710 273 720 282 q 695 250 700 264 q 690 229 690 235 q 695 205 690 217 q 710 184 700 193 q 735 175 720 176 l 760 175 q 837 225 812 175 z "},"":{"ha":1077,"x_min":109,"x_max":970,"o":"m 537 840 q 676 823 608 840 q 807 775 745 807 q 920 690 869 743 q 970 564 970 637 l 970 266 q 918 30 970 142 q 800 -15 879 -41 q 751 35 766 1 q 750 103 735 69 q 787 266 785 182 l 787 522 q 755 592 784 564 q 690 636 726 620 q 628 658 659 650 l 628 263 q 585 106 628 168 q 485 18 541 45 q 368 -8 429 -8 q 254 19 311 -8 q 153 107 198 46 q 109 263 109 168 l 109 271 l 109 564 q 157 690 109 637 q 267 775 205 743 q 398 823 330 807 q 537 840 467 840 m 288 255 q 302 212 288 229 q 332 187 316 195 q 366 179 349 179 q 401 187 382 179 q 432 212 419 195 q 446 255 445 229 l 446 658 q 385 636 415 650 q 318 592 349 620 q 288 522 288 564 l 288 255 z "},"":{"ha":1160,"x_min":100,"x_max":1080,"o":"m 849 841 q 911 816 886 840 q 939 760 937 792 l 939 742 l 986 742 q 1051 718 1024 742 q 1077 656 1077 692 q 1050 596 1077 621 q 986 571 1024 571 l 939 571 l 939 472 l 989 472 q 1053 447 1027 472 q 1080 387 1080 422 q 1053 327 1080 350 q 989 302 1027 302 l 937 302 q 911 156 933 222 q 836 34 884 79 q 693 -16 788 -11 l 633 -16 q 486 27 544 -12 q 397 121 423 68 q 370 229 370 175 q 397 336 370 282 q 486 430 425 389 q 650 472 547 471 l 755 472 l 755 571 l 471 571 q 407 595 433 571 q 380 656 380 621 q 406 717 380 692 q 471 742 433 742 l 755 742 l 755 760 q 784 817 757 792 q 849 841 811 841 m 190 825 q 255 800 228 825 q 283 736 282 774 l 283 262 q 319 125 283 203 q 318 57 334 91 q 269 7 302 23 q 151 52 190 -19 q 100 267 102 164 l 100 736 q 127 798 102 773 q 190 825 153 823 m 719 182 q 749 250 739 208 q 755 302 753 273 l 633 302 q 591 291 608 304 q 566 262 574 278 q 557 229 557 247 q 566 199 557 218 q 591 167 574 179 q 633 153 608 155 l 647 153 q 719 182 699 156 z "},"":{"ha":1176,"x_min":100,"x_max":1080,"o":"m 629 955 q 658 1024 629 996 q 727 1053 686 1053 q 796 1024 768 1053 q 825 955 825 996 q 796 886 825 914 q 727 857 768 857 q 658 886 686 857 q 629 955 629 914 m 863 955 q 891 1024 863 996 q 960 1053 920 1053 q 1029 1024 1001 1053 q 1058 955 1058 996 q 1029 886 1058 914 q 960 857 1001 857 q 891 886 920 857 q 863 955 863 914 m 849 841 q 911 816 886 840 q 939 760 937 792 l 939 742 l 986 742 q 1051 718 1024 742 q 1077 656 1077 692 q 1050 596 1077 621 q 986 571 1024 571 l 939 571 l 939 472 l 989 472 q 1053 447 1027 472 q 1080 387 1080 422 q 1053 327 1080 350 q 989 302 1027 302 l 937 302 q 911 156 933 222 q 836 34 884 79 q 693 -16 788 -11 l 633 -16 q 486 27 544 -12 q 397 121 423 68 q 370 229 370 175 q 397 336 370 282 q 486 430 425 389 q 650 472 547 471 l 755 472 l 755 571 l 471 571 q 407 595 433 571 q 380 656 380 621 q 406 717 380 692 q 471 742 433 742 l 755 742 l 755 760 q 784 817 757 792 q 849 841 811 841 m 190 825 q 255 800 228 825 q 283 736 282 774 l 283 262 q 319 125 283 203 q 318 57 334 91 q 269 7 302 23 q 151 52 190 -19 q 100 267 102 164 l 100 736 q 127 798 102 773 q 190 825 153 823 m 719 182 q 749 250 739 208 q 755 302 753 273 l 633 302 q 591 291 608 304 q 566 262 574 278 q 557 229 557 247 q 566 199 557 218 q 591 167 574 179 q 633 153 608 155 l 647 153 q 719 182 699 156 z "},"":{"ha":1176,"x_min":100,"x_max":1149,"o":"m 190 825 q 255 800 228 825 q 283 736 282 774 l 283 262 q 319 125 283 203 q 318 57 334 91 q 269 7 302 23 q 151 52 190 -19 q 100 267 102 164 l 100 736 q 127 798 102 773 q 190 825 153 823 m 719 182 q 749 250 739 208 q 755 302 753 273 l 633 302 q 591 291 608 304 q 566 262 574 278 q 557 229 557 247 q 566 199 557 218 q 591 167 574 179 q 633 153 608 155 l 647 153 q 719 182 699 156 m 920 818 q 943 762 920 785 q 998 739 966 739 q 1053 762 1029 739 q 1076 818 1076 785 q 1053 872 1076 849 q 998 895 1029 895 q 943 872 966 895 q 920 818 920 849 m 1077 656 q 1050 596 1077 621 q 986 571 1024 571 l 939 571 l 939 472 l 989 472 q 1053 447 1027 472 q 1080 387 1080 422 q 1053 327 1080 350 q 989 302 1027 302 l 937 302 q 911 156 933 222 q 836 34 884 79 q 693 -16 788 -11 l 633 -16 q 486 27 544 -12 q 397 121 423 68 q 370 229 370 175 q 397 336 370 282 q 486 430 425 389 q 650 472 547 471 l 755 472 l 755 571 l 471 571 q 407 595 433 571 q 380 656 380 621 q 406 717 380 692 q 471 742 433 742 l 755 742 l 755 760 q 784 817 757 792 q 848 841 811 841 q 891 925 854 888 q 998 968 935 968 q 1105 924 1061 968 q 1149 818 1149 880 q 1105 711 1149 754 q 1073 685 1089 694 q 1077 656 1077 671 z "},"":{"ha":1172,"x_min":54,"x_max":1123,"o":"m 54 712 q 81 777 54 750 q 145 803 107 803 l 469 803 l 528 803 l 547 803 q 640 709 632 795 q 612 646 640 671 q 547 621 585 621 l 528 621 l 507 621 q 418 582 456 618 q 358 498 378 545 q 332 403 338 452 q 338 307 327 354 q 394 223 350 259 q 490 184 438 187 l 631 184 q 716 224 682 187 q 759 307 750 260 q 766 410 768 354 l 766 675 q 789 765 762 739 q 852 793 815 792 q 917 766 890 793 l 1096 591 q 1123 528 1123 566 q 1096 464 1123 490 q 1033 436 1070 437 q 968 463 996 435 l 949 481 l 949 393 q 922 212 948 297 q 833 67 895 126 q 677 3 772 8 l 499 3 q 274 75 349 8 q 170 228 199 142 q 149 403 140 313 q 232 608 161 536 q 247 621 239 614 l 145 621 q 81 648 107 621 q 54 712 54 674 z "},"":{"ha":1176,"x_min":54,"x_max":1123,"o":"m 526 933 q 555 1002 526 974 q 624 1031 583 1031 q 693 1002 665 1031 q 722 933 722 974 q 693 864 722 892 q 624 836 665 836 q 555 864 583 836 q 526 933 526 892 m 760 933 q 788 1002 760 974 q 857 1031 817 1031 q 926 1002 898 1031 q 955 933 955 974 q 926 864 955 892 q 857 836 898 836 q 788 864 817 836 q 760 933 760 892 m 54 712 q 81 777 54 750 q 145 803 107 803 l 469 803 l 528 803 l 547 803 q 640 709 632 795 q 612 646 640 671 q 547 621 585 621 l 528 621 l 507 621 q 418 582 456 618 q 358 498 378 545 q 332 403 338 452 q 338 307 327 354 q 394 223 350 259 q 490 184 438 187 l 631 184 q 716 224 682 187 q 759 307 750 260 q 766 410 768 354 l 766 675 q 789 765 762 739 q 852 793 815 792 q 917 766 890 793 l 1096 591 q 1123 528 1123 566 q 1096 464 1123 490 q 1033 436 1070 437 q 968 463 996 435 l 949 481 l 949 393 q 922 212 948 297 q 833 67 895 126 q 677 3 772 8 l 499 3 q 274 75 349 8 q 170 228 199 142 q 149 403 140 313 q 232 608 161 536 q 247 621 239 614 l 145 621 q 81 648 107 621 q 54 712 54 674 z "},"":{"ha":1176,"x_min":54,"x_max":1123,"o":"m 54 712 q 81 777 54 750 q 145 803 107 803 l 547 803 q 640 709 632 795 q 612 646 640 671 q 547 621 585 621 l 507 621 q 418 582 456 618 q 358 498 378 545 q 332 403 338 452 q 338 307 327 354 q 394 223 350 259 q 490 184 438 187 l 631 184 q 716 224 682 187 q 759 307 750 260 q 766 410 768 354 l 766 746 q 745 765 754 754 q 700 872 700 808 q 744 979 700 935 q 852 1023 788 1023 q 958 979 914 1023 q 1002 872 1002 935 q 959 765 1002 808 q 937 746 948 754 l 1096 591 q 1123 528 1123 566 q 1096 464 1123 490 q 1033 436 1070 437 q 968 463 996 435 l 949 481 l 949 393 q 922 212 948 297 q 833 67 895 126 q 677 3 772 8 l 499 3 q 274 75 349 8 q 170 228 199 142 q 149 403 140 313 q 232 608 161 536 q 247 621 239 614 l 145 621 q 81 648 107 621 q 54 712 54 674 m 773 872 q 796 817 773 840 q 852 793 819 793 q 906 817 883 793 q 929 872 929 840 q 906 926 929 903 q 852 949 883 949 q 796 926 819 949 q 773 872 773 903 z "},"":{"ha":1107,"x_min":46,"x_max":1066,"o":"m 163 712 q 189 777 163 750 q 254 803 216 803 l 764 803 q 829 777 802 803 q 854 712 854 750 q 828 648 854 674 q 764 621 802 621 l 254 621 q 190 648 216 621 q 163 712 163 674 m 353 430 q 379 494 353 468 q 444 521 406 521 l 506 519 q 662 473 601 517 q 750 373 723 429 q 777 260 777 317 q 751 146 777 202 q 663 47 724 91 q 506 3 601 3 l 444 3 q 380 30 406 3 q 353 94 353 56 q 379 158 353 132 q 444 184 406 184 l 514 184 q 557 197 540 184 q 582 228 574 210 q 590 262 590 245 q 582 296 590 278 q 557 326 574 313 q 514 339 540 339 l 444 339 q 380 366 406 339 q 353 430 353 392 m 190 526 q 252 500 227 525 q 279 438 278 475 l 279 267 q 229 52 278 164 q 111 7 190 -19 q 62 57 77 23 q 61 125 46 91 q 96 262 96 203 l 96 438 q 125 501 98 476 q 190 526 152 526 m 922 526 q 987 501 960 526 q 1016 438 1015 476 l 1016 262 q 1051 125 1016 203 q 1050 57 1066 91 q 1001 7 1035 23 q 883 52 922 -19 q 833 267 834 164 l 833 438 q 860 500 834 475 q 922 526 886 525 z "},"":{"ha":1101,"x_min":46,"x_max":1066,"o":"m 591 711 q 620 780 591 751 q 689 808 648 808 q 758 780 730 808 q 787 711 787 751 q 758 642 787 670 q 689 613 730 613 q 620 642 648 613 q 591 711 591 670 m 825 711 q 853 780 825 751 q 922 808 882 808 q 991 780 963 808 q 1020 711 1020 751 q 991 642 1020 670 q 922 613 963 613 q 853 642 882 613 q 825 711 825 670 m 163 712 q 189 777 163 750 q 254 803 216 803 l 460 803 q 525 777 498 803 q 551 712 551 750 q 524 648 551 674 q 460 621 498 621 l 254 621 q 190 648 216 621 q 163 712 163 674 m 353 430 q 379 494 353 468 q 444 521 406 521 l 506 519 q 662 473 601 517 q 750 373 723 429 q 777 260 777 317 q 751 146 777 202 q 663 47 724 91 q 506 3 601 3 l 444 3 q 380 30 406 3 q 353 94 353 56 q 379 158 353 132 q 444 184 406 184 l 514 184 q 557 197 540 184 q 582 228 574 210 q 590 262 590 245 q 582 296 590 278 q 557 326 574 313 q 514 339 540 339 l 444 339 q 380 366 406 339 q 353 430 353 392 m 190 526 q 252 500 227 525 q 279 438 278 475 l 279 267 q 229 52 278 164 q 111 7 190 -19 q 62 57 77 23 q 61 125 46 91 q 96 262 96 203 l 96 438 q 125 501 98 476 q 190 526 152 526 m 922 526 q 987 501 960 526 q 1016 438 1015 476 l 1016 262 q 1051 125 1016 203 q 1050 57 1066 91 q 1001 7 1035 23 q 883 52 922 -19 q 833 267 834 164 l 833 438 q 860 500 834 475 q 922 526 886 525 z "},"":{"ha":1101,"x_min":46,"x_max":1073,"o":"m 163 712 q 189 777 163 750 q 254 803 216 803 l 800 803 q 815 819 807 811 q 922 863 859 863 q 1029 819 985 863 q 1073 712 1073 774 q 1029 604 1073 648 q 922 560 985 560 q 815 605 859 560 q 800 621 806 613 l 254 621 q 190 648 216 621 q 163 712 163 674 m 353 430 q 379 494 353 468 q 444 521 406 521 l 506 519 q 662 473 601 517 q 750 373 723 429 q 777 260 777 317 q 751 146 777 202 q 663 47 724 91 q 506 3 601 3 l 444 3 q 380 30 406 3 q 353 94 353 56 q 379 158 353 132 q 444 184 406 184 l 514 184 q 557 197 540 184 q 582 228 574 210 q 590 262 590 245 q 582 296 590 278 q 557 326 574 313 q 514 339 540 339 l 444 339 q 380 366 406 339 q 353 430 353 392 m 190 526 q 252 500 227 525 q 279 438 278 475 l 279 267 q 229 52 278 164 q 111 7 190 -19 q 62 57 77 23 q 61 125 46 91 q 96 262 96 203 l 96 438 q 125 501 98 476 q 190 526 152 526 m 922 526 q 987 501 960 526 q 1016 438 1015 476 l 1016 262 q 1051 125 1016 203 q 1050 57 1066 91 q 1001 7 1035 23 q 883 52 922 -19 q 833 267 834 164 l 833 438 q 860 500 834 475 q 922 526 886 525 m 844 712 q 867 656 844 680 q 922 633 890 633 q 977 656 954 633 q 1000 712 1000 680 q 977 766 1000 743 q 922 789 954 789 q 867 766 890 789 q 844 712 844 743 z "},"":{"ha":1099,"x_min":104,"x_max":1065,"o":"m 410 618 q 336 656 380 661 q 288 606 286 643 l 288 161 q 198 73 279 80 q 132 98 160 73 q 104 161 104 123 l 104 582 q 163 757 106 690 q 336 825 221 823 q 511 770 460 826 q 583 684 563 715 l 1036 146 q 1064 83 1063 121 q 1039 18 1065 46 q 978 -10 1013 -8 q 914 12 943 -12 l 410 618 z "},"":{"ha":1099,"x_min":104,"x_max":1065,"o":"m 410 618 q 336 656 380 661 q 288 606 286 643 l 288 161 q 198 73 279 80 q 132 98 160 73 q 104 161 104 123 l 104 582 q 163 757 106 690 q 336 825 221 823 q 511 770 460 826 q 583 684 563 715 l 1036 146 q 1064 83 1063 121 q 1039 18 1065 46 q 978 -10 1013 -8 q 914 12 943 -12 l 410 618 m 635 727 q 663 796 635 768 q 732 825 692 825 q 802 796 773 825 q 830 727 830 768 q 802 658 830 686 q 732 629 773 629 q 663 658 692 629 q 635 727 635 686 m 868 727 q 897 796 868 768 q 966 825 925 825 q 1035 796 1006 825 q 1063 727 1063 768 q 1035 658 1063 686 q 966 629 1006 629 q 897 658 925 629 q 868 727 868 686 z "},"":{"ha":1099,"x_min":104,"x_max":1065,"o":"m 410 618 q 336 656 380 661 q 288 606 286 643 l 288 161 q 198 73 279 80 q 132 98 160 73 q 104 161 104 123 l 104 582 q 163 757 106 690 q 336 825 221 823 q 511 770 460 826 q 583 684 563 715 l 1036 146 q 1064 83 1063 121 q 1039 18 1065 46 q 978 -10 1013 -8 q 914 12 943 -12 l 410 618 m 741 674 q 785 781 741 736 q 892 825 829 825 q 999 781 955 825 q 1043 674 1043 736 q 999 566 1043 610 q 892 522 955 522 q 785 566 829 522 q 741 674 741 610 m 814 674 q 837 618 814 642 q 892 595 860 595 q 947 618 924 595 q 970 674 970 642 q 947 728 970 705 q 892 751 924 751 q 837 728 860 751 q 814 674 814 705 z "},"":{"ha":1128,"x_min":100,"x_max":1080,"o":"m 380 519 q 406 572 380 551 q 471 594 433 594 l 755 594 l 755 652 l 471 652 q 407 674 433 652 q 380 727 380 697 q 406 781 380 758 q 471 803 433 803 l 986 803 q 1051 781 1024 803 q 1077 727 1077 758 q 1050 675 1077 697 q 986 652 1024 652 l 939 652 l 939 594 l 986 594 q 1051 572 1024 594 q 1077 519 1077 551 q 1050 465 1077 487 q 986 444 1024 444 l 939 444 l 939 382 l 989 382 q 1053 361 1027 382 q 1080 308 1080 340 q 1053 255 1080 274 q 989 233 1027 233 l 937 233 q 911 125 932 175 q 836 26 884 62 q 693 -16 788 -11 l 633 -16 q 486 20 544 -12 q 397 96 423 53 q 370 186 370 138 q 397 272 370 229 q 486 349 425 315 q 633 382 547 382 l 755 382 l 755 444 l 471 444 q 407 465 433 444 q 380 519 380 487 m 190 825 q 255 800 228 825 q 283 736 282 774 l 283 262 q 319 125 283 203 q 318 57 334 91 q 269 7 302 23 q 151 52 190 -19 q 100 267 102 164 l 100 736 q 127 798 102 773 q 190 825 153 823 m 719 153 q 749 202 739 171 q 754 233 751 217 l 633 233 q 591 226 608 233 q 566 207 574 218 q 557 186 557 195 q 566 165 557 179 q 591 143 574 152 q 633 133 608 134 l 647 133 q 719 153 699 136 z "},"":{"ha":1130,"x_min":100,"x_max":1080,"o":"m 651 939 q 680 1008 651 979 q 749 1036 708 1036 q 818 1008 789 1036 q 846 939 846 979 q 818 869 846 898 q 749 841 789 841 q 680 869 708 841 q 651 939 651 898 m 884 939 q 913 1008 884 979 q 982 1036 941 1036 q 1051 1008 1023 1036 q 1080 939 1080 979 q 1051 869 1080 898 q 982 841 1023 841 q 913 869 941 841 q 884 939 884 898 m 380 519 q 406 572 380 551 q 471 594 433 594 l 755 594 l 755 652 l 471 652 q 407 674 433 652 q 380 727 380 697 q 406 781 380 758 q 471 803 433 803 l 986 803 q 1051 781 1024 803 q 1077 727 1077 758 q 1050 675 1077 697 q 986 652 1024 652 l 939 652 l 939 594 l 986 594 q 1051 572 1024 594 q 1077 519 1077 551 q 1050 465 1077 487 q 986 444 1024 444 l 939 444 l 939 382 l 989 382 q 1053 361 1027 382 q 1080 308 1080 340 q 1053 255 1080 274 q 989 233 1027 233 l 937 233 q 911 125 932 175 q 836 26 884 62 q 693 -16 788 -11 l 633 -16 q 486 20 544 -12 q 397 96 423 53 q 370 186 370 138 q 397 272 370 229 q 486 349 425 315 q 633 382 547 382 l 755 382 l 755 444 l 471 444 q 407 465 433 444 q 380 519 380 487 m 190 825 q 255 800 228 825 q 283 736 282 774 l 283 262 q 319 125 283 203 q 318 57 334 91 q 269 7 302 23 q 151 52 190 -19 q 100 267 102 164 l 100 736 q 127 798 102 773 q 190 825 153 823 m 719 153 q 749 202 739 171 q 754 233 751 217 l 633 233 q 591 226 608 233 q 566 207 574 218 q 557 186 557 195 q 566 165 557 179 q 591 143 574 152 q 633 133 608 134 l 647 133 q 719 153 699 136 z "},"":{"ha":1138,"x_min":100,"x_max":1135,"o":"m 380 519 q 406 572 380 551 q 471 594 433 594 l 755 594 l 755 652 l 471 652 q 407 674 433 652 q 380 727 380 697 q 406 781 380 758 q 471 803 433 803 l 833 803 l 833 804 q 877 911 833 867 q 985 955 921 955 q 1091 911 1047 955 q 1135 804 1135 867 q 1092 697 1135 741 q 994 652 1050 655 q 986 652 990 652 l 985 652 l 939 652 l 939 594 l 986 594 q 1051 572 1024 594 q 1077 519 1077 551 q 1050 465 1077 487 q 986 444 1024 444 l 939 444 l 939 382 l 989 382 q 1053 361 1027 382 q 1080 308 1080 340 q 1053 255 1080 274 q 989 233 1027 233 l 937 233 q 911 125 932 175 q 836 26 884 62 q 693 -16 788 -11 l 633 -16 q 486 20 544 -12 q 397 96 423 53 q 370 186 370 138 q 397 272 370 229 q 486 349 425 315 q 633 382 547 382 l 755 382 l 755 444 l 471 444 q 407 465 433 444 q 380 519 380 487 m 190 825 q 255 800 228 825 q 283 736 282 774 l 283 262 q 319 125 283 203 q 318 57 334 91 q 269 7 302 23 q 151 52 190 -19 q 100 267 102 164 l 100 736 q 127 798 102 773 q 190 825 153 823 m 719 153 q 749 202 739 171 q 754 233 751 217 l 633 233 q 591 226 608 233 q 566 207 574 218 q 557 186 557 195 q 566 165 557 179 q 591 143 574 152 q 633 133 608 134 l 647 133 q 719 153 699 136 m 906 804 q 929 749 906 772 q 985 726 952 726 q 1039 749 1016 726 q 1062 804 1062 772 q 1039 859 1062 836 q 985 882 1016 882 q 929 859 952 882 q 906 804 906 836 z "},"":{"ha":1047,"x_min":83,"x_max":971,"o":"m 92 491 q 119 541 92 521 q 183 562 145 562 l 538 562 l 538 617 l 183 617 q 119 637 145 617 q 92 688 92 659 q 119 739 92 718 q 183 760 145 760 l 538 760 q 567 819 540 795 q 632 842 594 842 q 694 818 669 841 q 722 760 720 793 l 878 760 q 943 739 916 760 q 968 688 968 718 q 942 638 968 659 q 878 617 916 617 l 722 617 l 722 562 l 878 562 q 943 541 916 562 q 968 491 968 521 q 942 440 968 461 q 878 419 916 419 l 722 419 l 722 362 l 880 362 q 945 342 918 362 q 971 290 971 321 q 944 241 971 259 q 880 220 918 220 l 720 220 q 694 118 715 164 q 619 24 667 58 q 476 -16 571 -11 l 425 -16 q 351 -16 387 -16 q 198 18 244 -5 q 109 90 136 49 q 83 175 83 130 q 110 257 83 217 q 198 330 137 297 q 346 362 259 362 l 538 362 l 538 419 l 183 419 q 119 439 145 419 q 92 491 92 461 m 430 125 q 502 144 481 127 q 532 191 522 161 q 537 220 534 203 l 346 220 q 303 213 320 220 q 278 195 286 206 q 270 175 270 184 q 278 156 270 168 q 303 135 286 144 q 346 125 320 126 l 357 125 l 430 125 z "},"":{"ha":1088,"x_min":61,"x_max":1036,"o":"m 71 716 q 97 777 71 751 q 161 802 123 802 l 538 802 q 604 777 576 802 q 629 694 629 751 l 629 488 l 753 488 l 753 666 q 781 729 754 704 q 846 754 808 754 q 909 728 883 753 q 936 666 935 703 l 936 488 l 945 488 q 1010 463 983 488 q 1036 403 1036 438 q 1009 343 1036 366 q 945 319 983 319 l 936 319 l 936 267 q 886 52 935 164 q 768 7 846 -19 q 718 57 734 23 q 718 125 703 91 q 753 262 753 203 l 753 319 l 629 319 q 602 156 627 228 q 527 34 575 79 q 384 -16 479 -11 l 324 -16 q 176 28 235 -12 q 87 125 114 71 q 61 237 61 180 q 88 347 61 292 q 176 444 115 401 q 324 488 237 486 l 446 488 l 446 631 l 161 631 q 98 655 123 631 q 71 716 71 681 m 410 182 q 439 250 430 208 q 446 319 445 279 l 324 319 q 281 303 298 317 q 256 272 264 289 q 248 236 248 255 q 256 203 248 224 q 281 168 264 182 q 324 153 298 155 l 338 153 q 410 182 389 156 z "},"":{"ha":1061,"x_min":54,"x_max":1004,"o":"m 54 674 q 81 732 54 708 q 145 757 107 757 l 487 757 q 515 817 490 792 q 581 841 543 841 q 643 815 617 840 q 670 757 667 791 l 902 757 q 967 734 940 757 q 993 674 993 708 q 966 614 993 639 q 902 590 940 590 l 670 590 l 670 354 q 677 308 671 330 q 719 224 685 260 q 804 184 753 187 l 916 184 q 979 156 954 183 q 1004 91 1004 129 q 977 29 1002 54 q 916 3 952 4 l 758 3 q 602 68 663 8 q 538 149 564 103 q 377 73 477 77 l 372 73 q 191 117 252 77 q 103 207 130 156 q 76 309 76 258 q 102 414 76 363 q 191 504 129 464 q 347 545 252 544 l 401 545 q 487 519 448 545 l 487 590 l 145 590 q 81 614 107 590 q 54 674 54 639 m 342 389 q 297 376 316 389 q 269 345 278 363 q 260 309 260 327 q 269 275 260 293 q 297 243 278 256 q 342 229 316 229 l 407 229 q 452 243 433 229 q 480 275 471 256 q 487 296 484 286 l 487 323 q 480 346 484 334 q 452 376 471 363 q 407 389 433 389 l 342 389 m 798 392 q 827 459 798 431 q 898 487 856 487 q 969 459 940 487 q 998 392 998 431 q 969 325 998 353 q 898 297 940 297 q 827 325 856 297 q 798 392 798 353 z "},"":{"ha":1156,"x_min":80,"x_max":1082,"o":"m 433 841 q 488 814 465 840 q 513 753 511 789 l 513 632 l 643 632 l 659 753 q 691 816 665 791 q 751 841 718 841 q 806 814 785 840 q 823 753 826 789 l 807 632 l 848 632 q 981 571 926 628 q 1059 441 1035 514 q 1082 292 1082 369 q 1059 140 1082 213 q 981 10 1036 66 q 842 -45 926 -46 l 796 -45 q 741 -16 762 -45 q 713 49 713 9 q 738 115 713 91 q 796 138 762 138 l 849 138 q 884 168 869 138 q 907 229 899 198 q 914 294 914 260 q 907 359 914 326 q 884 420 899 393 q 849 449 869 448 l 783 449 l 774 393 q 730 212 762 297 q 633 67 696 126 q 502 3 571 8 l 320 3 q 181 54 236 1 q 103 175 126 107 q 80 316 80 243 q 104 454 80 387 q 182 575 127 522 q 315 632 236 628 l 347 632 l 347 753 q 374 816 349 791 q 433 841 399 841 m 313 449 q 278 423 293 448 q 256 372 263 399 q 248 317 248 345 q 256 262 248 289 q 278 210 263 235 q 313 186 293 186 l 347 186 l 347 449 l 313 449 m 553 224 q 592 307 579 260 q 612 410 605 354 l 617 449 l 513 449 l 513 191 q 553 224 537 201 z "},"":{"ha":1081,"x_min":81,"x_max":1020,"o":"m 1020 666 q 993 604 1020 628 q 929 576 967 576 l 581 576 l 581 491 l 924 491 q 988 465 962 491 q 1015 400 1015 439 q 987 338 1015 362 q 924 312 962 312 l 581 312 l 581 278 q 609 213 581 244 q 688 183 637 183 l 921 183 q 984 155 959 182 q 1009 91 1009 127 q 983 29 1008 54 q 921 3 958 4 l 669 3 q 482 79 568 1 q 396 266 396 156 l 396 312 l 172 312 q 108 337 134 312 q 81 400 81 362 q 107 465 81 439 q 172 491 134 491 l 396 491 l 396 576 l 178 576 q 113 602 140 576 q 87 666 87 628 q 113 731 87 704 q 178 755 140 755 l 396 755 q 425 820 396 795 q 491 845 453 845 q 554 819 528 844 q 581 755 581 793 l 929 755 q 994 730 967 755 q 1020 666 1020 704 z "},"":{"ha":921,"x_min":61,"x_max":852,"o":"m 61 536 q 82 588 61 567 q 133 609 103 609 l 214 609 q 236 654 217 636 q 289 674 258 674 q 339 654 317 673 q 361 609 357 635 l 465 609 q 488 654 469 636 q 540 674 510 674 q 590 654 570 673 q 612 609 609 635 l 637 609 q 760 567 711 605 q 830 480 808 529 q 852 381 852 431 q 831 279 852 328 q 760 193 810 231 q 635 155 711 155 l 533 155 q 481 176 502 155 q 460 228 460 198 q 481 279 460 258 q 533 301 502 301 l 642 301 q 675 315 662 301 q 696 346 689 328 q 703 382 703 363 q 696 417 703 399 q 675 449 689 435 q 642 464 662 463 l 612 464 q 540 396 604 401 q 488 416 510 396 q 465 464 467 435 l 361 464 l 361 58 q 289 -12 354 -7 q 236 8 258 -12 q 214 58 214 28 l 214 464 l 133 464 q 83 486 103 464 q 61 536 61 506 z "},"":{"ha":1146,"x_min":81,"x_max":1070,"o":"m 81 669 q 108 733 81 707 q 172 760 134 760 l 273 760 q 301 817 277 793 q 366 841 328 841 q 429 815 403 840 q 456 760 452 792 l 587 760 q 616 817 591 793 q 681 841 643 841 q 743 815 718 840 q 770 760 766 792 l 802 760 q 955 707 894 755 q 1043 598 1016 659 q 1070 475 1070 537 q 1044 349 1070 410 q 956 239 1017 288 q 799 193 894 191 l 671 193 q 608 220 633 193 q 581 283 581 245 q 607 348 581 321 q 671 374 633 374 l 807 374 q 850 391 833 374 q 875 431 867 408 q 883 476 883 453 q 875 520 883 498 q 850 559 867 543 q 807 578 833 576 l 770 578 q 681 494 760 500 q 616 519 643 494 q 587 578 589 543 l 456 578 l 456 72 q 366 -16 448 -9 q 300 9 328 -16 q 273 72 273 34 l 273 578 l 172 578 q 109 605 134 578 q 81 669 81 631 z "},"":{"ha":882,"x_min":56,"x_max":842,"o":"m 476 681 q 526 660 506 680 q 548 610 547 640 l 548 604 l 625 604 q 724 573 681 602 q 792 503 766 544 q 830 418 818 463 q 842 328 842 374 q 821 209 842 267 q 734 106 799 151 q 578 62 669 62 l 522 62 q 507 23 517 43 q 414 -12 476 -33 q 374 28 387 1 q 373 83 361 56 q 401 191 401 145 l 401 361 q 361 316 378 335 l 184 111 q 132 88 165 92 q 78 109 100 88 q 56 159 56 129 l 56 541 q 79 591 57 571 q 132 612 100 612 q 181 591 160 610 q 202 541 202 571 l 202 346 l 277 430 q 389 543 323 484 q 401 552 395 547 l 401 610 q 425 661 403 642 q 476 681 446 681 m 575 208 q 644 229 616 208 q 684 277 673 250 q 696 332 696 304 q 684 387 696 359 q 644 435 671 414 q 575 457 616 456 l 548 457 l 548 208 l 575 208 z "},"":{"ha":1156,"x_min":94,"x_max":1076,"o":"m 618 841 q 681 814 655 840 q 708 753 707 789 l 708 743 l 806 743 q 928 706 875 742 q 1014 619 982 670 q 1061 513 1046 568 q 1076 400 1076 457 q 1049 251 1076 324 q 941 123 1023 178 q 746 68 860 68 l 677 68 q 658 19 669 43 q 540 -26 618 -52 q 490 24 506 -9 q 490 92 475 58 q 525 229 525 171 l 525 441 q 475 384 496 408 l 254 129 q 187 100 231 104 q 121 125 149 100 q 94 189 94 151 l 94 666 q 122 729 95 704 q 187 754 149 754 q 250 728 224 753 q 277 666 275 703 l 277 422 l 369 526 q 510 667 427 595 q 525 680 517 673 l 525 753 q 553 816 526 791 q 618 841 581 841 m 742 250 q 829 275 793 250 q 878 335 864 301 q 892 404 892 369 q 878 473 892 439 q 828 532 863 506 q 742 562 793 559 l 708 562 l 708 250 l 742 250 z "},"":{"ha":897,"x_min":52,"x_max":848,"o":"m 457 688 q 507 667 486 686 q 528 623 528 648 l 528 608 l 774 608 q 826 589 804 608 q 848 540 848 568 q 826 492 848 511 q 774 472 804 472 l 528 472 l 528 392 l 772 392 q 824 372 803 392 q 845 324 845 353 q 823 277 845 294 q 772 256 803 256 l 528 256 q 506 140 524 193 q 446 41 484 77 q 332 1 408 5 l 264 1 q 144 37 186 9 q 73 112 94 69 q 52 198 52 155 q 73 283 52 240 q 144 358 95 326 q 270 392 193 391 l 381 392 l 381 623 q 404 668 382 648 q 457 688 426 688 m 353 160 q 376 214 369 180 q 381 256 380 233 l 262 256 q 228 248 241 258 q 208 224 214 237 q 202 198 202 212 q 208 174 202 190 q 228 148 214 157 q 262 137 241 138 l 294 137 q 353 160 336 140 z "},"":{"ha":1096,"x_min":56,"x_max":1050,"o":"m 562 841 q 624 816 598 840 q 651 760 650 792 l 651 742 l 959 742 q 1024 718 997 742 q 1050 656 1050 692 q 1023 596 1050 621 q 959 571 997 571 l 651 571 l 651 472 l 956 472 q 1021 447 994 472 q 1047 387 1047 422 q 1020 327 1047 350 q 956 302 994 302 l 650 302 q 624 156 646 222 q 549 34 597 79 q 406 -16 500 -11 l 321 -16 q 171 27 222 -7 q 82 121 109 68 q 56 229 56 175 q 83 336 56 282 q 171 430 110 389 q 324 472 232 471 l 468 472 l 468 760 q 496 817 469 792 q 562 841 524 841 m 431 182 q 461 250 452 208 q 468 302 465 273 l 319 302 q 276 291 293 304 q 251 262 259 278 q 243 229 243 247 q 251 199 243 218 q 276 167 259 179 q 319 153 293 155 l 359 153 q 431 182 411 156 z "},"":{"ha":1080,"x_min":92,"x_max":1000,"o":"m 100 96 q 127 160 100 134 q 191 187 153 187 l 736 187 q 779 199 762 189 q 804 224 796 210 q 812 252 812 237 q 804 281 812 267 q 779 305 796 294 q 736 317 762 316 l 362 317 q 205 361 267 320 q 118 456 144 403 q 92 566 92 510 l 92 715 q 121 778 92 753 q 187 803 149 803 q 250 777 224 802 q 277 715 275 751 l 277 566 q 286 539 278 556 q 311 511 294 522 q 354 499 328 500 l 728 499 q 885 456 823 498 q 973 361 947 415 q 1000 252 1000 308 q 972 146 1000 199 q 884 51 945 92 q 731 5 823 9 l 191 5 q 127 32 153 5 q 100 96 100 58 m 831 803 q 896 777 869 803 q 922 712 922 750 q 895 648 922 674 q 831 621 869 621 l 481 621 q 418 648 444 621 q 391 712 391 674 q 417 777 391 750 q 481 803 444 803 l 831 803 z "},"":{"ha":1058,"x_min":123,"x_max":939,"o":"m 849 825 q 911 798 886 823 q 939 736 937 773 l 939 393 q 911 212 937 297 q 823 67 884 126 q 666 3 761 8 l 514 3 q 452 29 477 4 q 426 91 427 54 q 451 156 426 129 q 514 184 476 183 l 620 184 q 705 224 671 187 q 748 307 739 260 q 755 410 757 354 l 755 736 q 784 800 757 774 q 849 825 811 825 m 381 292 l 339 294 q 184 344 240 304 q 123 480 129 384 l 123 730 q 149 791 125 766 q 209 818 174 817 q 272 793 245 818 q 300 730 298 768 l 300 532 q 309 486 300 500 q 354 468 319 472 q 410 462 387 467 q 450 423 433 457 q 456 355 467 391 q 412 302 445 319 q 381 292 396 294 z "},"":{"ha":1084,"x_min":65,"x_max":1016,"o":"m 152 731 q 178 782 152 761 q 243 803 205 803 l 804 803 q 869 783 842 803 q 895 731 895 761 q 884 696 895 712 l 708 566 l 753 566 q 901 517 840 562 q 989 416 962 473 q 1016 302 1016 359 q 989 169 1016 225 q 901 59 963 113 q 745 1 840 5 l 321 1 q 208 33 259 3 q 135 100 156 62 q 114 172 114 138 q 134 248 114 208 q 210 315 155 288 q 328 340 264 343 l 476 340 q 654 266 598 335 q 705 149 693 214 l 753 149 q 795 170 779 149 q 821 219 812 191 q 829 290 829 247 q 821 344 829 316 q 795 392 812 372 q 753 412 779 412 l 156 412 q 92 435 118 412 q 65 488 65 457 q 92 543 65 521 q 156 566 118 566 l 465 566 l 586 659 l 243 659 q 179 681 205 659 q 152 731 152 701 m 477 220 l 336 220 q 311 215 321 221 q 296 199 301 209 q 292 186 292 190 q 296 170 292 178 q 311 156 301 163 q 336 149 321 149 l 551 149 q 477 220 532 217 z "},"":{"ha":1153,"x_min":90,"x_max":1126,"o":"m 123 184 l 342 430 l 342 496 l 194 496 q 130 523 156 496 q 103 587 103 549 q 129 652 103 625 q 194 678 156 678 l 342 678 l 342 753 q 369 814 343 789 q 431 841 395 840 q 496 816 469 841 q 525 753 524 791 l 525 608 q 699 678 612 673 l 779 678 q 914 631 857 678 q 972 498 971 585 l 972 262 q 1051 189 977 187 q 1107 150 1088 182 q 1120 81 1126 118 q 1017 8 1099 0 q 789 267 788 37 l 789 431 q 727 496 792 495 l 701 496 q 582 429 650 494 q 525 373 549 397 l 525 72 q 497 9 525 34 q 431 -16 469 -16 q 342 72 350 -9 l 342 165 l 254 64 q 210 31 233 41 q 151 37 186 22 q 103 87 117 52 q 104 157 90 122 q 123 184 113 174 z "},"":{"ha":1124,"x_min":71,"x_max":1043,"o":"m 157 718 q 184 778 157 753 q 248 803 210 803 l 810 803 q 875 779 848 803 q 901 718 901 753 q 890 675 901 694 l 713 521 l 780 521 q 928 473 867 517 q 1016 373 989 429 q 1043 260 1043 317 q 1017 146 1043 202 q 928 47 990 91 q 772 3 867 3 l 237 3 q 174 30 199 3 q 146 94 146 56 q 173 158 146 132 q 237 184 199 184 l 780 184 q 823 197 806 184 q 848 228 840 210 q 856 262 856 245 q 848 296 856 278 q 823 326 840 313 q 780 339 806 339 l 161 339 q 98 366 123 339 q 71 430 71 392 q 97 494 71 468 q 161 521 123 521 l 458 521 l 581 632 l 248 632 q 184 658 210 632 q 157 718 157 682 z "},"":{"ha":929,"x_min":62,"x_max":864,"o":"m 90 149 l 264 345 l 264 399 l 145 399 q 94 420 115 399 q 73 471 73 441 q 94 524 73 502 q 145 544 115 544 l 264 544 l 264 604 q 286 652 264 632 q 335 674 307 673 q 388 654 366 674 q 411 604 410 633 l 411 487 q 549 544 480 540 l 648 544 q 747 514 704 543 q 814 445 789 486 q 852 359 840 404 q 864 269 864 315 q 843 150 864 209 q 757 47 822 91 q 601 3 692 3 l 543 3 q 491 23 513 3 q 468 73 469 43 q 543 149 475 142 l 597 149 q 667 170 639 149 q 706 217 694 190 q 718 273 718 244 q 705 328 718 301 q 666 375 693 354 q 597 399 639 396 l 552 399 q 456 345 510 396 q 411 300 430 319 l 411 58 q 389 8 411 28 q 335 -12 366 -12 q 264 58 270 -7 l 264 133 l 194 52 q 159 26 178 34 q 111 30 140 19 q 73 71 84 42 q 75 127 62 99 q 90 149 80 140 z "},"":{"ha":1185,"x_min":90,"x_max":1092,"o":"m 123 184 l 342 430 l 342 496 l 194 496 q 130 523 156 496 q 103 587 103 549 q 129 652 103 625 q 194 678 156 678 l 342 678 l 342 753 q 369 814 343 789 q 431 841 395 840 q 496 816 469 841 q 525 753 524 791 l 525 608 q 699 678 612 673 l 822 678 q 945 641 891 677 q 1030 554 998 605 q 1077 448 1062 503 q 1092 335 1092 392 q 1065 186 1092 259 q 958 58 1039 113 q 762 3 876 3 l 690 3 q 625 28 652 3 q 597 91 598 53 q 690 184 605 176 l 758 184 q 845 210 810 184 q 895 270 880 236 q 909 339 909 304 q 894 408 909 374 q 844 467 879 441 q 758 496 810 494 l 701 496 q 582 429 650 494 q 525 373 549 397 l 525 72 q 497 9 525 34 q 431 -16 469 -16 q 342 72 350 -9 l 342 165 l 254 64 q 210 31 233 41 q 151 37 186 22 q 103 87 117 52 q 104 157 90 122 q 123 184 113 174 z "},"":{"ha":1081,"x_min":38,"x_max":1038,"o":"m 174 731 q 200 782 174 761 q 264 803 227 803 l 674 803 q 739 783 712 803 q 765 731 765 761 q 760 696 765 712 l 692 566 l 774 566 q 922 517 861 562 q 1010 416 983 473 q 1038 302 1038 359 q 1011 169 1038 225 q 923 59 985 113 q 766 1 861 5 l 555 1 q 471 33 505 3 q 421 100 438 62 q 404 172 404 138 q 414 228 404 198 q 304 197 361 199 l 245 197 q 132 228 183 198 q 59 296 80 258 q 38 381 38 334 q 60 467 38 429 q 132 534 80 505 q 245 566 183 564 l 487 566 l 537 659 l 264 659 q 201 681 227 659 q 174 731 174 701 m 585 220 l 567 220 q 547 215 555 221 q 535 199 538 209 q 532 186 532 190 q 535 170 532 178 q 547 156 538 163 q 567 149 555 149 l 628 149 q 585 220 613 217 m 560 340 l 585 340 q 712 266 667 335 q 754 149 745 214 l 774 149 q 817 170 800 149 q 842 219 834 191 q 850 290 850 247 q 842 344 850 316 q 817 395 834 372 q 774 418 800 418 l 606 418 q 544 339 576 376 q 560 340 552 340 m 221 366 q 235 351 225 358 q 260 345 245 345 l 304 345 q 366 362 340 345 q 420 418 384 374 l 260 418 q 235 411 245 418 q 220 397 225 404 q 216 381 216 389 q 221 366 216 373 z "},"":{"ha":1118,"x_min":60,"x_max":1054,"o":"m 190 743 q 216 785 190 768 q 281 803 243 803 l 842 803 q 907 785 880 803 q 933 743 933 768 q 922 712 933 726 l 765 623 q 831 621 785 623 q 939 584 878 618 q 1027 505 1000 549 q 1054 418 1054 461 q 1027 314 1054 358 q 939 229 1001 270 q 783 183 878 187 l 562 183 l 456 123 l 842 123 q 906 106 880 123 q 933 62 933 90 q 907 20 933 38 q 842 3 880 3 l 237 3 q 172 20 199 3 q 146 62 146 38 q 157 94 146 80 l 321 187 q 245 208 279 193 q 173 260 194 231 q 152 319 152 290 q 172 378 152 346 q 248 433 193 411 q 366 452 302 454 l 514 452 q 692 392 636 446 q 742 307 728 355 l 791 307 q 833 321 817 307 q 859 356 850 336 q 867 408 867 376 q 859 447 867 427 q 833 481 850 467 q 791 495 817 495 l 151 495 q 87 514 113 495 q 60 557 60 532 q 86 604 60 586 q 151 623 113 623 l 518 623 l 624 682 l 281 682 q 217 700 243 682 q 190 743 190 716 m 515 350 l 374 350 q 349 346 359 350 q 334 336 339 342 q 330 328 330 331 q 334 321 330 326 q 349 311 339 316 q 374 307 359 307 l 583 307 q 515 350 563 347 z "},"":{"ha":1114,"x_min":81,"x_max":1042,"o":"m 81 669 q 108 727 81 703 q 172 751 134 751 l 392 751 l 396 773 q 432 827 403 807 q 498 844 461 848 q 557 808 534 837 q 576 751 578 783 l 951 751 q 1016 728 989 751 q 1042 669 1042 703 q 1015 610 1042 635 q 951 586 989 586 l 549 586 l 533 490 l 951 490 q 1015 463 989 490 q 1042 396 1042 435 q 1015 331 1042 358 q 951 304 989 304 l 707 304 l 705 297 q 667 239 699 260 q 598 224 636 217 q 521 304 524 243 l 415 304 q 382 293 395 302 q 363 271 369 283 q 357 247 357 258 q 363 220 357 233 q 382 198 369 208 q 415 189 395 189 l 850 189 q 915 161 888 189 q 941 96 941 134 q 914 30 941 57 q 850 3 888 3 l 441 3 q 284 44 346 3 q 196 138 222 85 q 170 244 170 190 q 197 351 170 298 q 285 445 224 403 q 345 473 311 463 l 363 586 l 172 586 q 109 610 134 586 q 81 669 81 635 z "},"":{"ha":1058,"x_min":71,"x_max":1031,"o":"m 438 826 q 488 780 472 812 q 494 713 505 747 l 444 571 q 481 581 465 581 l 534 581 q 670 534 613 581 q 728 400 727 487 l 727 304 q 750 205 719 228 q 831 179 780 182 l 943 179 q 1006 151 981 178 q 1031 88 1031 125 q 1004 28 1029 53 q 943 3 979 4 l 785 3 q 609 79 673 8 q 545 266 545 151 l 545 334 q 483 399 545 397 l 457 399 q 339 270 391 397 l 256 34 q 142 -19 221 -39 q 88 26 106 -7 q 83 95 71 60 l 320 773 q 368 823 334 808 q 438 826 401 838 z "},"":{"ha":1389,"x_min":39,"x_max":427,"o":"m 46 1039 q 39 1066 39 1053 q 42 1085 39 1076 q 73 1118 50 1109 q 103 1124 88 1124 q 126 1120 114 1124 q 168 1088 153 1112 q 236 972 195 1043 q 244 943 244 958 q 240 922 244 933 q 206 887 231 898 q 178 882 193 882 q 152 886 165 882 q 111 921 125 895 q 46 1039 71 996 m 231 1109 q 222 1139 222 1123 q 224 1156 222 1147 q 255 1188 232 1179 q 285 1195 270 1195 q 308 1192 296 1195 q 350 1160 335 1183 q 419 1043 380 1111 q 427 1015 427 1028 q 423 994 427 1005 q 391 960 415 970 q 363 954 377 954 q 338 959 351 954 q 298 993 312 968 q 231 1109 259 1065 z "},"":{"ha":1389,"x_min":41,"x_max":369,"o":"m 90 898 q 41 1015 41 947 q 89 1131 41 1082 q 205 1180 137 1180 q 321 1131 273 1180 q 369 1015 369 1082 q 321 898 369 947 q 205 849 273 849 q 90 898 137 849 m 146 1072 q 122 1015 122 1048 q 146 956 122 981 q 205 932 171 932 q 262 956 239 932 q 286 1015 286 981 q 262 1072 286 1048 q 205 1095 239 1095 q 146 1072 171 1095 z "},"":{"ha":1389,"x_min":458,"x_max":1066,"o":"m 1035 423 q 1066 340 1066 385 q 1058 293 1066 317 q 964 195 1035 222 q 680 84 857 156 q 640 77 659 77 q 604 84 621 77 q 547 134 566 98 q 537 172 537 153 q 543 203 537 189 q 593 254 556 240 q 719 302 636 270 q 826 345 802 335 q 831 361 840 350 q 684 540 785 429 q 483 745 582 651 q 458 803 458 769 q 490 865 458 842 q 557 888 519 888 q 564 888 562 888 q 636 857 606 886 q 851 635 739 757 q 1035 423 963 514 z "},"":{"ha":1389,"x_min":404,"x_max":1120,"o":"m 745 898 q 736 925 736 911 q 739 943 736 933 q 769 975 747 966 q 799 981 784 981 q 822 978 810 981 q 863 945 848 968 q 922 844 888 905 q 930 815 930 830 q 926 796 930 806 q 894 761 918 772 q 867 755 880 755 q 842 760 854 755 q 803 793 815 769 q 745 898 766 861 m 933 956 q 925 985 925 970 q 926 1001 925 993 q 958 1034 935 1025 q 986 1040 971 1040 q 1010 1036 998 1040 q 1051 1004 1038 1028 q 1112 903 1082 955 q 1120 875 1120 890 q 1116 856 1120 865 q 1084 821 1108 831 q 1057 815 1070 815 q 1032 819 1044 815 q 993 853 1006 829 q 933 956 959 914 m 982 395 q 1013 311 1013 357 q 1005 263 1013 288 q 911 167 982 193 q 627 57 799 125 q 587 49 608 49 q 551 56 570 49 q 494 106 513 71 q 484 145 484 125 q 490 176 484 160 q 540 225 505 212 q 668 275 585 243 q 773 317 751 308 q 779 334 787 323 q 629 512 731 400 q 430 716 526 624 q 404 774 404 741 q 437 837 404 814 q 503 860 467 860 q 511 860 507 860 q 582 829 552 857 q 798 607 685 730 q 982 395 910 484 z "},"":{"ha":932,"x_min":79,"x_max":844,"o":"m 79 568 q 100 621 79 600 q 152 642 122 642 l 629 642 q 751 600 703 639 q 822 513 800 562 q 844 414 844 464 q 823 313 844 362 q 752 226 802 264 q 627 189 703 187 l 567 189 q 515 210 536 189 q 494 260 494 231 q 515 313 494 292 q 567 334 536 334 l 633 334 q 667 347 654 334 q 688 378 681 361 q 694 415 694 396 q 688 450 694 433 q 667 481 681 468 q 633 496 654 495 l 152 496 q 100 518 122 496 q 79 568 79 538 m 404 442 q 452 420 434 441 q 468 372 469 400 l 461 313 q 420 168 450 237 q 334 53 389 100 q 202 1 278 5 l 155 1 q 104 22 125 3 q 84 72 84 42 q 104 123 84 102 q 155 146 123 145 l 184 146 q 256 178 225 149 q 300 245 288 208 q 317 327 312 282 l 321 372 q 351 422 327 401 q 404 442 374 442 z "},"":{"ha":1128,"x_min":81,"x_max":1038,"o":"m 81 712 q 108 777 81 750 q 172 803 134 803 l 769 803 q 922 751 861 799 q 1010 642 983 703 q 1038 518 1038 581 q 1011 392 1038 453 q 923 283 985 331 q 766 236 861 235 l 690 236 q 627 263 652 236 q 600 327 600 289 q 626 391 600 365 q 690 418 652 418 l 774 418 q 817 435 800 418 q 842 474 834 452 q 850 519 850 496 q 842 564 850 541 q 817 603 834 586 q 774 621 800 620 l 172 621 q 109 648 134 621 q 81 712 81 674 m 488 553 q 547 527 525 552 q 567 465 570 502 l 559 393 q 509 212 545 297 q 399 67 469 126 q 235 3 330 8 l 175 3 q 113 29 138 4 q 87 91 88 54 q 112 156 87 129 q 175 184 137 183 l 213 184 q 303 224 264 187 q 357 307 342 260 q 378 410 372 354 l 384 465 q 420 528 391 503 q 488 553 450 553 z "},"":{"ha":854,"x_min":71,"x_max":789,"o":"m 785 564 l 764 507 q 650 321 715 384 q 541 258 598 271 l 541 57 q 471 -14 536 -8 q 417 7 439 -14 q 395 57 395 27 l 395 254 l 141 254 q 92 275 113 255 q 71 324 72 296 q 91 377 71 355 q 141 399 111 399 l 471 399 q 549 431 513 401 q 604 497 585 460 q 637 578 623 534 l 650 612 q 673 650 658 635 q 718 665 688 665 q 768 643 747 665 q 789 590 789 621 q 785 564 789 576 z "},"":{"ha":1034,"x_min":65,"x_max":963,"o":"m 958 705 l 930 635 q 789 401 871 480 q 654 323 726 340 l 654 72 q 564 -16 646 -9 q 498 9 526 -16 q 471 72 471 34 l 471 317 l 153 317 q 92 344 117 319 q 65 406 66 369 q 90 471 65 444 q 153 499 115 498 l 566 499 q 663 538 617 502 q 731 622 708 575 q 773 722 754 669 l 789 765 q 817 812 799 793 q 873 830 836 830 q 937 803 910 830 q 963 738 963 776 q 958 705 963 720 z "},"":{"ha":921,"x_min":95,"x_max":848,"o":"m 197 583 l 397 583 l 397 600 q 419 650 397 631 q 472 670 441 670 q 522 649 500 669 q 544 600 543 629 l 544 583 l 772 583 q 825 563 803 583 q 845 511 848 538 l 821 312 q 781 167 810 235 q 694 52 750 99 q 562 0 637 4 l 463 0 q 412 21 433 1 q 392 71 392 41 q 412 122 392 100 q 463 145 431 144 l 544 145 q 616 177 586 148 q 659 243 647 206 q 677 326 671 281 l 685 411 q 667 438 689 437 l 278 438 q 241 401 240 437 l 241 292 q 170 221 235 227 q 117 241 140 221 q 95 292 95 262 l 95 487 q 122 558 96 533 q 197 583 148 583 z "},"":{"ha":1101,"x_min":77,"x_max":1017,"o":"m 205 732 l 454 732 l 454 753 q 483 816 456 791 q 548 841 510 841 q 610 814 585 840 q 637 753 636 789 l 637 732 l 924 732 q 989 707 962 732 q 1015 642 1017 677 l 985 393 q 935 212 971 297 q 825 67 895 126 q 661 3 755 8 l 536 3 q 474 29 499 4 q 448 91 449 54 q 473 156 448 129 q 536 184 498 183 l 639 184 q 729 224 690 187 q 783 307 768 260 q 804 410 798 354 l 815 517 q 792 551 819 549 l 305 551 q 260 505 259 549 l 260 368 q 171 279 252 286 q 105 304 133 279 q 77 368 77 330 l 77 612 q 111 701 79 669 q 205 732 144 732 z "},"":{"ha":856,"x_min":75,"x_max":783,"o":"m 75 75 q 96 125 75 104 q 148 146 117 146 l 355 146 l 355 496 l 148 496 q 96 518 117 496 q 75 568 75 538 q 96 621 75 600 q 148 642 117 642 l 709 642 q 762 621 741 642 q 783 568 783 600 q 762 517 783 538 q 709 496 741 496 l 502 496 l 502 146 l 709 146 q 762 126 741 146 q 783 75 783 104 q 762 22 783 43 q 709 1 741 1 l 148 1 q 96 23 117 1 q 75 75 75 43 z "},"":{"ha":1031,"x_min":73,"x_max":958,"o":"m 73 94 q 100 158 73 132 q 164 184 126 184 l 425 184 l 425 621 l 164 621 q 100 648 126 621 q 73 712 73 674 q 100 777 73 750 q 164 803 126 803 l 867 803 q 932 777 905 803 q 958 712 958 750 q 931 648 958 674 q 867 621 905 621 l 608 621 l 608 184 l 867 184 q 932 159 905 184 q 958 94 958 132 q 931 29 958 56 q 867 3 905 3 l 164 3 q 100 30 126 3 q 73 94 73 56 z "},"":{"ha":850,"x_min":54,"x_max":789,"o":"m 54 534 q 75 585 54 564 q 126 606 96 606 l 519 606 q 543 654 522 635 q 594 674 564 674 q 644 652 624 673 q 666 606 663 633 l 718 606 q 769 586 747 606 q 789 534 789 564 q 768 482 789 503 q 718 461 747 461 l 666 461 l 666 58 q 594 -12 659 -7 q 542 8 564 -12 q 519 58 519 28 l 519 461 l 126 461 q 76 483 96 461 q 54 534 54 503 m 403 444 q 450 422 433 442 q 467 373 468 403 l 460 316 q 419 171 449 239 q 332 55 388 102 q 201 3 277 8 l 129 3 q 79 24 99 4 q 58 73 60 45 q 79 126 58 104 q 129 149 99 148 l 183 149 q 255 180 224 151 q 298 247 286 209 q 316 328 311 285 l 320 373 q 349 424 326 404 q 403 444 373 444 z "},"":{"ha":1062,"x_min":81,"x_max":1001,"o":"m 81 666 q 108 730 81 704 q 172 757 134 757 l 663 757 q 692 817 666 792 q 757 841 719 841 q 819 815 793 840 q 846 757 844 791 l 910 757 q 975 731 948 757 q 1001 666 1001 704 q 975 602 1001 628 q 910 575 948 575 l 846 575 l 846 72 q 757 -16 838 -9 q 691 9 719 -16 q 663 72 663 34 l 663 575 l 172 575 q 109 602 134 575 q 81 666 81 628 m 518 553 q 577 527 555 552 q 597 465 600 502 l 589 393 q 538 212 575 297 q 429 67 499 126 q 264 3 359 8 l 175 3 q 113 29 138 4 q 87 91 88 54 q 112 156 87 129 q 175 184 137 183 l 243 184 q 333 224 294 187 q 387 307 372 260 q 408 410 401 354 l 414 465 q 450 528 420 503 q 518 553 480 553 z "},"":{"ha":1105,"x_min":49,"x_max":1017,"o":"m 81 642 q 108 706 81 680 q 172 732 134 732 l 387 732 l 389 753 q 426 816 396 791 q 494 841 456 841 q 553 814 530 840 q 572 753 575 789 l 570 732 l 924 732 q 989 707 962 732 q 1015 642 1017 677 l 985 393 q 935 212 971 297 q 827 64 895 126 q 685 3 758 1 l 601 3 q 539 29 564 4 q 513 91 514 54 q 538 156 513 129 q 601 184 563 183 l 663 184 q 736 223 704 186 q 783 307 768 260 q 804 410 798 354 l 815 517 q 792 551 819 549 l 544 551 l 521 393 q 471 212 507 297 q 361 67 431 126 q 197 3 292 8 l 137 3 q 75 29 100 4 q 49 91 50 54 q 74 156 49 129 q 137 184 99 183 l 175 184 q 265 224 227 187 q 319 307 304 260 q 340 410 334 354 l 361 551 l 172 551 q 109 578 134 551 q 81 642 81 604 z "},"":{"ha":1105,"x_min":49,"x_max":1042,"o":"m 81 642 q 108 706 81 680 q 172 732 134 732 l 387 732 l 389 753 q 426 816 396 791 q 494 841 456 841 q 553 814 530 840 q 572 753 575 789 l 570 732 l 924 732 q 989 707 962 732 q 1015 642 1017 677 l 985 393 q 935 212 971 297 q 827 64 895 126 q 685 3 758 1 l 601 3 q 539 29 564 4 q 513 91 514 54 q 538 156 513 129 q 601 184 563 183 l 663 184 q 736 223 704 186 q 783 307 768 260 q 804 410 798 354 l 815 517 q 792 551 819 549 l 544 551 l 521 393 q 471 212 507 297 q 361 67 431 126 q 197 3 292 8 l 137 3 q 75 29 100 4 q 49 91 50 54 q 74 156 49 129 q 137 184 99 183 l 175 184 q 265 224 227 187 q 319 307 304 260 q 340 410 334 354 l 361 551 l 172 551 q 109 578 134 551 q 81 642 81 604 m 613 884 q 642 954 613 925 q 711 982 670 982 q 780 954 751 982 q 808 884 808 925 q 780 815 808 844 q 711 787 751 787 q 642 815 670 787 q 613 884 613 844 m 846 884 q 875 954 846 925 q 944 982 903 982 q 1013 954 985 982 q 1042 884 1042 925 q 1013 815 1042 844 q 944 787 985 787 q 875 815 903 787 q 846 884 846 844 z "},"":{"ha":1100,"x_min":81,"x_max":1025,"o":"m 81 604 q 108 668 81 642 q 172 694 134 694 l 437 694 l 431 753 q 454 816 430 791 q 517 841 479 841 q 582 814 553 840 q 614 753 610 789 l 620 694 l 935 694 q 1000 669 972 694 q 1025 604 1025 642 q 999 539 1025 566 q 935 513 972 513 l 639 513 l 652 372 l 935 372 q 1000 346 972 372 q 1025 281 1025 319 q 999 216 1025 243 q 935 190 972 190 l 670 190 l 682 72 q 601 -16 681 -9 q 532 9 563 -16 q 499 72 502 34 l 487 190 l 172 190 q 109 217 134 190 q 81 281 81 243 q 108 345 81 319 q 172 372 134 372 l 469 372 l 456 513 l 172 513 q 109 540 134 513 q 81 604 81 566 z "},"":{"ha":1100,"x_min":81,"x_max":1090,"o":"m 81 604 q 108 668 81 642 q 172 694 134 694 l 437 694 l 431 753 q 454 816 430 791 q 517 841 479 841 q 582 814 553 840 q 614 753 610 789 l 620 694 l 935 694 q 1000 669 972 694 q 1025 604 1025 642 q 999 539 1025 566 q 935 513 972 513 l 639 513 l 652 372 l 935 372 q 1000 346 972 372 q 1025 281 1025 319 q 999 216 1025 243 q 935 190 972 190 l 670 190 l 682 72 q 601 -16 681 -9 q 532 9 563 -16 q 499 72 502 34 l 487 190 l 172 190 q 109 217 134 190 q 81 281 81 243 q 108 345 81 319 q 172 372 134 372 l 469 372 l 456 513 l 172 513 q 109 540 134 513 q 81 604 81 566 m 662 852 q 690 921 662 892 q 760 949 719 949 q 829 921 800 949 q 857 852 857 892 q 829 783 857 811 q 760 754 800 754 q 690 783 719 754 q 662 852 662 811 m 895 852 q 924 921 895 892 q 993 949 952 949 q 1062 921 1034 949 q 1090 852 1090 892 q 1062 783 1090 811 q 993 754 1034 754 q 924 783 952 754 q 895 852 895 811 z "},"":{"ha":1192,"x_min":57,"x_max":1093,"o":"m 423 803 l 1000 803 q 1065 777 1038 803 q 1090 712 1093 747 l 1047 393 q 997 212 1034 297 q 888 67 958 126 q 723 3 818 8 l 598 3 q 536 29 562 4 q 510 91 511 54 q 535 156 510 129 q 598 184 560 183 l 701 184 q 791 224 753 187 q 845 307 830 260 q 867 410 860 354 l 891 587 q 868 621 895 620 l 486 621 q 449 510 472 563 q 340 366 410 425 q 175 301 270 307 l 145 301 q 83 328 109 302 q 57 389 58 353 q 82 454 57 427 q 145 483 107 481 l 153 483 q 243 522 205 486 q 297 606 282 559 q 319 708 312 652 l 319 715 q 355 779 326 753 q 423 803 385 803 z "},"":{"ha":1194,"x_min":57,"x_max":1118,"o":"m 423 803 l 1000 803 q 1065 777 1038 803 q 1090 712 1093 747 l 1047 393 q 997 212 1034 297 q 888 67 958 126 q 723 3 818 8 l 598 3 q 536 29 562 4 q 510 91 511 54 q 535 156 510 129 q 598 184 560 183 l 701 184 q 791 224 753 187 q 845 307 830 260 q 867 410 860 354 l 891 587 q 868 621 895 620 l 486 621 q 449 510 472 563 q 340 366 410 425 q 175 301 270 307 l 145 301 q 83 328 109 302 q 57 389 58 353 q 82 454 57 427 q 145 483 107 481 l 153 483 q 243 522 205 486 q 297 606 282 559 q 319 708 312 652 l 319 715 q 355 779 326 753 q 423 803 385 803 m 689 955 q 718 1024 689 996 q 787 1053 746 1053 q 856 1024 827 1053 q 884 955 884 996 q 856 886 884 914 q 787 857 827 857 q 718 886 746 857 q 689 955 689 914 m 922 955 q 951 1024 922 996 q 1020 1053 979 1053 q 1089 1024 1061 1053 q 1118 955 1118 996 q 1089 886 1118 914 q 1020 857 1061 857 q 951 886 979 857 q 922 955 922 914 z "},"":{"ha":1179,"x_min":57,"x_max":1115,"o":"m 429 841 q 488 814 465 840 q 507 753 510 789 l 507 751 l 1024 751 q 1089 726 1062 751 q 1115 661 1115 699 q 1088 596 1115 623 q 1024 570 1062 570 l 890 570 l 865 393 q 815 212 852 297 q 706 67 776 126 q 541 3 636 8 l 389 3 q 328 29 353 4 q 301 91 302 54 q 326 156 301 129 q 389 184 351 183 l 519 184 q 610 224 571 187 q 663 307 648 260 q 685 410 678 354 l 707 570 l 471 570 q 449 510 461 540 q 340 366 410 425 q 175 301 270 307 l 145 301 q 83 328 109 302 q 57 389 58 353 q 82 454 57 427 q 145 483 107 481 l 153 483 q 243 522 205 486 q 297 606 282 559 q 319 708 312 652 l 324 753 q 361 816 331 791 q 429 841 391 841 z "},"":{"ha":1179,"x_min":57,"x_max":1123,"o":"m 429 841 q 488 814 465 840 q 507 753 510 789 l 507 751 l 1024 751 q 1089 726 1062 751 q 1115 661 1115 699 q 1088 596 1115 623 q 1024 570 1062 570 l 890 570 l 865 393 q 815 212 852 297 q 706 67 776 126 q 541 3 636 8 l 389 3 q 328 29 353 4 q 301 91 302 54 q 326 156 301 129 q 389 184 351 183 l 519 184 q 610 224 571 187 q 663 307 648 260 q 685 410 678 354 l 707 570 l 471 570 q 449 510 461 540 q 340 366 410 425 q 175 301 270 307 l 145 301 q 83 328 109 302 q 57 389 58 353 q 82 454 57 427 q 145 483 107 481 l 153 483 q 243 522 205 486 q 297 606 282 559 q 319 708 312 652 l 324 753 q 361 816 331 791 q 429 841 391 841 m 694 901 q 723 970 694 941 q 792 998 751 998 q 861 970 833 998 q 890 901 890 941 q 861 831 890 860 q 792 803 833 803 q 723 831 751 803 q 694 901 694 860 m 928 901 q 956 970 928 941 q 1025 998 985 998 q 1095 970 1066 998 q 1123 901 1123 941 q 1095 831 1123 860 q 1025 803 1066 803 q 956 831 985 803 q 928 901 928 860 z "},"":{"ha":1054,"x_min":84,"x_max":943,"o":"m 671 803 q 827 730 766 798 q 916 578 888 663 q 943 403 943 492 q 916 228 943 313 q 828 75 890 142 q 671 3 766 8 l 172 3 q 111 29 136 4 q 84 91 85 54 q 109 156 84 129 q 172 184 134 183 l 625 184 q 711 224 677 187 q 760 307 745 260 q 776 403 776 354 q 760 498 776 452 q 711 582 745 545 q 625 621 677 618 l 172 621 q 84 709 91 628 q 109 774 84 747 q 172 803 134 802 l 671 803 z "},"":{"ha":1054,"x_min":84,"x_max":943,"o":"m 671 803 q 827 730 766 798 q 916 578 888 663 q 943 403 943 492 q 916 228 943 313 q 828 75 890 142 q 671 3 766 8 l 646 3 l 172 3 q 111 29 136 4 q 84 91 85 54 q 109 156 84 129 q 172 184 134 183 l 625 184 q 711 224 677 187 q 760 307 745 260 q 776 403 776 354 q 760 498 776 452 q 711 582 745 545 q 625 621 677 618 l 172 621 q 84 709 91 628 q 109 774 84 747 q 172 803 134 802 l 609 803 l 671 803 m 510 955 q 538 1024 510 996 q 608 1053 567 1053 q 677 1024 648 1053 q 705 955 705 996 q 677 886 705 914 q 608 857 648 857 q 538 886 567 857 q 510 955 510 914 m 743 955 q 772 1024 743 996 q 841 1053 800 1053 q 910 1024 882 1053 q 939 955 939 996 q 910 886 939 914 q 841 857 882 857 q 772 886 800 857 q 743 955 743 914 z "},"":{"ha":1181,"x_min":81,"x_max":1107,"o":"m 81 614 q 108 679 81 652 q 172 705 134 705 l 264 705 l 264 753 q 293 816 266 791 q 358 841 320 841 q 420 814 395 840 q 448 753 446 789 l 448 705 l 749 705 l 755 753 q 792 816 762 791 q 860 841 822 841 q 919 814 897 840 q 939 753 941 789 l 932 705 l 1016 705 q 1081 680 1054 705 q 1107 614 1107 652 q 1080 550 1107 576 q 1016 524 1054 524 l 906 524 l 887 393 q 837 212 873 297 q 728 67 798 126 q 563 3 658 8 l 346 3 q 284 29 309 4 q 258 91 259 54 q 283 156 258 129 q 346 184 308 183 l 541 184 q 631 224 593 187 q 685 307 670 260 q 707 410 700 354 l 723 524 l 448 524 l 448 384 q 358 296 439 302 q 292 321 320 296 q 264 384 264 346 l 264 524 l 172 524 q 109 551 134 524 q 81 614 81 576 z "},"":{"ha":1181,"x_min":81,"x_max":1107,"o":"m 81 614 q 108 679 81 652 q 172 705 134 705 l 264 705 l 264 753 q 293 816 266 791 q 358 841 320 841 q 420 814 395 840 q 448 753 446 789 l 448 705 l 749 705 l 755 753 q 792 816 762 791 q 860 841 822 841 q 919 814 897 840 q 939 753 941 789 l 932 705 l 1016 705 q 1081 680 1054 705 q 1107 614 1107 652 q 1080 550 1107 576 q 1016 524 1054 524 l 906 524 l 887 393 q 837 212 873 297 q 728 67 798 126 q 563 3 658 8 l 346 3 q 284 29 309 4 q 258 91 259 54 q 283 156 258 129 q 346 184 308 183 l 541 184 q 631 224 593 187 q 685 307 670 260 q 707 410 700 354 l 723 524 l 448 524 l 448 384 q 358 296 439 302 q 292 321 320 296 q 264 384 264 346 l 264 524 l 172 524 q 109 551 134 524 q 81 614 81 576 m 640 955 q 669 1024 640 996 q 738 1053 697 1053 q 807 1024 779 1053 q 836 955 836 996 q 807 886 836 914 q 738 857 779 857 q 669 886 697 857 q 640 955 640 914 m 873 955 q 902 1024 873 996 q 971 1053 930 1053 q 1040 1024 1012 1053 q 1069 955 1069 996 q 1040 886 1069 914 q 971 857 1012 857 q 902 886 930 857 q 873 955 873 914 z "},"":{"ha":1085,"x_min":81,"x_max":1009,"o":"m 81 712 q 108 777 81 750 q 172 803 134 803 l 566 803 q 631 777 604 803 q 656 712 656 750 q 630 648 656 674 q 566 621 604 621 l 172 621 q 109 648 134 621 q 81 712 81 674 m 87 430 q 113 494 87 468 q 178 521 140 521 l 528 521 q 593 495 566 521 q 618 430 618 468 q 592 366 618 392 q 528 339 566 339 l 178 339 q 114 366 140 339 q 87 430 87 392 m 928 825 q 987 798 964 823 q 1006 736 1009 773 l 960 393 q 910 212 947 297 q 801 67 871 126 q 636 3 731 8 l 381 3 q 319 29 345 4 q 293 91 294 54 q 318 156 293 129 q 381 184 343 183 l 614 184 q 705 224 666 187 q 758 307 743 260 q 780 410 773 354 l 823 736 q 860 800 830 774 q 928 825 890 825 z "},"":{"ha":1085,"x_min":81,"x_max":1031,"o":"m 81 712 q 108 777 81 750 q 172 803 134 803 l 566 803 q 631 777 604 803 q 656 712 656 750 q 630 648 656 674 q 566 621 604 621 l 172 621 q 109 648 134 621 q 81 712 81 674 m 87 430 q 113 494 87 468 q 178 521 140 521 l 528 521 q 593 495 566 521 q 618 430 618 468 q 592 366 618 392 q 528 339 566 339 l 178 339 q 114 366 140 339 q 87 430 87 392 m 928 825 q 987 798 964 823 q 1006 736 1009 773 l 960 393 q 910 212 947 297 q 801 67 871 126 q 636 3 731 8 l 381 3 q 319 29 345 4 q 293 91 294 54 q 318 156 293 129 q 381 184 343 183 l 614 184 q 705 224 666 187 q 758 307 743 260 q 780 410 773 354 l 823 736 q 860 800 830 774 q 928 825 890 825 m 602 955 q 631 1024 602 996 q 700 1053 659 1053 q 769 1024 741 1053 q 798 955 798 996 q 769 886 798 914 q 700 857 741 857 q 631 886 659 857 q 602 955 602 914 m 836 955 q 864 1024 836 996 q 933 1053 892 1053 q 1002 1024 974 1053 q 1031 955 1031 996 q 1002 886 1031 914 q 933 857 974 857 q 864 886 892 857 q 836 955 836 914 z "},"":{"ha":1093,"x_min":81,"x_max":1035,"o":"m 81 712 q 108 777 81 750 q 172 803 134 803 l 853 803 q 918 777 891 803 q 944 712 944 750 q 933 667 944 688 l 746 359 l 982 136 q 983 11 1035 75 q 920 -20 958 -16 q 856 3 883 -24 l 640 206 q 521 87 582 133 q 319 3 416 8 l 178 3 q 116 29 141 4 q 90 91 91 54 q 115 156 90 129 q 178 184 140 183 l 305 184 q 412 224 357 187 q 505 307 468 260 q 574 410 541 354 l 700 621 l 172 621 q 109 648 134 621 q 81 712 81 674 z "},"":{"ha":1093,"x_min":81,"x_max":1035,"o":"m 81 712 q 108 777 81 750 q 172 803 134 803 l 853 803 q 918 777 891 803 q 944 712 944 750 q 933 667 944 688 l 746 359 l 982 136 q 983 11 1035 75 q 920 -20 958 -16 q 856 3 883 -24 l 640 206 q 521 87 582 133 q 319 3 416 8 l 178 3 q 116 29 141 4 q 90 91 91 54 q 115 156 90 129 q 178 184 140 183 l 305 184 q 412 224 357 187 q 505 307 468 260 q 574 410 541 354 l 700 621 l 172 621 q 109 648 134 621 q 81 712 81 674 m 559 955 q 587 1024 559 996 q 656 1053 616 1053 q 726 1024 697 1053 q 754 955 754 996 q 726 886 754 914 q 656 857 697 857 q 587 886 616 857 q 559 955 559 914 m 792 955 q 821 1024 792 996 q 890 1053 849 1053 q 959 1024 930 1053 q 987 955 987 996 q 959 886 987 914 q 890 857 930 857 q 821 886 849 857 q 792 955 792 914 z "},"":{"ha":1181,"x_min":60,"x_max":1095,"o":"m 320 841 q 385 816 358 841 q 414 753 412 791 l 414 727 l 826 727 q 979 684 918 723 q 1067 596 1040 646 q 1095 496 1095 547 q 1068 395 1095 445 q 980 307 1042 346 q 823 269 918 269 l 604 269 q 540 296 566 269 q 513 359 513 321 q 539 424 513 397 q 604 450 566 450 l 849 450 q 882 458 869 450 q 901 477 895 467 q 907 498 907 487 q 901 517 907 507 q 882 536 895 528 q 849 545 869 544 l 414 545 l 414 410 q 421 307 412 354 q 464 224 430 260 q 549 184 498 187 l 880 184 q 943 156 918 183 q 968 91 968 129 q 942 29 967 54 q 880 3 917 4 l 503 3 q 347 67 408 8 q 258 212 285 126 q 231 393 232 297 l 231 545 l 151 545 q 87 572 113 545 q 60 636 60 598 q 86 701 60 674 q 151 727 113 727 l 231 727 l 231 753 q 258 814 232 789 q 320 841 283 840 z "},"":{"ha":1180,"x_min":60,"x_max":1096,"o":"m 320 841 q 385 816 358 841 q 414 753 412 791 l 414 727 l 826 727 q 979 684 918 723 q 1067 596 1040 646 q 1095 496 1095 547 q 1068 395 1095 445 q 980 307 1042 346 q 823 269 918 269 l 604 269 q 540 296 566 269 q 513 359 513 321 q 539 424 513 397 q 604 450 566 450 l 849 450 q 882 458 869 450 q 901 477 895 467 q 907 498 907 487 q 901 517 907 507 q 882 536 895 528 q 849 545 869 544 l 414 545 l 414 410 q 421 307 412 354 q 464 224 430 260 q 549 184 498 187 l 880 184 q 943 156 918 183 q 968 91 968 129 q 942 29 967 54 q 880 3 917 4 l 503 3 q 347 67 408 8 q 258 212 285 126 q 231 393 232 297 l 231 545 l 151 545 q 87 572 113 545 q 60 636 60 598 q 86 701 60 674 q 151 727 113 727 l 231 727 l 231 753 q 258 814 232 789 q 320 841 283 840 m 667 868 q 696 937 667 909 q 765 966 724 966 q 834 937 806 966 q 863 868 863 909 q 834 799 863 827 q 765 770 806 770 q 696 799 724 770 q 667 868 667 827 m 901 868 q 929 937 901 909 q 998 966 958 966 q 1067 937 1039 966 q 1096 868 1096 909 q 1067 799 1096 827 q 998 770 1039 770 q 929 799 958 770 q 901 868 901 827 z "},"":{"ha":1057,"x_min":53,"x_max":993,"o":"m 987 705 l 863 320 q 727 87 808 165 q 549 3 646 8 l 441 3 q 379 29 404 4 q 353 91 354 54 q 378 156 353 129 q 441 184 403 183 l 503 184 q 600 224 555 187 q 669 307 646 260 q 708 410 692 354 l 819 765 q 847 812 829 793 q 903 830 865 830 q 966 803 940 830 q 993 738 993 776 q 987 705 993 720 m 117 823 q 184 825 151 837 q 235 779 218 812 l 391 427 q 345 311 415 349 q 274 306 309 294 q 222 353 239 317 l 66 705 q 67 774 53 741 q 117 823 81 808 z "},"":{"ha":1058,"x_min":53,"x_max":1031,"o":"m 987 705 l 863 320 q 727 87 808 165 q 549 3 646 8 l 441 3 q 379 29 404 4 q 353 91 354 54 q 378 156 353 129 q 441 184 403 183 l 503 184 q 600 224 555 187 q 669 307 646 260 q 708 410 692 354 l 819 765 q 847 812 829 793 q 903 830 865 830 q 966 803 940 830 q 993 738 993 776 q 987 705 993 720 m 117 823 q 184 825 151 837 q 235 779 218 812 l 391 427 q 345 311 415 349 q 274 306 309 294 q 222 353 239 317 l 66 705 q 67 774 53 741 q 117 823 81 808 m 602 955 q 631 1024 602 996 q 700 1053 659 1053 q 769 1024 741 1053 q 798 955 798 996 q 769 886 798 914 q 700 857 741 857 q 631 886 659 857 q 602 955 602 914 m 836 955 q 864 1024 836 996 q 933 1053 892 1053 q 1002 1024 974 1053 q 1031 955 1031 996 q 1002 886 1031 914 q 933 857 974 857 q 864 886 892 857 q 836 955 836 914 z "},"":{"ha":1208,"x_min":57,"x_max":1101,"o":"m 423 803 l 1008 803 q 1073 777 1046 803 q 1099 712 1101 747 l 1055 393 q 1005 212 1042 297 q 896 67 966 126 q 731 3 826 8 l 598 3 q 536 29 562 4 q 510 91 511 54 q 535 156 510 129 q 598 184 560 183 l 709 184 q 800 224 761 187 q 853 308 838 260 q 856 317 854 312 l 590 317 q 526 345 552 317 q 499 408 499 370 q 526 473 499 446 q 590 499 552 499 l 887 499 l 899 587 q 876 621 903 620 l 486 621 q 449 510 472 563 q 340 366 410 425 q 175 301 270 307 l 145 301 q 83 328 109 302 q 57 389 58 353 q 82 454 57 427 q 145 483 107 481 l 153 483 q 243 522 205 486 q 297 606 282 559 q 319 708 312 652 l 319 715 q 355 779 326 753 q 423 803 385 803 z "},"":{"ha":1208,"x_min":57,"x_max":1123,"o":"m 423 803 l 1008 803 q 1073 777 1046 803 q 1099 712 1101 747 l 1055 393 q 1005 212 1042 297 q 896 67 966 126 q 731 3 826 8 l 598 3 q 536 29 562 4 q 510 91 511 54 q 535 156 510 129 q 598 184 560 183 l 709 184 q 800 224 761 187 q 853 308 838 260 q 856 317 854 312 l 590 317 q 526 345 552 317 q 499 408 499 370 q 526 473 499 446 q 590 499 552 499 l 887 499 l 899 587 q 876 621 903 620 l 486 621 q 449 510 472 563 q 340 366 410 425 q 175 301 270 307 l 145 301 q 83 328 109 302 q 57 389 58 353 q 82 454 57 427 q 145 483 107 481 l 153 483 q 243 522 205 486 q 297 606 282 559 q 319 708 312 652 l 319 715 q 355 779 326 753 q 423 803 385 803 m 694 955 q 723 1024 694 996 q 792 1053 751 1053 q 861 1024 833 1053 q 890 955 890 996 q 861 886 890 914 q 792 857 833 857 q 723 886 751 857 q 694 955 694 914 m 928 955 q 956 1024 928 996 q 1025 1053 985 1053 q 1095 1024 1066 1053 q 1123 955 1123 996 q 1095 886 1123 914 q 1025 857 1066 857 q 956 886 985 857 q 928 955 928 914 z "},"":{"ha":1078,"x_min":81,"x_max":996,"o":"m 81 712 q 108 777 81 750 q 172 803 134 803 l 899 803 q 964 777 937 803 q 990 712 990 750 q 964 648 990 674 q 899 621 937 621 l 699 621 l 681 499 l 905 499 q 970 473 943 499 q 996 408 996 446 q 969 344 996 370 q 905 317 943 317 l 654 317 l 647 274 q 549 81 631 161 q 368 3 468 1 l 180 3 q 119 29 144 4 q 92 91 94 54 q 117 156 92 129 q 180 184 142 183 l 343 184 q 427 217 393 184 q 471 317 460 250 l 178 317 q 114 345 140 317 q 87 408 87 370 q 113 473 87 446 q 178 499 140 499 l 498 499 l 515 621 l 172 621 q 109 648 134 621 q 81 712 81 674 z "},"":{"ha":1078,"x_min":81,"x_max":996,"o":"m 81 712 q 108 777 81 750 q 172 803 134 803 l 899 803 q 964 777 937 803 q 990 712 990 750 q 964 648 990 674 q 899 621 937 621 l 699 621 l 681 499 l 905 499 q 970 473 943 499 q 996 408 996 446 q 969 344 996 370 q 905 317 943 317 l 654 317 l 647 274 q 549 81 631 161 q 368 3 468 1 l 180 3 q 119 29 144 4 q 92 91 94 54 q 117 156 92 129 q 180 184 142 183 l 343 184 q 427 217 393 184 q 471 317 460 250 l 178 317 q 114 345 140 317 q 87 408 87 370 q 113 473 87 446 q 178 499 140 499 l 498 499 l 515 621 l 172 621 q 109 648 134 621 q 81 712 81 674 m 559 955 q 587 1024 559 996 q 656 1053 616 1053 q 726 1024 697 1053 q 754 955 754 996 q 726 886 754 914 q 656 857 697 857 q 587 886 616 857 q 559 955 559 914 m 792 955 q 821 1024 792 996 q 890 1053 849 1053 q 959 1024 930 1053 q 987 955 987 996 q 959 886 987 914 q 890 857 930 857 q 821 886 849 857 q 792 955 792 914 z "},"":{"ha":876,"x_min":90,"x_max":796,"o":"m 792 547 l 700 256 q 591 69 656 132 q 450 1 526 7 l 363 1 q 313 23 334 3 q 293 72 293 43 q 313 125 293 103 q 363 148 332 146 l 412 148 q 490 178 454 149 q 545 245 526 208 q 576 327 564 283 l 656 594 q 680 632 665 617 q 724 647 694 647 q 775 625 754 647 q 796 572 796 604 q 792 547 796 559 m 164 642 q 214 621 194 642 q 236 571 235 601 l 236 350 q 164 279 229 285 q 112 300 134 279 q 90 350 90 320 l 90 571 q 113 622 91 602 q 164 642 134 642 m 381 642 q 431 621 411 642 q 453 571 452 601 l 453 350 q 381 279 446 285 q 329 300 351 279 q 307 350 307 320 l 307 571 q 330 622 308 602 q 381 642 351 642 z "},"":{"ha":1074,"x_min":104,"x_max":987,"o":"m 982 684 l 868 320 q 732 87 814 165 q 555 3 651 8 l 446 3 q 385 29 410 4 q 358 91 359 54 q 383 156 358 129 q 446 184 408 183 l 509 184 q 606 224 560 187 q 674 307 651 260 q 713 410 697 354 l 814 743 q 842 790 823 772 q 898 808 860 808 q 961 781 935 808 q 987 716 987 754 q 982 684 987 699 m 198 803 q 260 777 235 802 q 288 715 286 751 l 288 438 q 198 350 279 357 q 132 375 160 350 q 104 438 104 400 l 104 715 q 133 778 106 753 q 198 803 160 803 m 469 803 q 532 777 506 802 q 559 715 557 751 l 559 438 q 469 350 551 357 q 404 375 431 350 q 376 438 376 400 l 376 715 q 404 778 377 753 q 469 803 431 803 z "},"":{"ha":1073,"x_min":104,"x_max":990,"o":"m 982 684 l 868 320 q 732 87 814 165 q 555 3 651 8 l 446 3 q 385 29 410 4 q 358 91 359 54 q 383 156 358 129 q 446 184 408 183 l 509 184 q 606 224 560 187 q 674 307 651 260 q 713 410 697 354 l 814 743 q 842 790 823 772 q 898 808 860 808 q 961 781 935 808 q 987 716 987 754 q 982 684 987 699 m 198 803 q 260 777 235 802 q 288 715 286 751 l 288 438 q 198 350 279 357 q 132 375 160 350 q 104 438 104 400 l 104 715 q 133 778 106 753 q 198 803 160 803 m 469 803 q 532 777 506 802 q 559 715 557 751 l 559 438 q 469 350 551 357 q 404 375 431 350 q 376 438 376 400 l 376 715 q 404 778 377 753 q 469 803 431 803 m 562 955 q 590 1024 562 996 q 659 1053 618 1053 q 728 1024 700 1053 q 757 955 757 996 q 728 886 757 914 q 659 857 700 857 q 590 886 618 857 q 562 955 562 914 m 795 955 q 823 1024 795 996 q 892 1053 852 1053 q 962 1024 933 1053 q 990 955 990 996 q 962 886 990 914 q 892 857 933 857 q 823 886 852 857 q 795 955 795 914 z "},"":{"ha":1025,"x_min":81,"x_max":949,"o":"m 81 712 q 108 777 81 750 q 172 803 134 803 l 853 803 q 918 777 891 803 q 944 712 944 750 q 918 648 944 674 q 853 621 891 621 l 172 621 q 109 648 134 621 q 81 712 81 674 m 87 408 q 113 473 87 446 q 178 499 140 499 l 859 499 q 924 473 897 499 q 949 408 949 446 q 923 344 949 370 q 859 317 897 317 l 667 317 q 646 212 661 263 q 557 67 618 126 q 400 3 495 8 l 183 3 q 121 29 146 4 q 95 91 96 54 q 120 156 95 129 q 183 184 145 183 l 354 184 q 439 224 406 187 q 483 308 473 260 q 484 317 483 312 l 178 317 q 114 345 140 317 q 87 408 87 370 z "},"":{"ha":1025,"x_min":81,"x_max":949,"o":"m 81 712 q 108 777 81 750 q 172 803 134 803 l 853 803 q 918 777 891 803 q 944 712 944 750 q 918 648 944 674 q 853 621 891 621 l 172 621 q 109 648 134 621 q 81 712 81 674 m 87 408 q 113 473 87 446 q 178 499 140 499 l 859 499 q 924 473 897 499 q 949 408 949 446 q 923 344 949 370 q 859 317 897 317 l 667 317 q 646 212 661 263 q 557 67 618 126 q 400 3 495 8 l 183 3 q 121 29 146 4 q 95 91 96 54 q 120 156 95 129 q 183 184 145 183 l 354 184 q 439 224 406 187 q 483 308 473 260 q 484 317 483 312 l 178 317 q 114 345 140 317 q 87 408 87 370 m 521 955 q 549 1024 521 996 q 618 1053 578 1053 q 688 1024 659 1053 q 716 955 716 996 q 688 886 716 914 q 618 857 659 857 q 549 886 578 857 q 521 955 521 914 m 754 955 q 783 1024 754 996 q 852 1053 811 1053 q 921 1024 892 1053 q 949 955 949 996 q 921 886 949 914 q 852 857 892 857 q 783 886 811 857 q 754 955 754 914 z "},"":{"ha":1004,"x_min":104,"x_max":922,"o":"m 198 825 q 260 798 235 823 q 288 736 286 773 l 288 499 l 831 499 q 897 473 869 499 q 922 408 922 446 q 896 344 922 370 q 831 317 869 317 l 288 317 l 288 72 q 198 -16 279 -9 q 132 9 160 -16 q 104 72 104 34 l 104 736 q 133 800 106 774 q 198 825 160 825 z "},"":{"ha":1004,"x_min":104,"x_max":922,"o":"m 488 727 q 517 796 488 768 q 586 825 545 825 q 655 796 627 825 q 684 727 684 768 q 655 658 684 686 q 586 629 627 629 q 517 658 545 629 q 488 727 488 686 m 722 727 q 750 796 722 768 q 819 825 779 825 q 888 796 860 825 q 917 727 917 768 q 888 658 917 686 q 819 629 860 629 q 750 658 779 629 q 722 727 722 686 m 198 825 q 260 798 235 823 q 288 736 286 773 l 288 499 l 831 499 q 897 473 869 499 q 922 408 922 446 q 896 344 922 370 q 831 317 869 317 l 288 317 l 288 72 q 198 -16 279 -9 q 132 9 160 -16 q 104 72 104 34 l 104 736 q 133 800 106 774 q 198 825 160 825 z "},"":{"ha":1043,"x_min":81,"x_max":966,"o":"m 81 585 q 108 649 81 623 q 172 675 134 675 l 500 675 l 509 736 q 545 800 515 774 q 613 825 575 825 q 672 798 650 823 q 692 736 694 773 l 684 675 l 875 675 q 940 650 913 675 q 966 585 966 623 q 939 520 966 547 q 875 494 913 494 l 659 494 l 646 393 q 595 212 632 297 q 486 67 556 126 q 321 3 416 8 l 170 3 q 108 29 133 4 q 81 91 83 54 q 106 156 81 129 q 170 184 132 183 l 300 184 q 390 224 351 187 q 444 307 429 260 q 465 410 458 354 l 476 494 l 172 494 q 109 521 134 494 q 81 585 81 547 z "},"":{"ha":1004,"x_min":81,"x_max":920,"o":"m 81 94 q 108 158 81 132 q 172 184 134 184 l 829 184 q 894 159 867 184 q 920 94 920 132 q 893 29 920 56 q 829 3 867 3 l 172 3 q 109 30 134 3 q 81 94 81 56 m 81 712 q 108 777 81 750 q 172 803 134 803 l 829 803 q 894 777 867 803 q 920 712 920 750 q 893 648 920 674 q 829 621 867 621 l 172 621 q 109 648 134 621 q 81 712 81 674 z "},"":{"ha":1050,"x_min":81,"x_max":966,"o":"m 81 712 q 108 777 81 750 q 172 803 134 803 l 875 803 q 940 777 913 803 q 966 712 966 750 q 955 667 966 688 l 760 346 l 867 269 q 884 145 926 216 q 826 105 863 114 q 760 119 789 96 l 654 195 q 543 87 598 130 q 340 3 438 8 l 178 3 q 116 29 141 4 q 90 91 91 54 q 115 156 90 129 q 178 184 140 183 l 327 184 q 434 224 378 187 q 515 294 481 255 l 406 373 q 371 433 376 396 q 388 500 366 471 q 446 535 411 528 q 514 521 481 543 l 617 446 l 722 621 l 172 621 q 109 648 134 621 q 81 712 81 674 z "},"":{"ha":1138,"x_min":61,"x_max":1067,"o":"m 553 841 q 616 815 590 840 q 643 757 640 791 l 799 757 q 952 714 891 753 q 1040 626 1013 675 q 1067 526 1067 576 q 1041 425 1067 475 q 954 338 1015 376 q 937 328 945 332 l 1004 244 q 1022 178 1027 216 q 989 118 1017 141 q 921 100 959 94 q 860 133 884 102 l 730 298 l 643 298 l 643 72 q 616 10 642 35 q 553 -16 590 -15 q 488 9 515 -16 q 460 72 461 34 l 460 298 l 441 298 q 320 254 366 297 q 255 174 274 210 l 231 141 q 191 104 213 117 q 132 102 168 91 q 79 146 96 113 q 72 216 61 179 q 85 245 76 232 l 115 288 q 262 441 202 408 q 400 480 323 475 l 822 480 q 855 488 842 480 q 874 507 868 496 q 880 528 880 517 q 874 547 880 537 q 855 566 868 557 q 822 575 842 574 l 161 575 q 98 602 123 575 q 71 666 71 628 q 97 730 71 704 q 161 757 123 757 l 460 757 q 488 817 463 792 q 553 841 515 841 z "},"":{"ha":948,"x_min":81,"x_max":868,"o":"m 863 705 l 738 320 q 602 87 684 165 q 425 3 521 8 l 170 3 q 108 29 133 4 q 81 91 83 54 q 106 156 81 129 q 170 184 132 183 l 378 184 q 475 224 430 187 q 544 307 521 260 q 583 410 567 354 l 694 765 q 722 812 704 793 q 779 830 741 830 q 842 803 815 830 q 868 738 868 776 q 863 705 868 720 z "},"":{"ha":1176,"x_min":57,"x_max":1112,"o":"m 415 825 q 477 798 452 823 q 505 736 503 773 l 505 393 q 477 212 503 297 q 389 67 450 126 q 232 3 327 8 l 145 3 q 83 29 109 4 q 57 91 58 54 q 82 156 57 129 q 145 184 107 183 l 186 184 q 271 224 237 187 q 314 307 305 260 q 321 410 323 354 l 321 736 q 350 800 323 774 q 415 825 377 825 m 754 825 q 819 800 792 825 q 848 736 846 774 l 848 410 q 855 307 846 354 q 898 224 864 260 q 983 184 932 187 l 1024 184 q 1087 156 1062 183 q 1112 91 1112 129 q 1086 29 1111 54 q 1024 3 1061 4 l 937 3 q 781 67 842 8 q 692 212 719 126 q 665 393 666 297 l 665 736 q 692 798 666 773 q 754 825 718 823 z "},"":{"ha":1176,"x_min":57,"x_max":1112,"o":"m 415 825 q 477 798 452 823 q 505 736 503 773 l 505 393 q 477 212 503 297 q 389 67 450 126 q 232 3 327 8 l 145 3 q 83 29 109 4 q 57 91 58 54 q 82 156 57 129 q 145 184 107 183 l 186 184 q 271 224 237 187 q 314 307 305 260 q 321 410 323 354 l 321 736 q 350 800 323 774 q 415 825 377 825 m 754 825 q 819 800 792 825 q 848 736 846 774 l 848 410 q 855 307 846 354 q 898 224 864 260 q 983 184 932 187 l 1024 184 q 1087 156 1062 183 q 1112 91 1112 129 q 1086 29 1111 54 q 1024 3 1061 4 l 937 3 q 781 67 842 8 q 692 212 719 126 q 665 393 666 297 l 665 736 q 692 798 666 773 q 754 825 718 823 m 656 955 q 685 1024 656 996 q 754 1053 713 1053 q 823 1024 795 1053 q 852 955 852 996 q 823 886 852 914 q 754 857 795 857 q 685 886 713 857 q 656 955 656 914 m 890 955 q 918 1024 890 996 q 987 1053 947 1053 q 1057 1024 1028 1053 q 1085 955 1085 996 q 1057 886 1085 914 q 987 857 1028 857 q 918 886 947 857 q 890 955 890 914 z "},"":{"ha":1176,"x_min":57,"x_max":1112,"o":"m 415 825 q 477 798 452 823 q 505 736 503 773 l 505 393 q 477 212 503 297 q 389 67 450 126 q 232 3 327 8 l 145 3 q 83 29 109 4 q 57 91 58 54 q 82 156 57 129 q 145 184 107 183 l 186 184 q 271 224 237 187 q 314 307 305 260 q 321 410 323 354 l 321 736 q 350 800 323 774 q 415 825 377 825 m 746 831 q 790 938 746 894 q 898 982 834 982 q 1004 938 960 982 q 1048 831 1048 894 q 1004 724 1048 768 q 898 680 960 680 q 848 688 871 680 l 848 410 q 855 307 846 354 q 898 224 864 260 q 983 184 932 187 l 1024 184 q 1087 156 1062 183 q 1112 91 1112 129 q 1086 29 1111 54 q 1024 3 1061 4 l 937 3 q 781 67 842 8 q 692 212 719 126 q 665 393 666 297 l 665 736 q 692 799 666 773 q 746 825 715 821 q 746 831 746 827 m 819 831 q 842 776 819 799 q 898 753 865 753 q 952 776 929 753 q 975 831 975 799 q 952 886 975 863 q 898 909 929 909 q 842 886 865 909 q 819 831 819 863 z "},"":{"ha":1029,"x_min":106,"x_max":949,"o":"m 195 825 q 260 800 233 825 q 289 736 288 774 l 289 673 l 859 673 q 924 647 897 673 q 949 582 949 620 q 923 517 949 544 q 859 491 897 491 l 289 491 l 289 410 q 296 307 288 354 q 339 224 305 260 q 425 184 373 187 l 859 184 q 922 156 897 183 q 947 91 947 129 q 920 29 945 54 q 859 3 895 4 l 378 3 q 222 67 283 8 q 133 212 160 126 q 106 393 107 297 l 106 736 q 133 798 107 773 q 195 825 159 823 z "},"":{"ha":1029,"x_min":106,"x_max":955,"o":"m 195 825 q 260 800 233 825 q 289 736 288 774 l 289 673 l 859 673 q 924 647 897 673 q 949 582 949 620 q 923 517 949 544 q 859 491 897 491 l 289 491 l 289 410 q 296 307 288 354 q 339 224 305 260 q 425 184 373 187 l 859 184 q 922 156 897 183 q 947 91 947 129 q 920 29 945 54 q 859 3 895 4 l 378 3 q 222 67 283 8 q 133 212 160 126 q 106 393 107 297 l 106 736 q 133 798 107 773 q 195 825 159 823 m 526 825 q 555 894 526 865 q 624 922 583 922 q 693 894 665 922 q 722 825 722 865 q 693 755 722 784 q 624 727 665 727 q 555 755 583 727 q 526 825 526 784 m 760 825 q 788 894 760 865 q 857 922 817 922 q 926 894 898 922 q 955 825 955 865 q 926 755 955 784 q 857 727 898 727 q 788 755 817 727 q 760 825 760 784 z "},"":{"ha":1029,"x_min":106,"x_max":1010,"o":"m 195 825 q 260 800 233 825 q 289 736 288 774 l 289 673 l 731 673 q 708 755 708 709 q 752 862 708 818 q 860 906 796 906 q 966 862 922 906 q 1010 755 1010 818 q 967 648 1010 692 q 939 625 954 635 q 949 582 949 606 q 923 517 949 544 q 859 491 897 491 l 289 491 l 289 410 q 296 307 288 354 q 339 224 305 260 q 425 184 373 187 l 859 184 q 922 156 897 183 q 947 91 947 129 q 920 29 945 54 q 859 3 895 4 l 378 3 q 222 67 283 8 q 133 212 160 126 q 106 393 107 297 l 106 736 q 133 798 107 773 q 195 825 159 823 m 781 755 q 804 700 781 723 q 860 677 827 677 q 914 700 891 677 q 937 755 937 723 q 914 810 937 787 q 860 833 891 833 q 804 810 827 833 q 781 755 781 787 z "},"":{"ha":1101,"x_min":81,"x_max":1006,"o":"m 81 712 q 108 777 81 750 q 172 803 134 803 l 913 803 q 978 777 951 803 q 1004 712 1006 747 l 960 393 q 910 212 947 297 q 801 67 871 126 q 636 3 731 8 l 381 3 q 319 29 345 4 q 293 91 294 54 q 318 156 293 129 q 381 184 343 183 l 614 184 q 705 224 666 187 q 758 307 743 260 q 780 410 773 354 l 804 587 q 781 621 808 620 l 172 621 q 109 648 134 621 q 81 712 81 674 z "},"":{"ha":1101,"x_min":81,"x_max":1025,"o":"m 81 712 q 108 777 81 750 q 172 803 134 803 l 913 803 q 978 777 951 803 q 1004 712 1006 747 l 960 393 q 910 212 947 297 q 801 67 871 126 q 636 3 731 8 l 381 3 q 319 29 345 4 q 293 91 294 54 q 318 156 293 129 q 381 184 343 183 l 614 184 q 705 224 666 187 q 758 307 743 260 q 780 410 773 354 l 804 587 q 781 621 808 620 l 172 621 q 109 648 134 621 q 81 712 81 674 m 597 955 q 625 1024 597 996 q 694 1053 654 1053 q 764 1024 735 1053 q 792 955 792 996 q 764 886 792 914 q 694 857 735 857 q 625 886 654 857 q 597 955 597 914 m 830 955 q 859 1024 830 996 q 928 1053 887 1053 q 997 1024 968 1053 q 1025 955 1025 996 q 997 886 1025 914 q 928 857 968 857 q 859 886 887 857 q 830 955 830 914 z "},"":{"ha":1100,"x_min":81,"x_max":1065,"o":"m 81 712 q 108 777 81 750 q 172 803 134 803 l 785 803 q 762 886 762 840 q 806 992 762 948 q 914 1036 850 1036 q 1021 992 977 1036 q 1065 886 1065 948 q 1021 779 1065 822 q 994 755 1008 765 q 1004 712 1005 735 l 960 393 q 910 212 947 297 q 801 67 871 126 q 636 3 731 8 l 381 3 q 319 29 345 4 q 293 91 294 54 q 318 156 293 129 q 381 184 343 183 l 614 184 q 705 224 666 187 q 758 307 743 260 q 780 410 773 354 l 804 587 q 781 621 808 620 l 172 621 q 109 648 134 621 q 81 712 81 674 m 836 886 q 859 830 836 853 q 914 807 882 807 q 968 830 945 807 q 991 886 991 853 q 968 940 991 917 q 914 963 945 963 q 859 940 882 963 q 836 886 836 917 z "},"":{"ha":1099,"x_min":104,"x_max":1065,"o":"m 410 618 q 336 656 380 661 q 288 606 286 643 l 288 161 q 198 73 279 80 q 132 98 160 73 q 104 161 104 123 l 104 582 q 163 757 106 690 q 336 825 221 823 q 511 770 460 826 q 583 684 563 715 l 1036 146 q 1064 83 1063 121 q 1039 18 1065 46 q 978 -10 1013 -8 q 914 12 943 -12 l 410 618 z "},"":{"ha":1099,"x_min":104,"x_max":1065,"o":"m 410 618 q 336 656 380 661 q 288 606 286 643 l 288 161 q 198 73 279 80 q 132 98 160 73 q 104 161 104 123 l 104 582 q 163 757 106 690 q 336 825 221 823 q 511 770 460 826 q 583 684 563 715 l 1036 146 q 1064 83 1063 121 q 1039 18 1065 46 q 978 -10 1013 -8 q 914 12 943 -12 l 410 618 m 635 727 q 663 796 635 768 q 732 825 692 825 q 802 796 773 825 q 830 727 830 768 q 802 658 830 686 q 732 629 773 629 q 663 658 692 629 q 635 727 635 686 m 868 727 q 897 796 868 768 q 966 825 925 825 q 1035 796 1006 825 q 1063 727 1063 768 q 1035 658 1063 686 q 966 629 1006 629 q 897 658 925 629 q 868 727 868 686 z "},"":{"ha":1099,"x_min":104,"x_max":1065,"o":"m 410 618 q 336 656 380 661 q 288 606 286 643 l 288 161 q 198 73 279 80 q 132 98 160 73 q 104 161 104 123 l 104 582 q 163 757 106 690 q 336 825 221 823 q 511 770 460 826 q 583 684 563 715 l 1036 146 q 1064 83 1063 121 q 1039 18 1065 46 q 978 -10 1013 -8 q 914 12 943 -12 l 410 618 m 741 674 q 785 781 741 736 q 892 825 829 825 q 999 781 955 825 q 1043 674 1043 736 q 999 566 1043 610 q 892 522 955 522 q 785 566 829 522 q 741 674 741 610 m 814 674 q 837 618 814 642 q 892 595 860 595 q 947 618 924 595 q 970 674 970 642 q 947 728 970 705 q 892 751 924 751 q 837 728 860 751 q 814 674 814 705 z "},"":{"ha":1051,"x_min":68,"x_max":987,"o":"m 81 666 q 108 730 81 704 q 172 757 134 757 l 433 757 q 461 817 435 792 q 526 841 488 841 q 589 815 563 840 q 616 757 613 791 l 875 757 q 940 731 913 757 q 966 666 966 704 q 939 602 966 628 q 875 575 913 575 l 616 575 l 616 72 q 526 -16 608 -9 q 460 9 488 -16 q 433 72 433 34 l 433 575 l 172 575 q 109 602 134 575 q 81 666 81 628 m 212 499 q 274 473 248 498 q 301 411 300 448 l 301 251 q 251 35 300 148 q 133 -9 212 -35 q 83 41 99 7 q 83 109 68 75 q 118 245 118 187 l 118 411 q 146 474 119 449 q 212 499 174 499 m 844 499 q 909 474 882 499 q 937 411 936 449 l 937 245 q 972 109 937 187 q 972 41 987 75 q 922 -9 956 7 q 804 35 844 -35 q 754 251 755 148 l 754 411 q 781 473 755 448 q 844 499 807 498 z "}}}
